<svg fill="currentColor" viewBox="0 0 96 96" xmlns="http://www.w3.org/2000/svg"><g transform="translate(-743 -514)"><path d="M824.97 595 759 595 759 529 757 529 757 597 824.97 597 824.97 595Z"/><path d="M825 529 809 529 809 589 825 589ZM823 587 811 587 811 531 823 531Z"/><path d="M787 589 803 589 803 551 787 551ZM789 553 801 553 801 587 789 587Z"/><path d="M765 589 781 589 781 569 765 569ZM767 571 779 571 779 587 767 587Z"/><path d="M765.707 561.707 794.986 532.428C794.99 532.424 794.996 532.424 795 532.428 795.002 532.43 795.003 532.432 795.003 532.435L795.003 542 797.003 542 797.003 529 784.03 529 784.03 531 793.562 531C793.568 531 793.572 531.005 793.572 531.01 793.572 531.013 793.571 531.015 793.569 531.017L764.293 560.293Z"/></g></svg>