<svg fill="currentColor" viewBox="0 0 96 96" xmlns="http://www.w3.org/2000/svg"><g transform="translate(-1079 -380)"><path d="M1138 401.867 1138 428 1127 428 1127 397 1101 397 1101 420 1090 420 1090 459 1164 459 1164 405.117ZM1103 399 1125 399 1125 428 1116 428 1116 420 1103 420ZM1114 457 1105 457 1105 451 1101 451 1101 457 1092 457 1092 422 1114 422 1114 457ZM1138 457 1129 457 1129 451 1125 451 1125 457 1116 457 1116 430 1138 430ZM1162 457 1153 457 1153 451 1149 451 1149 457 1140 457 1140 404.133 1162 406.883Z"/><path d="M1121 443.018 1125 443.018 1125 447.019 1121 447.019Z"/><path d="M1129 443.018 1133 443.018 1133 447.019 1129 447.019Z"/><path d="M1121 435 1125 435 1125 439.001 1121 439.001Z"/><path d="M1129 435 1133 435 1133 439.001 1129 439.001Z"/><path d="M1108 412.018 1112 412.018 1112 416.019 1108 416.019Z"/><path d="M1116 412.018 1120 412.018 1120 416.019 1116 416.019Z"/><path d="M1108 404 1112 404 1112 408.001 1108 408.001Z"/><path d="M1116 404 1120 404 1120 408.001 1116 408.001Z"/><path d="M1097 443.018 1101 443.018 1101 447.019 1097 447.019Z"/><path d="M1105 443.018 1109 443.018 1109 447.019 1105 447.019Z"/><path d="M1097 435 1101 435 1101 439.001 1097 439.001Z"/><path d="M1105 435 1109 435 1109 439.001 1105 439.001Z"/><path d="M1097 427 1101 427 1101 431.001 1097 431.001Z"/><path d="M1105 427 1109 427 1109 431.001 1105 431.001Z"/><path d="M1145 443.018 1149 443.018 1149 447.019 1145 447.019Z"/><path d="M1153 443.018 1157 443.018 1157 447.019 1153 447.019Z"/><path d="M1145 435 1149 435 1149 439.001 1145 439.001Z"/><path d="M1153 435 1157 435 1157 439.001 1153 439.001Z"/><path d="M1145 427 1149 427 1149 431.001 1145 431.001Z"/><path d="M1153 427 1157 427 1157 431.001 1153 431.001Z"/><path d="M1145 419.018 1149 419.018 1149 423.019 1145 423.019Z"/><path d="M1153 419.018 1157 419.018 1157 423.019 1153 423.019Z"/><path d="M1145 411 1149 411 1149 415.001 1145 415.001Z"/><path d="M1153 411 1157 411 1157 415.001 1153 415.001Z"/></g></svg>