<svg fill="currentColor" viewBox="0 0 96 96" xmlns="http://www.w3.org/2000/svg"><g transform="translate(-568 -380)"><path d="M616 401.006C613.791 401.006 612 402.797 612 405.006 612 407.215 613.791 409.006 616 409.006 618.209 409.006 620 407.215 620 405.006 619.993 402.8 618.206 401.013 616 401.006ZM616 407.006C614.895 407.006 614 406.111 614 405.006 614 403.901 614.895 403.006 616 403.006 617.105 403.006 618 403.901 618 405.006 618.001 406.111 617.107 407.007 616.002 407.008 616.001 407.008 616.001 407.008 616 407.008Z"/><path d="M647 455.021 647 452 643 452 643 421 647 421 647 416 652 416 652 414 616 392 580 414 580 416 585 416 585 421 589 421 589 452 585 452 585 455.021 578 460.021 578 464 654 464 654 460.022ZM641 452 639 452 639 421 641 421ZM595 421 601 421 601 452 595 452ZM603 421 605 421 605 452 603 452ZM607 421 613 421 613 452 607 452ZM615 421 617 421 617 452 615 452ZM619 421 625 421 625 452 619 452ZM627 421 629 421 629 452 627 452ZM631 421 637 421 637 452 631 452ZM583.866 413.981 616 394.347 648.134 413.981C648.139 413.983 648.142 413.988 648.14 413.994 648.139 413.997 648.137 413.999 648.134 414L583.872 414C583.866 413.999 583.862 413.994 583.862 413.988 583.863 413.985 583.864 413.983 583.866 413.981ZM587 416 645 416 645 419 587 419ZM591 421 593 421 593 452 591 452ZM587 456.05 587 454 645 454 645 456.05 645.837 456.65 646.329 457.002 585.671 457.002 586.164 456.65ZM652 462 580 462 580 461.052 582.871 459 649.134 459 652 461.052Z"/></g></svg>