<svg fill="currentColor" viewBox="0 0 96 96" xmlns="http://www.w3.org/2000/svg"><g transform="translate(-393 -511)"><path d="M476 513.7 433.073 560.5 435.303 562.73 433.514 564.4C425.7 572.2 419.873 574.309 418.291 574.769L417.146 575.048 417.058 575.706C415.806 583.378 412.779 590.652 408.219 596.947L407.661 597.647 414.354 604.339 415.054 603.781C421.35 599.222 428.623 596.195 436.295 594.941L436.995 594.831 437.123 594.131C437.135 594.067 438.398 587.689 447.602 578.469L449.311 576.73 451.569 579 476 552.629 476 549.687 451.515 576.113 435.841 560.439 476 516.659ZM446.179 577.066C438.196 585.066 435.909 591.084 435.33 593.074 427.847 594.385 420.744 597.322 414.521 601.679L413.121 600.279 425.7 587.7C427.063 588.282 428.64 587.649 429.223 586.286 429.805 584.923 429.172 583.346 427.809 582.763 426.445 582.181 424.868 582.814 424.286 584.177 423.998 584.851 423.998 585.613 424.286 586.286L411.708 598.866 410.321 597.479C414.685 591.248 417.624 584.133 418.932 576.639 421.499 575.961 427.532 573.196 434.903 565.839L436.718 564.146 447.9 575.321Z"/></g></svg>