<svg fill="currentColor" viewBox="0 0 96 96" xmlns="http://www.w3.org/2000/svg"><g transform="translate(-190 -514)"><path d="M237 540.025 237 547 239 547 239 540.021C243.657 540.128 248.261 541.035 252.611 542.7L250.081 548.6 251.919 549.388 254.462 543.454C257.51 544.799 260.384 546.509 263.02 548.547L264.57 547.223C245.939 532.529 218.923 535.721 204.229 554.352 198.242 561.943 194.99 571.332 195 581L195 585 197 585 197 581C196.997 576.005 197.913 571.052 199.7 566.388L205.6 568.919 206.388 567.081 200.455 564.539C202.376 560.182 205.04 556.192 208.326 552.746L213.287 557.707 214.701 556.293 209.74 551.332C213.186 548.046 217.176 545.382 221.533 543.461L224.075 549.394 225.913 548.606 223.388 542.7C227.739 541.037 232.343 540.132 237 540.025Z"/><path d="M272.183 554.954 270.87 556.521C272.725 559.008 274.293 561.697 275.542 564.537L269.606 567.081 270.394 568.919 276.307 566.385C278.092 571.051 279.005 576.005 279 581L279 585 281 585 281 581C281.008 571.584 277.909 562.429 272.183 554.954Z"/><path d="M271.7 547.725C271.331 547.359 270.743 547.337 270.347 547.674L234.8 578.013C234.608 578.141 234.439 578.3 234.3 578.484 234.266 578.526 234.23 578.571 234.123 578.684 232.417 580.79 232.691 583.87 234.743 585.641 235.62 586.372 236.726 586.772 237.868 586.772 239.328 586.767 240.714 586.13 241.668 585.025L271.768 549.075C272.099 548.675 272.069 548.089 271.7 547.725ZM240.142 583.725C239.11 584.949 237.291 585.127 236.042 584.125 234.831 583.091 234.638 581.292 235.603 580.025 235.696 579.931 235.773 579.839 235.845 579.751 235.863 579.729 235.879 579.708 235.896 579.688 235.942 579.66 235.986 579.628 236.027 579.594L262.483 557.018C262.487 557.014 262.493 557.014 262.497 557.018 262.502 557.021 262.502 557.028 262.498 557.032Z"/></g></svg>