<svg fill="currentColor" viewBox="0 0 96 96" xmlns="http://www.w3.org/2000/svg"><g transform="translate(-190 -370)"><path d="M270.522 398.977 272.1 407 274.138 407 272.1 396.625 220 406.982C219.945 406.993 219.946 407.001 220 407.001L230.161 407.001Z"/><path d="M258.655 388.107 261.668 395.64 263.668 395.24 259.768 385.49 207.208 406.982C207.182 406.993 207.184 407.001 207.208 407.001L212.442 407.001Z"/><path d="M282.012 410 194 410 194 450 282.012 450ZM280.012 448 196 448 196 412 280.012 412Z"/><path d="M238.006 439C241.983 439 245.206 434.971 245.206 430 245.206 425.029 241.982 421 238.006 421 234.03 421 230.806 425.029 230.806 430 230.806 434.971 234.029 439 238.006 439ZM238.006 423C240.874 423 243.206 426.14 243.206 430 243.206 433.86 240.873 437 238.006 437 235.139 437 232.806 433.86 232.806 430 232.806 426.14 235.139 423 238.006 423Z"/><path d="M211.918 433.859C214.055 434.452 216.267 433.2 216.86 431.064 217.055 430.361 217.055 429.618 216.86 428.916 216.492 427.568 215.439 426.514 214.091 426.146 211.955 425.552 209.741 426.802 209.147 428.938 208.951 429.642 208.951 430.387 209.147 431.091 209.515 432.439 210.569 433.492 211.918 433.859ZM213 428C214.105 428 215 428.895 215 430 215 431.105 214.105 432 213 432 211.895 432 211 431.105 211 430 211 428.895 211.895 428 213 428Z"/><path d="M263.826 433.921C265.723 433.479 267.051 431.768 267.01 429.821L267.01 429.821C267.036 428.5 266.348 427.268 265.21 426.597 263.314 425.41 260.814 425.985 259.627 427.882 259.23 428.516 259.016 429.249 259.01 429.997 259.01 432.21 260.805 434.004 263.018 434.004 263.289 434.004 263.56 433.976 263.826 433.921ZM263.01 428C264.115 428 265.01 428.895 265.01 430 265.01 431.105 264.115 432 263.01 432 261.905 432 261.01 431.105 261.01 430 261.01 428.895 261.905 428 263.01 428Z"/><path d="M273.011 444 276.011 441 276.011 419 273.011 416 204 416 200 420 200 440 204 444ZM202 420.83 204.83 418 272.183 418 274.011 419.828 274.011 440.174 272.183 442 204.83 442 202 439.174Z"/></g></svg>