<svg fill="currentColor" viewBox="0 0 96 96" xmlns="http://www.w3.org/2000/svg"><g transform="translate(-921 -511)"><path d="M1006.91 566.5 999.263 534 1002 534C1002.55 534 1003 533.552 1003 533 1003 532.448 1002.55 532 1002 532L972.858 532C972.492 530.601 971.399 529.508 970 529.142L970 520C970 519.448 969.552 519 969 519 968.448 519 968 519.448 968 520L968 529.142C966.601 529.508 965.508 530.601 965.142 532L936 532C935.448 532 935 532.448 935 533 935 533.552 935.448 534 936 534L938.737 534 931.09 566.5 928 566.5 928 567.5C928 571.554 933.49 574.729 940.5 574.729 947.51 574.729 953 571.554 953 567.5L953 566.5 949.91 566.5 942.263 534 965.142 534C965.508 535.399 966.601 536.492 968 536.858L968 592 961 592C958.791 592 957 593.791 957 596L959 596C959 594.895 959.895 594 961 594L977 594C978.105 594 979 594.895 979 596L981 596C981 593.791 979.209 592 977 592L970 592 970 536.858C971.399 536.492 972.492 535.399 972.858 534L995.737 534 988.09 566.5 985 566.5 985 567.5C985 571.554 990.49 574.729 997.5 574.729 1004.51 574.729 1010 571.554 1010 567.5L1010 566.5ZM1004.85 566.5 990.145 566.5 997.49 535.283C997.49 535.278 997.495 535.273 997.5 535.273 997.505 535.273 997.51 535.278 997.51 535.283ZM940.51 535.283 947.855 566.5 933.145 566.5 940.49 535.283C940.49 535.278 940.495 535.273 940.5 535.273 940.505 535.273 940.51 535.278 940.51 535.283ZM940.5 572.729C935.493 572.729 931.169 570.876 930.2 568.5L950.8 568.5C949.831 570.876 945.507 572.729 940.5 572.729ZM969 535C967.895 535 967 534.105 967 533 967 531.895 967.895 531 969 531 970.105 531 971 531.895 971 533 971 534.105 970.105 535 969 535ZM997.5 572.729C992.493 572.729 988.169 570.876 987.2 568.5L1007.8 568.5C1006.83 570.876 1002.51 572.729 997.5 572.729Z"/><path d="M945 597 993 597 993 599 945 599Z"/></g></svg>