<svg width="96" height="96" xmlns="http://www.w3.org/2000/svg" xmlns:xlink="http://www.w3.org/1999/xlink" xml:space="preserve" overflow="hidden"><g transform="translate(-921 -380)"><path d="M954 407.586 950.707 404.293 949.293 405.707 954 410.414 963.707 400.707 962.293 399.293 954 407.586Z"/><path d="M970 405 989 405 989 407 970 407Z"/><path d="M954 422.586 950.707 419.293 949.293 420.707 954 425.414 963.707 415.707 962.293 414.293 954 422.586Z"/><path d="M970 420 989 420 989 422 970 422Z"/><path d="M954 437.586 950.707 434.293 949.293 435.707 954 440.414 963.707 430.707 962.293 429.293 954 437.586Z"/><path d="M970 435 989 435 989 437 970 437Z"/><path d="M954 452.586 950.707 449.293 949.293 450.707 954 455.414 963.707 445.707 962.293 444.293 954 452.586Z"/><path d="M970 450 989 450 989 452 970 452Z"/><path d="M939 468 999 468 999 388 939 388ZM941 390 997 390 997 466 941 466Z"/></g></svg>