<svg width="96" height="96" xmlns="http://www.w3.org/2000/svg" xmlns:xlink="http://www.w3.org/1999/xlink" xml:space="preserve" overflow="hidden"><g transform="translate(-746 -382)"><path d="M818 390 770 390C767.794 390.007 766.007 391.794 766 394L766 466C766.007 468.206 767.794 469.993 770 470L818 470C820.206 469.993 821.993 468.206 822 466L822 394C821.993 391.794 820.206 390.007 818 390ZM820 466C820 467.105 819.105 468 818 468L770 468C768.895 468 768 467.105 768 466L768 394C768 392.895 768.895 392 770 392L818 392C819.105 392 820 392.895 820 394Z"/><path d="M776 417 812 417 812 399 776 399ZM778 401 810 401 810 415 778 415Z"/><path d="M777 424 781 424 781 428 777 428Z"/><path d="M787 424 791 424 791 428 787 428Z"/><path d="M797 424 801 424 801 428 797 428Z"/><path d="M807 424 811 424 811 428 807 428Z"/><path d="M777 434 781 434 781 438 777 438Z"/><path d="M787 434 791 434 791 438 787 438Z"/><path d="M797 434 801 434 801 438 797 438Z"/><path d="M807 434 811 434 811 438 807 438Z"/><path d="M777 444 781 444 781 448 777 448Z"/><path d="M787 444 791 444 791 448 787 448Z"/><path d="M797 444 801 444 801 448 797 448Z"/><path d="M807 444 811 444 811 448 807 448Z"/><path d="M777 454 791 454 791 458 777 458Z"/><path d="M797 454 801 454 801 458 797 458Z"/><path d="M807 454 811 454 811 458 807 458Z"/></g></svg>