<svg width="96" height="96" xmlns="http://www.w3.org/2000/svg" xmlns:xlink="http://www.w3.org/1999/xlink" xml:space="preserve" overflow="hidden"><g transform="translate(-393 -381)"><path d="M450.368 437.525C449.96 437.708 449.521 437.813 449.074 437.836 448.8 437.843 448.531 437.768 448.3 437.62 448.133 437.51 447.998 437.357 447.91 437.178 447.715 436.964 447.437 436.846 447.148 436.854 446.935 436.851 446.726 436.912 446.548 437.029 446.34 437.176 446.202 437.401 446.166 437.653 446.118 437.911 446.165 438.177 446.298 438.403 446.904 439.291 447.914 439.817 448.989 439.803 449.75 439.783 450.5 439.606 451.189 439.282L452 438.927 452.453 439.683C452.799 440.197 453.38 440.504 454 440.5L454.3 440.5C455.559 440.401 456.697 439.713 457.369 438.644 457.579 438.336 457.822 438.05 458.093 437.793 458.922 437.041 459.926 436.508 461.013 436.242L462.213 435.883 462.302 437.128C462.327 438.108 462.897 438.992 463.779 439.419 464.211 439.645 464.691 439.762 465.179 439.759 465.878 439.754 466.561 439.549 467.147 439.168 467.271 439.085 467.373 439.002 467.476 438.919 467.598 438.819 467.721 438.725 467.859 438.628L468.647 437.909 469.356 438.617C469.44 438.673 469.522 438.732 469.593 438.789 470.098 439.061 470.668 439.193 471.241 439.17 471.515 439.169 471.789 439.149 472.061 439.11L472.131 439.1 475 439.1C475.552 439.1 476 438.652 476 438.1 476 437.548 475.552 437.1 475 437.1L473.5 437.1C472.965 437.083 472.43 437.11 471.9 437.181L470.7 437.421 470.586 437.1 470.234 436.749C469.785 436.351 469.213 436.119 468.614 436.091 468.411 436.093 468.209 436.122 468.014 436.177 467.472 436.309 466.981 436.599 466.602 437.009L466.012 437.6 465.859 437.6C465.714 437.666 465.556 437.701 465.396 437.7L464.216 437.7 464.41 436.535C464.553 435.967 464.497 435.367 464.252 434.835 463.854 434.229 463.144 433.904 462.425 434 462.113 434.002 461.802 434.028 461.494 434.077 459.799 434.357 458.212 435.091 456.9 436.2 456.7 436.4 456.535 436.593 456.377 436.775 456.219 436.957 456.055 437.145 455.9 437.299 455.817 437.383 455.714 437.509 455.61 437.634 455.464 437.809 455.317 437.983 455.201 438.099L454.495 438.806 453.787 438.1C453.712 438.022 453.642 437.94 453.578 437.853L453.522 437.826 453.422 437.733C453.027 437.334 452.491 437.106 451.929 437.099 451.384 437.126 450.851 437.271 450.368 437.525Z"/><path d="M398 410 398 448 484 448 484 410ZM482 446 400 446 400 412 482 412Z"/><path d="M406 420 424 420 424 422 406 422Z"/><path d="M406 428 453 428 453 430 406 430Z"/><path d="M476 423 457 423 457 430 476 430ZM474 428 459 428 459 425 474 425Z"/></g></svg>