<svg width="96" height="96" xmlns="http://www.w3.org/2000/svg" xmlns:xlink="http://www.w3.org/1999/xlink" xml:space="preserve" overflow="hidden"><g transform="translate(-568 -511)"><path d="M583 526 581 526 581 594 648.97 594 648.97 592 583 592 583 526Z"/><path d="M605 526 589 526 589 586 605 586ZM603 584 591 584 591 528 603 528Z"/><path d="M627 548 611 548 611 586 627 586ZM625 584 613 584 613 550 625 550Z"/><path d="M633 586 649 586 649 566 633 566ZM635 568 647 568 647 584 635 584Z"/><path d="M647 546 647 555.565C647 555.57 646.995 555.575 646.99 555.575 646.987 555.575 646.985 555.574 646.983 555.572L617.7 526.293 616.29 527.707 645.566 556.983C645.57 556.987 645.57 556.993 645.566 556.997 645.564 556.999 645.562 557 645.559 557L636.027 557 636.027 559 649 559 649 546Z"/></g></svg>