<svg width="96" height="96" xmlns="http://www.w3.org/2000/svg" xmlns:xlink="http://www.w3.org/1999/xlink" xml:space="preserve" overflow="hidden"><g transform="translate(-1079 -514)"><path d="M1148 599.977 1148 530 1143 530 1143 524 1111 524 1111 530 1106 530 1106 599.977 1099 599.977 1099 601.977 1155 601.977 1155 599.977ZM1113 526 1141 526 1141 530 1113 530ZM1108 532 1146 532 1146 599.977 1129 599.977 1129 589 1125 589 1125 599.977 1108 599.977Z"/><path d="M1115 559 1119 559 1119 565 1115 565Z"/><path d="M1115 549 1119 549 1119 555 1115 555Z"/><path d="M1115 569 1119 569 1119 575 1115 575Z"/><path d="M1115 579 1119 579 1119 585 1115 585Z"/><path d="M1125 559 1129 559 1129 565 1125 565Z"/><path d="M1125 579 1129 579 1129 585 1125 585Z"/><path d="M1135 589 1139 589 1139 595 1135 595Z"/><path d="M1135 539 1139 539 1139 545 1135 545Z"/><path d="M1125 569 1129 569 1129 575 1125 575Z"/><path d="M1125 549 1129 549 1129 555 1125 555Z"/><path d="M1125 539 1129 539 1129 545 1125 545Z"/><path d="M1115 539 1119 539 1119 545 1115 545Z"/><path d="M1115 589 1119 589 1119 595 1115 595Z"/><path d="M1135 559 1139 559 1139 565 1135 565Z"/><path d="M1135 569 1139 569 1139 575 1135 575Z"/><path d="M1135 579 1139 579 1139 585 1135 585Z"/><path d="M1135 549 1139 549 1139 555 1135 555Z"/></g></svg>