<svg width="46" height="31" viewBox="0 0 46 31" xmlns="http://www.w3.org/2000/svg">
    <g fill-rule="nonzero" fill="none">
        <path d="m45.808 11.194-.998-1.549a5.871 5.871 0 0 0-.74-4.728A5.42 5.42 0 0 0 40.117 2.4L38.774.504a1.215 1.215 0 0 0-1.7-.27 1.224 1.224 0 0 0-.27 1.705l.382.53c-1.419.277-2.788.77-4.06 1.46C22.823 1.297 6.557 3.43 1.688 7.032.602 7.832.031 8.74 0 9.714a3.92 3.92 0 0 0 1.6 3.148c3.376 2.89 12.5 4.697 21.072 5.037-1.801 4.539-2.51 8.763-1.883 11.017a2.585 2.585 0 0 0 1.67 1.933c.322.104.659.155.997.151 3.941 0 11.208-5.937 16.623-15.708l.038-.069a12.136 12.136 0 0 0 3.451-3.047l.207.327c.229.344.611.554 1.023.56.234.001.463-.067.659-.195a1.224 1.224 0 0 0 .351-1.674z" fill="#000"/>
        <path d="M23.381 28.406c.094.113 1.707-.076 4.393-2.14 2.152-1.713 4.882-4.13 8.245-9.268a34.16 34.16 0 0 1-4.895.794 56.25 56.25 0 0 1-5.647.22c-2.39 5.767-2.56 9.865-2.096 10.394zM22.415 5.345c-7.963 0-16.014 1.681-18.951 3.64-.628.44-.835.755-.841.824 0 .39.37.8.69 1.076 2.83 2.437 11.992 4.225 20.501 4.483a39.682 39.682 0 0 1 4.982-7.983c.427-.51.893-.985 1.394-1.423a45.775 45.775 0 0 0-7.775-.617z" fill="#FFF"/>
        <path d="m33.371 6.686-1.45 1.26a9.574 9.574 0 0 0-1.091 1.12c-.239.29-.471.585-.703.888a10.569 10.569 0 0 1 3.52 4.872 22.76 22.76 0 0 0 2.278-.547c.7-.237 1.383-.518 2.046-.844.131-.907-.12-2.474-1.318-4.275a7.79 7.79 0 0 0-3.282-2.474z" fill="#FFD400"/>
    </g>
</svg>
