<?xml version="1.0" encoding="UTF-8"?>
<svg version="1.1" xmlns="http://www.w3.org/2000/svg" width="1723" height="426">
<path d="M0 0 C0.99338379 0.26490234 0.99338379 0.26490234 2.00683594 0.53515625 C39.55851146 10.83373664 70.39393994 37.62369812 89.56787109 70.96435547 C106.08679851 100.99811404 112.03248123 140.60497729 103 174 C102.70198486 175.16281494 102.70198486 175.16281494 102.39794922 176.34912109 C96.19499392 200.19913575 85.09952362 221.14202977 68 239 C67.03452513 240.18170102 66.0756236 241.36881923 65.125 242.5625 C61.02268226 247.37679024 55.97830224 251.13913926 51 255 C50.1440625 255.67160156 49.288125 256.34320313 48.40625 257.03515625 C23.21845586 276.11566898 -6.48175228 285.22244486 -37.875 285.25 C-38.91095306 285.25101212 -38.91095306 285.25101212 -39.96783447 285.25204468 C-50.89350757 285.23511129 -61.36502842 284.64701889 -72 282 C-72.69125977 281.83371094 -73.38251953 281.66742188 -74.09472656 281.49609375 C-96.49957816 275.953895 -116.67263308 265.20180483 -134 250 C-134.85078125 249.28199219 -135.7015625 248.56398438 -136.578125 247.82421875 C-142.82112806 242.43340475 -147.98589479 236.53656988 -153 230 C-153.66773438 229.14792969 -154.33546875 228.29585937 -155.0234375 227.41796875 C-166.14654278 212.7556936 -173.71166923 196.52413044 -178.75 178.875 C-178.94883789 178.1835791 -179.14767578 177.4921582 -179.35253906 176.77978516 C-182.57367526 164.89804692 -183.38116113 153.05782746 -183.3125 140.8125 C-183.30827026 139.72075974 -183.30827026 139.72075974 -183.30395508 138.60696411 C-183.07220042 98.74024302 -167.34615201 63.03336688 -139 35 C-121.51983964 18.51967981 -100.26813693 6.20483651 -77 0 C-76.29907227 -0.19464844 -75.59814453 -0.38929687 -74.87597656 -0.58984375 C-51.36756971 -6.8532939 -23.39954548 -6.49808067 0 0 Z " fill="#19A36D" transform="translate(219,87)"/>
<path d="M0 0 C23.35599611 -0.58450877 44.25693225 6.77226405 61.4140625 22.9296875 C62.18363281 23.66445312 62.95320313 24.39921875 63.74609375 25.15625 C64.42285156 25.74664062 65.09960938 26.33703125 65.796875 26.9453125 C79.91945417 39.79431239 88.46674563 60.05994216 90.05859375 78.84375 C89.40866276 85.7330185 86.70623759 89.68847864 81.5625 93.9921875 C77.58587835 96.5406461 73.36336722 96.54102279 68.74609375 96.15625 C63.36425232 94.30529893 59.94413592 91.94350331 56.74609375 87.15625 C55.83635684 84.45215469 55.06607098 81.84845409 54.37109375 79.09375 C49.93730053 63.08825313 42.32448832 50.16373902 27.57421875 41.59375 C15.92199876 35.67107464 3.00255606 33.88639106 -9.75390625 37.34375 C-22.76755741 42.11395659 -33.46930653 51.00266679 -40.25390625 63.15625 C-44.1606035 71.76113122 -46.35891013 79.46167907 -46.41162109 88.93334961 C-46.41670181 89.58312775 -46.42178253 90.23290588 -46.42701721 90.90237427 C-46.43766222 92.30512617 -46.44630506 93.70789443 -46.45313644 95.11067009 C-46.46504238 97.34588459 -46.48452829 99.58091581 -46.5062561 101.8160553 C-46.56744743 108.16872863 -46.62160608 114.52138384 -46.65527344 120.87426758 C-46.67647371 124.77174291 -46.71197769 128.66888305 -46.75603104 132.56616402 C-46.76999882 134.03579264 -46.77886892 135.50548056 -46.78208542 136.97517204 C-46.84157873 161.57712007 -53.84610774 183.46616372 -70.25390625 202.15625 C-70.9190625 202.91679687 -71.58421875 203.67734375 -72.26953125 204.4609375 C-86.7228514 219.93134314 -107.90745682 229.19255836 -128.91015625 230.359375 C-153.10399597 230.65442183 -174.35908575 222.54413824 -192.25390625 206.15625 C-209.45460048 189.17572465 -219.3416542 166.33180526 -219.50390625 142.15625 C-219.52453125 141.38796875 -219.54515625 140.6196875 -219.56640625 139.828125 C-219.60658834 133.92135734 -218.74383488 129.12919757 -214.82421875 124.44921875 C-209.30910825 120.2309045 -205.26961359 118.44278824 -198.25390625 119.15625 C-193.08585988 120.94667805 -188.99807741 123.30117795 -186.25390625 128.15625 C-184.52306565 133.6634701 -184.18605917 139.16978283 -183.94140625 144.90625 C-183.0022715 159.11643642 -176.84971678 171.45933051 -166.90625 181.53515625 C-154.79014562 191.91757415 -141.96024736 194.96769279 -126.47607422 194.33105469 C-114.92021518 193.42202425 -104.41194419 186.74264189 -96.50390625 178.59375 C-83.04862796 162.79527244 -82.14397714 144.59062981 -82.078125 124.703125 C-82.06765202 123.34994768 -82.05622169 121.99677747 -82.04389954 120.64361572 C-81.99231302 114.97614529 -81.94357635 109.30881359 -81.92797852 103.64111328 C-81.83119575 73.09168258 -77.67891542 46.96337593 -55.25390625 24.15625 C-40.15685039 9.91499342 -20.7942474 0.99852328 0 0 Z " fill="#19A36D" transform="translate(1596.25390625,140.84375)"/>
<path d="M0 0 C7.94971909 6.66878428 11.58593501 17.5285299 15.7265625 26.78515625 C16.43000114 28.34197839 17.13403408 29.89853212 17.83862305 31.45483398 C23.32750541 43.60137034 28.73355922 55.78552656 34.12939453 67.97363281 C39.39228181 79.85536042 44.73582768 91.69956156 50.1015625 103.53515625 C56.30633481 117.22408298 62.48320808 130.92319098 68.5546875 144.671875 C70.29897208 148.61778707 72.06429861 152.55320128 73.85203552 156.47962952 C74.70304357 158.34983949 75.55040555 160.22165995 76.39672852 162.09399414 C77.46038069 164.44408517 78.53075981 166.79114792 79.60913086 169.13452148 C83.24420838 177.19694491 85.68815522 183.20688431 82.5078125 191.8203125 C80.05106358 196.39351742 76.22079932 199.34957731 71.3515625 200.97265625 C65.74789586 201.64686466 61.34233069 200.96821788 56.2734375 198.53125 C49.10399964 192.71701076 46.20318441 183.2311165 42.7265625 174.97265625 C42.14921421 173.61815825 41.57109464 172.26398874 40.9921875 170.91015625 C39.92540134 168.41210724 38.86402526 165.91201713 37.80615234 163.41015625 C36.33200423 159.92643597 34.84167229 156.44957909 33.3515625 152.97265625 C1.6715625 152.64265625 -30.0084375 152.31265625 -62.6484375 151.97265625 C-63.6384375 154.94265625 -64.6284375 157.91265625 -65.6484375 160.97265625 C-67.47775231 165.66945705 -69.43011779 170.30683785 -71.41674805 174.93896484 C-72.02946938 176.3779242 -72.6333352 177.82068662 -73.22827148 179.26708984 C-79.81879098 195.2780794 -79.81879098 195.2780794 -87.6484375 199.97265625 C-93.19729313 201.82227479 -98.5899699 201.77163227 -103.9609375 199.34765625 C-107.72982354 197.20044229 -109.74324901 194.9354483 -111.6484375 190.97265625 C-114.84495907 179.18548298 -106.3721672 166.65787144 -101.5703125 156.10961914 C-99.54136523 151.6522756 -97.52577972 147.18888481 -95.5078125 142.7265625 C-95.09704468 141.81927399 -94.68627686 140.91198547 -94.26306152 139.97720337 C-90.34935885 131.32761843 -86.49377214 122.65279534 -82.6484375 113.97265625 C-75.10394718 96.95549988 -67.4652709 79.98130376 -59.81755066 63.01034546 C-56.94562204 56.63592586 -54.08160333 50.25799559 -51.22387695 43.87719727 C-50.15220621 41.48451505 -49.07733414 39.09335783 -48.00073242 36.70288086 C-45.65328473 31.48586968 -43.33373784 26.26190349 -41.09765625 20.99609375 C-40.7013501 20.07666992 -40.30504395 19.15724609 -39.89672852 18.20996094 C-39.18401679 16.5524918 -38.4837358 14.8895773 -37.80053711 13.21972656 C-34.92663825 6.58753945 -30.63238797 1.1367303 -23.9609375 -1.96484375 C-15.61636816 -4.53116198 -7.78898686 -3.73389576 0 0 Z M-14.6484375 41.97265625 C-19.30543811 50.84287271 -23.20443042 60.02200815 -27.1484375 69.22265625 C-27.85062044 70.85526843 -28.55309806 72.48775389 -29.25585938 74.12011719 C-30.32876287 76.61234813 -31.40145193 79.10466874 -32.47302246 81.59747314 C-34.83127988 87.08227139 -37.2031466 92.56097468 -39.5859375 98.03515625 C-40.04377625 99.08772614 -40.04377625 99.08772614 -40.51086426 100.16156006 C-41.67490568 102.83753093 -42.83897567 105.5134839 -44.00610352 108.18811035 C-44.79473368 109.99580253 -45.58102845 111.80451302 -46.3671875 113.61328125 C-46.80998047 114.62938477 -47.25277344 115.64548828 -47.70898438 116.69238281 C-48.71192567 118.71572104 -48.71192567 118.71572104 -48.6484375 119.97265625 C-26.2084375 119.97265625 -3.7684375 119.97265625 19.3515625 119.97265625 C17.45692735 114.28875079 15.64929616 109.11679248 13.234375 103.7109375 C12.94063492 103.04971893 12.64689484 102.38850037 12.34425354 101.70724487 C11.71649468 100.29511909 11.08692375 98.88379764 10.45565796 97.47323608 C8.77575855 93.71900151 7.10967687 89.9586314 5.44140625 86.19921875 C5.10150162 85.43427597 4.76159698 84.66933319 4.41139221 83.88121033 C0.90927625 75.99351732 -2.53274886 68.08020295 -5.9609375 60.16015625 C-6.23701843 59.52340973 -6.51309937 58.88666321 -6.79754639 58.23062134 C-11.61998056 47.10753669 -11.61998056 47.10753669 -13.6484375 41.97265625 C-13.9784375 41.97265625 -14.3084375 41.97265625 -14.6484375 41.97265625 Z " fill="#1C1D1B" transform="translate(505.6484375,133.02734375)"/>
<path d="M0 0 C17.51475337 13.41440026 26.98796027 31.82002101 29.890625 53.55078125 C32.14543825 78.96614544 27.28041694 103.22478772 10.671875 123.16015625 C-2.43165008 137.15140173 -20.44243556 144.69382106 -39.54296875 145.4296875 C-57.53276544 144.91075106 -72.69728309 138.6801673 -85.79296875 126.1171875 C-87.13908591 124.4608288 -88.47419877 122.79540123 -89.79296875 121.1171875 C-89.79883499 121.73026764 -89.80470123 122.34334778 -89.81074524 122.9750061 C-89.87477332 129.36693954 -89.95921753 135.75837388 -90.05541992 142.14990234 C-90.08863521 144.53394991 -90.11667767 146.91807547 -90.1394043 149.30224609 C-90.17301193 152.73308489 -90.22533282 156.16321113 -90.28125 159.59375 C-90.29083488 161.18783188 -90.29083488 161.18783188 -90.3006134 162.81411743 C-90.40918102 168.30215377 -90.64281156 172.4116491 -93.79296875 177.1171875 C-99.28996276 182.19133582 -103.57030095 183.65620332 -110.96875 183.48828125 C-115.38344856 182.90820329 -118.74201669 181.37878436 -121.79296875 178.1171875 C-126.87095126 170.52811474 -126.35935511 162.71543478 -126.31054688 153.9140625 C-126.31597291 152.27070497 -126.32309828 150.62735231 -126.33178711 148.98400879 C-126.3499662 144.53768401 -126.34297543 140.09173199 -126.33027077 135.645401 C-126.32011496 130.98331732 -126.3295436 126.32126468 -126.33581543 121.65917969 C-126.34308433 113.83132217 -126.33352404 106.0036158 -126.31445312 98.17578125 C-126.29268583 89.13704184 -126.29973774 80.09866338 -126.32175875 71.05993271 C-126.33993435 63.28728022 -126.34246052 55.51473613 -126.33200407 47.74206924 C-126.32578101 43.10512631 -126.32490075 38.46835282 -126.33815002 33.8314209 C-126.34973941 29.4711576 -126.34162671 25.11135785 -126.318573 20.75114441 C-126.31330235 19.15484892 -126.31477145 17.55851414 -126.32362366 15.9622345 C-126.39984561 0.81639442 -126.39984561 0.81639442 -121.79296875 -5.8828125 C-116.01506421 -10.48155285 -111.00636225 -11.6894967 -103.79296875 -10.8828125 C-98.17211584 -9.30977523 -94.55208183 -6.38889204 -91.69140625 -1.3203125 C-89.97494734 3.33651515 -89.88320484 8.19521889 -89.79296875 13.1171875 C-89.39207031 12.6325 -88.99117187 12.1478125 -88.578125 11.6484375 C-65.53989258 -15.51682522 -29.66119705 -19.99538039 0 0 Z M-80.046875 33.0625 C-89.27073243 43.91652462 -92.51020438 57.33303755 -91.57421875 71.40625 C-89.94792036 84.51046202 -84.91151923 96.31753511 -74.62890625 104.9296875 C-65.14633078 111.63115427 -54.41118323 115.22218073 -42.79296875 114.1171875 C-30.73667297 111.6645587 -21.45523547 106.41366331 -14.25390625 96.35546875 C-6.35243942 84.24974551 -4.12513255 70.24999416 -6.26171875 55.98828125 C-8.8633911 44.11040808 -14.05956578 33.6445512 -23.79296875 26.1171875 C-42.94789864 14.09688737 -64.40930246 16.38661781 -80.046875 33.0625 Z " fill="#1C1D1B" transform="translate(800.79296875,190.8828125)"/>
<path d="M0 0 C1.01390305 0.00303635 2.02780609 0.00607269 3.07243347 0.00920105 C6.4097767 0.0224379 9.74675671 0.051093 13.08398438 0.08154297 C15.41133399 0.09757236 17.73868596 0.11326353 20.06604004 0.12863159 C24.93816051 0.16357581 29.81012486 0.20692854 34.68212891 0.25537109 C40.91960568 0.31610493 47.15689478 0.3493371 53.39459991 0.37542915 C58.19890272 0.39969369 63.00292598 0.44190391 67.80705261 0.48916245 C70.10665846 0.50899641 72.40632816 0.52249285 74.70600891 0.5294838 C77.92298997 0.54129288 81.13877354 0.57810437 84.35546875 0.62109375 C85.30113205 0.61920547 86.24679535 0.6173172 87.22111511 0.6153717 C93.21418007 0.72941824 96.76345326 1.71036588 101.67773438 5.19873047 C105.72310341 9.7763849 106.91177837 14.20516914 106.67773438 20.19873047 C105.66414442 26.05621348 102.95558559 29.40054759 98.39648438 33.06982422 C94.31276653 35.75208435 90.03606295 35.33324017 85.35083008 35.31225586 C84.50183136 35.31240189 83.65283264 35.31254791 82.77810669 35.31269836 C79.96988374 35.3120013 77.161727 35.30421853 74.35351562 35.29638672 C72.40724219 35.29452181 70.46096829 35.29309825 68.51469421 35.292099 C63.39039821 35.28827959 58.26613052 35.2784542 53.1418457 35.26739502 C47.91357811 35.25716853 42.68530596 35.25259872 37.45703125 35.24755859 C27.19725318 35.23683144 16.93749613 35.2197619 6.67773438 35.19873047 C6.56703613 36.25560059 6.45633789 37.3124707 6.34228516 38.40136719 C5.92162549 42.41607493 5.50021832 46.43070394 5.07861328 50.4453125 C4.89807867 52.16534402 4.71773263 53.88539534 4.53759766 55.60546875 C3.29439916 67.47488906 2.00983047 79.33895163 0.67773438 91.19873047 C1.35658691 90.85575928 2.03543945 90.51278809 2.73486328 90.15942383 C21.51438998 80.85224085 44.35134284 78.53399109 64.45117188 84.99951172 C65.5159375 85.39525391 66.58070312 85.79099609 67.67773438 86.19873047 C68.763125 86.58416016 69.84851562 86.96958984 70.96679688 87.36669922 C78.5983186 90.29243149 84.5442786 93.90860191 90.17773438 99.82373047 C92.44623512 104.92785714 92.42493032 109.70419867 91.67773438 115.19873047 C89.518358 119.67743703 86.74820499 122.38071235 82.67773438 125.19873047 C75.04477646 127.74304977 69.15884649 126.33949808 62.05273438 122.82373047 C61.13959473 122.3490332 61.13959473 122.3490332 60.20800781 121.86474609 C49.61119999 116.39285714 38.51498469 115.56200868 26.99023438 118.82373047 C10.34627906 124.53882356 1.16198251 134.91625733 -6.94726562 150.07373047 C-9.5131812 154.74586991 -12.17938196 158.10237138 -17.00976562 160.57373047 C-22.97154626 161.69859474 -28.21811873 161.21183823 -33.69726562 158.57373047 C-37.80693353 154.85545951 -40.12413321 151.94492791 -40.52446461 146.39616871 C-40.46848892 138.77042625 -39.97592229 131.31383784 -39.0847168 123.74243164 C-38.95298569 122.5732016 -38.82125458 121.40397156 -38.68553162 120.1993103 C-38.25297371 116.37920289 -37.80962692 112.56044664 -37.36523438 108.74169922 C-37.13545997 106.74385683 -36.90659787 104.74591133 -36.67781526 102.74795514 C-35.96050527 96.48474185 -35.23553421 90.22244877 -34.50561523 83.96069336 C-33.75533207 77.5230829 -33.0180316 71.08407826 -32.28704089 64.64425105 C-31.65579715 59.08720304 -31.01656918 53.53111276 -30.37099248 47.97571164 C-29.98687361 44.66959743 -29.6065837 41.36316884 -29.23219872 38.05592918 C-28.81394247 34.37208739 -28.38263449 30.68999684 -27.94799805 27.00805664 C-27.82787354 25.92580307 -27.70774902 24.8435495 -27.58398438 23.72850037 C-26.7035134 16.43236946 -25.82563469 9.81588904 -20.57226562 4.32373047 C-13.93489076 -0.01609156 -7.70131846 -0.08353214 0 0 Z " fill="#19A36D" transform="translate(1416.322265625,82.80126953125)"/>
<path d="M0 0 C4.5590239 4.77612027 5.35564874 8.01223998 5.28125 14.45703125 C4.75876935 19.18112709 2.33563189 21.78578919 -1.0625 24.875 C-8.09575937 27.5685887 -14.17943863 26.59849808 -20.92749023 23.640625 C-23.00236427 22.6864127 -25.07195982 21.72149581 -27.140625 20.75390625 C-38.1423527 15.63751138 -51.26570628 12.95203009 -63 17 C-66.51524185 18.52836602 -67.72811098 19.57810324 -69.8125 22.8125 C-71.0900901 26.24182079 -71.46233183 28.37840068 -71 32 C-67.52575685 39.50961837 -59.27667039 42.0871892 -52 45 C-45.2510466 47.41984032 -38.45582685 49.70389702 -31.62426758 51.87939453 C-17.17234747 56.55647216 -3.14089383 63.46814165 5.02734375 76.84765625 C10.11412424 88.10394562 9.50243195 102.56452075 5.390625 114.03125 C-0.12940868 125.81559156 -8.15658443 132.47383132 -19.703125 137.82421875 C-29.0063317 141.14206853 -37.76206833 142.53189279 -47.625 142.4375 C-48.75728027 142.42920166 -49.88956055 142.42090332 -51.05615234 142.41235352 C-70.98998418 142.0152596 -90.7125293 135.77470016 -107 124 C-111.01395432 119.52928536 -112.37089456 116.21353092 -112.28125 110.12890625 C-111.6717829 105.51557886 -109.31144777 102.23196609 -105.9375 99.0625 C-101.12832495 97.32301115 -97.03784049 97.01243325 -92 98 C-89.00318878 99.45278671 -86.23747803 101.03491652 -83.41552734 102.78881836 C-77.2507017 106.59581254 -70.94300075 108.88281335 -64 111 C-63.22398438 111.24621094 -62.44796875 111.49242187 -61.6484375 111.74609375 C-52.68243664 114.180682 -41.4946745 114.56033966 -32.8046875 111.03515625 C-29.03492665 108.87284754 -26.73247201 106.29355297 -25.375 102.04296875 C-24.76245081 98.70585183 -24.98178774 96.06634466 -25.875 92.8125 C-32.75048311 83.71259589 -47.09380434 81.24119754 -57.484375 77.9296875 C-59.24225342 77.36169434 -59.24225342 77.36169434 -61.03564453 76.78222656 C-63.37109753 76.02926457 -65.71048554 75.28836501 -68.05419922 74.56152344 C-80.27383792 70.61557994 -92.75966921 64.80375572 -99.5625 53.375 C-105.12210299 42.50850325 -105.62279291 30.42925002 -103.31640625 18.44921875 C-101.29244786 12.51171425 -98.11407705 7.6946524 -94 3 C-93.52175781 2.40574219 -93.04351563 1.81148437 -92.55078125 1.19921875 C-71.08437134 -23.18705548 -24.38812776 -16.5786915 0 0 Z " fill="#1C1D1B" transform="translate(1120,193)"/>
<path d="M0 0 C3.56609084 2.45119326 5.41158928 5.16054909 6.76171875 9.2109375 C6.84569032 11.56773963 6.86900062 13.92687831 6.859375 16.28515625 C6.85796005 16.9689888 6.8565451 17.65282135 6.85508728 18.3573761 C6.84949751 20.53777472 6.83694697 22.71807001 6.82421875 24.8984375 C6.81920242 26.37825372 6.81463975 27.85807156 6.81054688 29.33789062 C6.79953146 32.96227307 6.78227387 36.5865952 6.76171875 40.2109375 C8.17650513 40.18737183 8.17650513 40.18737183 9.61987305 40.16333008 C13.13295023 40.11207743 16.64562773 40.07452759 20.15893555 40.04614258 C21.67690313 40.03109397 23.19482751 40.01065012 24.71264648 39.98461914 C26.89968552 39.94806097 29.08614771 39.93117227 31.2734375 39.91796875 C32.58787842 39.9022583 33.90231934 39.88654785 35.2565918 39.87036133 C40.32620106 40.36295065 42.80215285 42.37931372 46.57421875 45.6484375 C49.58463952 49.48336842 49.51380896 53.57282778 49.3203125 58.29296875 C48.46239108 62.77455829 46.34218781 65.46810111 42.76171875 68.2109375 C39.04403678 70.62831384 35.73079455 70.4408508 31.37109375 70.40625 C30.6664801 70.4034201 29.96186646 70.40059021 29.23590088 70.39767456 C26.99433115 70.38651551 24.75316689 70.36141943 22.51171875 70.3359375 C20.98828704 70.32590214 19.46484904 70.31677726 17.94140625 70.30859375 C14.21471289 70.28659041 10.48825542 70.25209022 6.76171875 70.2109375 C6.84635108 79.70403977 6.94132193 89.19696741 7.04924583 98.68983364 C7.09904753 103.098448 7.14537812 107.50704026 7.18359375 111.91577148 C7.22065137 116.17582511 7.26706499 120.43568621 7.31978226 124.69557381 C7.338218 126.31530418 7.35336524 127.93507565 7.36506271 129.5548687 C7.06299067 143.39096454 7.06299067 143.39096454 11.57421875 156.1484375 C17.17088866 161.4252977 24.22506767 160.57940151 31.45703125 160.68945312 C36.35548206 160.8393311 39.79297178 161.01901891 43.76171875 164.2109375 C47.08977484 167.9087776 48.59307066 170.45699737 49.07421875 175.4609375 C48.59434395 181.21943506 46.53540401 184.57368956 42.32421875 188.4609375 C28.98111478 195.01544472 10.51514184 195.55242465 -3.6328125 191.2421875 C-12.19162721 187.85459067 -18.61075096 183.29680824 -23.23828125 175.2109375 C-26.9569496 166.40177497 -28.39487786 158.03088844 -28.35180664 148.54345703 C-28.35195267 147.69402023 -28.35209869 146.84458344 -28.35224915 145.96940613 C-28.35155562 143.17749427 -28.34378951 140.38565013 -28.3359375 137.59375 C-28.33407133 135.65176429 -28.33264837 133.7097781 -28.33164978 131.76779175 C-28.32784027 126.66819956 -28.31802339 121.56863606 -28.3069458 116.46905518 C-28.29669798 111.26062406 -28.29214494 106.0521883 -28.28710938 100.84375 C-28.27639968 90.63279993 -28.25934211 80.4218711 -28.23828125 70.2109375 C-28.92680176 70.22543945 -29.61532227 70.23994141 -30.32470703 70.25488281 C-31.67798096 70.27180176 -31.67798096 70.27180176 -33.05859375 70.2890625 C-33.95336426 70.30356445 -34.84813477 70.31806641 -35.77001953 70.33300781 C-40.13506253 70.11713032 -42.34452236 68.00538984 -45.48828125 65.2109375 C-48.79915079 61.4270866 -48.51265428 57.43201778 -48.45703125 52.6484375 C-48.00252734 47.58396531 -44.93593634 44.44638571 -41.23828125 41.2109375 C-38.22337568 40.20596898 -36.19646433 40.10758447 -33.05078125 40.1484375 C-32.14972656 40.15746094 -31.24867188 40.16648438 -30.3203125 40.17578125 C-29.63324219 40.18738281 -28.94617188 40.19898438 -28.23828125 40.2109375 C-28.25922852 39.37433594 -28.28017578 38.53773438 -28.30175781 37.67578125 C-28.37040091 34.53731441 -28.42030688 31.39923334 -28.45800781 28.26025391 C-28.4877417 26.24746123 -28.53859854 24.23501616 -28.58984375 22.22265625 C-28.66525256 14.71947978 -28.43978255 9.52471094 -24.23828125 3.2109375 C-17.06977273 -3.77376311 -8.64486371 -4.78949227 0 0 Z " fill="#1C1D1B" transform="translate(886.23828125,141.7890625)"/>
<path d="M0 0 C4.44496055 2.49696987 7.0635749 5.44072469 8.6875 10.3125 C8.78929975 12.79265518 8.83531141 15.24498999 8.83467102 17.72540283 C8.83834771 18.48665144 8.8420244 19.24790004 8.8458125 20.03221679 C8.85685236 22.59082058 8.86069368 25.14938376 8.86450195 27.70800781 C8.87076636 29.53943511 8.87741314 31.37086114 8.88441467 33.20228577 C8.90182596 38.18381979 8.91237673 43.16534422 8.9206202 48.14690113 C8.92576996 51.25880157 8.93184569 54.37069902 8.93813133 57.48259735 C8.95718355 67.21785368 8.97141478 76.95310242 8.9797433 86.6883738 C8.98951765 97.92828333 9.01584228 109.16799603 9.05624419 120.4078362 C9.08639656 129.09413548 9.10121133 137.78037832 9.10452431 146.46672893 C9.10687573 151.65539068 9.11584817 156.84384217 9.14098549 162.03244781 C9.16425588 166.91458663 9.16850356 171.79637656 9.15822411 176.67855644 C9.15772839 178.46879422 9.16405934 180.25904912 9.17778015 182.04923439 C9.19548969 184.49712781 9.18839829 186.94376788 9.17524719 189.3916626 C9.18621644 190.09683368 9.19718568 190.80200476 9.20848733 191.52854466 C9.13846593 196.94266112 7.67615212 199.95122689 4.6875 204.3125 C-1.21961328 208.89352662 -6.01841374 209.9767381 -13.3125 209.3125 C-18.75439799 207.498534 -22.0908325 203.92987362 -25.3125 199.3125 C-26.48347109 195.79958673 -26.46062589 192.63693984 -26.45967102 188.98225403 C-26.46334771 188.22987809 -26.4670244 187.47750216 -26.4708125 186.70232695 C-26.48185175 184.17369613 -26.4856936 181.6451064 -26.48950195 179.11645508 C-26.49576646 177.30635446 -26.50241325 175.49625514 -26.50941467 173.68615723 C-26.53046017 167.73479102 -26.54081795 161.78342454 -26.55078125 155.83203125 C-26.55482871 153.78325576 -26.55894563 151.7344804 -26.56313133 149.68570518 C-26.58218458 140.0599037 -26.59641497 130.43410989 -26.6047433 120.80829316 C-26.61451471 109.69800372 -26.6408312 98.58791356 -26.68124419 87.47769433 C-26.71140959 78.88989239 -26.72621261 70.30214755 -26.72952431 61.71429366 C-26.73187445 56.58540267 -26.74083016 51.45672454 -26.76598549 46.3278904 C-26.78927834 41.50073932 -26.79349452 36.67394108 -26.78322411 31.84674835 C-26.78272892 30.07789371 -26.78904428 28.30902164 -26.80278015 26.54022026 C-26.92552695 9.7927332 -26.92552695 9.7927332 -22.3125 3.3125 C-15.554798 -2.06607914 -8.00092052 -3.71578331 0 0 Z " fill="#1C1D1B" transform="translate(636.3125,124.6875)"/>
<path d="M0 0 C5.17747193 2.92326447 7.78229859 6.7476849 9.6875 12.3125 C9.94476891 14.87318134 9.94476891 14.87318134 9.95492554 17.64338684 C9.96345551 18.69888229 9.97198547 19.75437775 9.98077393 20.84185791 C9.97986755 21.98950623 9.97896118 23.13715454 9.97802734 24.31958008 C9.98474457 25.53640976 9.99146179 26.75323944 9.99838257 28.00694275 C10.01411128 31.33773259 10.02073679 34.66827305 10.02201414 37.9990828 C10.02343805 40.0828363 10.02771221 42.16656386 10.03300858 44.2503109 C10.0515007 51.52797473 10.05968035 58.80556541 10.05810547 66.08325195 C10.05690476 72.85376616 10.07799496 79.62396122 10.1095928 86.3943947 C10.13579728 92.21794208 10.146471 98.04138552 10.14519465 103.86499137 C10.14468617 107.338375 10.15030531 110.81147497 10.17155075 114.28479958 C10.19462232 118.16240372 10.18538669 122.03957484 10.17333984 125.91723633 C10.18457886 127.05881195 10.19581787 128.20038757 10.20739746 129.3765564 C10.15054431 136.58711281 9.29940946 142.43711083 4.24017906 147.86539936 C-0.38573029 151.9905513 -4.0436484 152.68498286 -10.15625 152.59375 C-15.22660936 151.93239878 -19.12441468 149.50058532 -22.6875 145.9375 C-26.77473986 139.33503561 -26.60391436 133.02066821 -26.5871582 125.4831543 C-26.59226913 124.29704559 -26.59738007 123.11093689 -26.60264587 121.8888855 C-26.61414027 118.64695632 -26.61661911 115.40518623 -26.61408257 112.1632421 C-26.61300963 109.44980147 -26.61790467 106.73638417 -26.622688 104.02294856 C-26.63376937 97.61627398 -26.63422883 91.20965803 -26.62817383 84.80297852 C-26.62213948 78.21144496 -26.63443435 71.62012515 -26.6557439 65.02862805 C-26.67340771 59.35451425 -26.67935361 53.68046818 -26.67610615 48.00632793 C-26.67430017 44.62408528 -26.67686011 41.241995 -26.69082069 37.85977745 C-26.70319338 34.08302865 -26.69638741 30.30677058 -26.68481445 26.5300293 C-26.69245819 25.42167221 -26.70010193 24.31331512 -26.70797729 23.17137146 C-26.65981838 16.0402566 -26.1930674 8.92630274 -21.59375 3.15625 C-21.0059375 2.7128125 -20.418125 2.269375 -19.8125 1.8125 C-19.2246875 1.3484375 -18.636875 0.884375 -18.03125 0.40625 C-12.58647747 -3.05860525 -5.68367982 -2.6396116 0 0 Z " fill="#1C1D1B" transform="translate(981.3125,181.6875)"/>
<path d="M0 0 C0.85529297 -0.01611328 1.71058594 -0.03222656 2.59179688 -0.04882812 C11.95890348 -0.05597313 18.20052643 2.58437579 25.015625 9.01171875 C33.20888574 18.22131909 34.66031656 30.12520386 34.421875 42.0234375 C32.87948498 65.25704487 21.89333778 87.92799422 8.0625 106.3125 C7.62969727 106.89644531 7.19689453 107.48039062 6.75097656 108.08203125 C-8.66562092 128.75761414 -29.20991215 152.42157793 -55.71484375 158.02734375 C-64.39665465 159.14117889 -72.39549912 159.19357849 -79.9375 154.3125 C-81.6640625 152.8671875 -81.6640625 152.8671875 -82.9375 151.3125 C-83.19015405 148.21748792 -83.33685013 146.11120027 -81.9375 143.3125 C-81.41542969 143.5290625 -80.89335937 143.745625 -80.35546875 143.96875 C-69.63660904 148.02352005 -60.33775185 146.84594311 -49.9375 142.3125 C-29.44466131 131.91161202 -13.35882071 115.40114726 -0.9375 96.3125 C-0.31875 95.37921875 0.3 94.4459375 0.9375 93.484375 C9.27254707 80.1631837 15.46925637 63.70554895 15.4375 47.875 C15.43588867 47.0382373 15.43427734 46.20147461 15.43261719 45.33935547 C15.31129386 39.2505896 14.53312163 34.44562219 11.0625 29.3125 C10.52625 28.384375 9.99 27.45625 9.4375 26.5 C4.82633027 22.25286998 -0.72306339 20.55854851 -6.875 19.875 C-28.21711994 21.23816934 -46.10210402 36.27603458 -59.9375 51.3125 C-61.28831981 52.96502576 -62.62753959 54.62740081 -63.9375 56.3125 C-66.34853827 55.34808469 -67.71154758 54.62452953 -69.25 52.5 C-70.14510031 49.65195356 -69.75292856 48.18314136 -68.9375 45.3125 C-56.76064712 24.65929239 -36.05091198 9.00448597 -13.6796875 1.171875 C-9.05077223 0.10886732 -4.73217811 -0.01775011 0 0 Z " fill="#FBFCFB" transform="translate(243.9375,164.6875)"/>
<path d="M0 0 C0.75563232 -0.00161133 1.51126465 -0.00322266 2.28979492 -0.00488281 C20.32449387 0.34808509 35.38557506 10.10753533 47.66796875 22.63500977 C52.64497351 27.9264311 57.8673127 33.7643366 60.9375 40.375 C60.265625 43.078125 60.265625 43.078125 58.9375 45.375 C58.40125 46.303125 57.865 47.23125 57.3125 48.1875 C56.85875 48.909375 56.405 49.63125 55.9375 50.375 C52.16748229 49.11832743 51.37362107 47.58906765 49 44.4375 C39.3375423 32.42176631 27.398841 24.56063238 12.9375 19.375 C5.41559913 18.73755077 -1.82860341 19.9144265 -7.9375 24.5625 C-12.89811643 31.12802174 -14.70718047 36.53301798 -14.4375 44.75 C-14.42025879 45.59216064 -14.40301758 46.43432129 -14.38525391 47.30200195 C-13.61994953 73.83340974 1.62937572 98.00460319 19.9375 116.375 C31.10687086 126.67057654 45.59418373 136.07606445 61.20703125 135.6796875 C65.36055238 135.21620445 69.0909678 133.97059854 72.9375 132.375 C74.9375 134.375 74.9375 134.375 75.3125 137.3125 C74.9375 140.375 74.9375 140.375 73.19921875 141.9609375 C65.24392301 146.93471481 55.78433274 147.58767642 46.7734375 145.71875 C19.5927303 138.19378094 -1.30055668 114.02784264 -15.25 90.5625 C-22.30964621 77.71887261 -27.90184901 64.71399855 -31.0625 50.375 C-31.25457031 49.59125 -31.44664063 48.8075 -31.64453125 48 C-33.78001166 34.58838472 -32.63425801 21.46871714 -24.58984375 10.27734375 C-22.5986326 7.79724189 -20.76555375 6.07226631 -18.0625 4.375 C-17.23105469 3.82005859 -17.23105469 3.82005859 -16.3828125 3.25390625 C-11.05110861 0.25611943 -5.97938991 0.0121991 0 0 Z " fill="#FAFCFB" transform="translate(114.0625,158.625)"/>
<path d="M0 0 C3.5625 0.25 3.5625 0.25 7 1 C8.23332568 3.46665136 8.12869853 5.08520484 8.13422108 7.84484005 C8.13867892 8.87457375 8.14313676 9.90430744 8.14772969 10.96524519 C8.14754533 12.10520289 8.14736097 13.2451606 8.14717102 14.41966248 C8.15084771 15.62390257 8.1545244 16.82814267 8.1583125 18.0688749 C8.16745136 21.42204235 8.17205164 24.77516081 8.17470181 28.12833607 C8.17860038 31.74053341 8.18817887 35.35271652 8.19691467 38.96490479 C8.21668958 47.69237232 8.22674563 56.41984103 8.23564246 65.14732537 C8.24002283 69.25376133 8.24539021 73.360196 8.25063133 77.46663094 C8.26764303 91.11058376 8.28213902 104.75453578 8.28938007 118.39849758 C8.29129007 121.94022561 8.29321039 125.48195364 8.29516602 129.02368164 C8.29564976 129.90399506 8.2961335 130.78430849 8.2966319 131.69129808 C8.30493904 145.96404144 8.33028772 160.23670118 8.36274669 174.50940799 C8.39577432 189.15105817 8.41382485 203.79266577 8.41702431 218.43435341 C8.41919318 226.66000272 8.42799681 234.88553001 8.45348549 243.11114311 C8.47513375 250.11367296 8.48327197 257.11605116 8.47351871 264.11861067 C8.46895709 267.69371021 8.47096719 271.26849647 8.49028015 274.84355354 C8.51100704 278.71361909 8.50098112 282.58324707 8.48774719 286.45335388 C8.50420106 288.15994436 8.50420106 288.15994436 8.52098733 289.90101141 C8.51240644 290.93335285 8.50382555 291.96569429 8.49498463 293.02931881 C8.49644984 294.37019382 8.49644984 294.37019382 8.49794465 295.73815721 C8 298 8 298 6.17218846 299.86144882 C4 301 4 301 0.75 300.1875 C-0.1575 299.795625 -1.065 299.40375 -2 299 C-2.04573702 261.19800476 -2.08099863 223.39601367 -2.10213066 185.59399638 C-2.10463219 181.13525536 -2.10722083 176.67651438 -2.10986328 172.21777344 C-2.1103879 171.33008547 -2.11091252 170.4423975 -2.11145304 169.5278099 C-2.12016534 155.13789795 -2.13593983 140.74800191 -2.15430559 126.35809942 C-2.17298174 111.60238883 -2.18411187 96.8466866 -2.18817699 82.09096467 C-2.19092681 72.97945251 -2.19962451 63.86798532 -2.21583293 54.756487 C-2.22637164 48.51584454 -2.22960773 42.27522548 -2.22700275 36.03457476 C-2.22571658 32.42932172 -2.22774431 28.82414748 -2.23841095 25.21890831 C-2.24986914 21.31783505 -2.24599791 17.41686591 -2.24050903 13.51577759 C-2.24633472 12.36599163 -2.2521604 11.21620567 -2.25816262 10.03157771 C-2.25418052 8.99302712 -2.25019842 7.95447654 -2.24609566 6.88445473 C-2.2468551 5.98299866 -2.24761454 5.0815426 -2.24839699 4.15276968 C-2 2 -2 2 0 0 Z " fill="#000000" transform="translate(1250,78)"/>
<path d="M0 0 C0.99 0 1.98 0 3 0 C2.835 0.9075 2.67 1.815 2.5 2.75 C1.61862364 7.40699346 1.61862364 7.40699346 3.09375 11.703125 C3.78984375 12.46882813 3.78984375 12.46882813 4.5 13.25 C5.7375 14.61125 5.7375 14.61125 7 16 C9.30675444 13.85233207 10.99656775 12.00604076 12.5625 9.25 C13.036875 8.5075 13.51125 7.765 14 7 C14.99 7 15.98 7 17 7 C16.52344442 12.52804478 15.49713786 16.00572429 13 21 C13.44082683 24.28246441 14.90824134 26.67220741 16.5625 29.5 C19.54526355 35.34448742 19.84048969 40.54690696 19 47 C17.30717327 52.17252612 14.54499633 55.02827163 10 58 C6.375 58.5625 6.375 58.5625 3 58 C0.09282927 55.78136971 -0.83981643 54.48055071 -2 51 C-2.45993096 42.77472301 -2.06006749 34.98276153 0 27 C-0.66 26.67 -1.32 26.34 -2 26 C-2.30292969 26.66386719 -2.60585937 27.32773437 -2.91796875 28.01171875 C-7.58359621 37.84542587 -7.58359621 37.84542587 -12 41 C-16.59096305 41.83472055 -18.36399422 41.42808081 -22.25 38.8125 C-28 32.93181818 -28 32.93181818 -28 29 C-28.66 29 -29.32 29 -30 29 C-30.43966502 30.29093133 -30.87655299 31.58280836 -31.3125 32.875 C-31.58707031 33.68839844 -31.86164063 34.50179687 -32.14453125 35.33984375 C-33.26962947 38.83843684 -34.22188674 42.37967635 -35.15625 45.93359375 C-36 48 -36 48 -39 50 C-42.01551604 50.34046149 -44.09519892 50.5730174 -47 50 C-49.875 47.625 -49.875 47.625 -52 45 C-52.66 44.34 -53.32 43.68 -54 43 C-54.598125 43.94875 -55.19625 44.8975 -55.8125 45.875 C-58 49 -58 49 -61 51 C-63.95817184 50.69814573 -66.33437658 50.33281171 -69 49 C-69.09796875 49.66386719 -69.1959375 50.32773437 -69.296875 51.01171875 C-70.20006579 56.34521607 -70.97316523 60.09900382 -75 64 C-78.23354139 65.6167707 -80.42760535 65.47631929 -84 65 C-89.27063726 61.1080248 -91.7007065 55.24743624 -93 49 C-93.81641858 43.09230446 -92.88440352 37.24612989 -90 32 C-86.50550726 28.07894946 -82.79236251 25.80277553 -77.5625 25.125 C-76.04289662 25.05100192 -74.52136939 25.01026219 -73 25 C-71.74509766 24.96132813 -71.74509766 24.96132813 -70.46484375 24.921875 C-66.11852404 24.83921916 -66.11852404 24.83921916 -64 25 C-61.94077598 27.05922402 -62.58572421 31.21708124 -62.4375 34.0625 C-62.39431641 34.82111328 -62.35113281 35.57972656 -62.30664062 36.36132812 C-62.20026367 38.24065438 -62.09960066 40.12030244 -62 42 C-61.34 42 -60.68 42 -60 42 C-59.566875 40.63875 -59.566875 40.63875 -59.125 39.25 C-58 36 -58 36 -56.9375 34.28125 C-55.58063103 30.97953551 -55.78883668 27.75618449 -55.875 24.25 C-55.88402344 23.55261719 -55.89304687 22.85523438 -55.90234375 22.13671875 C-55.92580112 20.42433042 -55.96166896 18.71211996 -56 17 C-53 16 -53 16 -49.9921875 16.3359375 C-46.55752682 18.24607516 -46.408831 18.75872089 -45.3203125 22.3515625 C-44.89566626 24.10322822 -44.4981169 25.86163929 -44.125 27.625 C-43.91359375 28.5221875 -43.7021875 29.419375 -43.484375 30.34375 C-42.96609339 32.55822596 -42.47257633 34.77540241 -42 37 C-41.56429688 36.04738281 -41.12859375 35.09476562 -40.6796875 34.11328125 C-40.07889665 32.84598806 -39.47729037 31.57908122 -38.875 30.3125 C-38.44960937 29.37374023 -38.44960937 29.37374023 -38.015625 28.41601562 C-35.74706143 23.70628038 -33.41186831 20.87706624 -29 18 C-25.625 17.6875 -25.625 17.6875 -23 18 C-22.52949219 18.91523438 -22.05898437 19.83046875 -21.57421875 20.7734375 C-20.94571171 21.97416738 -20.31678337 23.1746768 -19.6875 24.375 C-19.37876953 24.97828125 -19.07003906 25.5815625 -18.75195312 26.203125 C-17.07390572 29.38258325 -16.05193672 30.96537552 -13 33 C-10.44782454 27.76507266 -8.11400133 22.92806917 -8 17 C-8.474375 16.236875 -8.94875 15.47375 -9.4375 14.6875 C-11.8040571 10.61702179 -11.24135714 6.60366393 -11 2 C-8 1 -8 1 -4.9375 1.5625 C-3.968125 1.706875 -2.99875 1.85125 -2 2 C-1.34 1.34 -0.68 0.68 0 0 Z M-79 31 C-82.13928794 34.863739 -83.15609662 39.09527984 -83 44 C-82.30012561 47.77126559 -81.42297308 51.43316439 -80 55 C-79.34 55.33 -78.68 55.66 -78 56 C-76.99325541 52.73120384 -75.99577511 49.4596529 -75 46.1875 C-74.71382812 45.25873047 -74.42765625 44.32996094 -74.1328125 43.37304688 C-73.86210938 42.48037109 -73.59140625 41.58769531 -73.3125 40.66796875 C-73.06113281 39.84578857 -72.80976562 39.0236084 -72.55078125 38.17651367 C-71.87733822 35.88946633 -71.87733822 35.88946633 -72 33 C-74.64738916 31.5393715 -75.89448334 31 -79 31 Z M5 33 C2.1734886 40.06627849 2.1734886 45.93372151 5 53 C8.39814435 50.08861687 8.70664553 47.75016465 9.08203125 43.4296875 C8.94955864 39.50597503 7.61600339 36.55520746 6 33 C5.67 33 5.34 33 5 33 Z " fill="#0B4D3D" transform="translate(1656,251)"/>
<path d="M0 0 C4.16990939 2.57368601 6.78291344 5.89626609 8.4375 10.5 C9.34992892 16.68521526 9.1627363 22.28466918 5.4375 27.5 C-0.96879075 33.62775637 -5.96342768 34.91996645 -14.62109375 34.75 C-21.16584884 34.19373928 -25.27434382 31.52326867 -29.5625 26.5 C-32.61928842 21.56623623 -32.15011279 16.10435703 -31.5625 10.5 C-29.88033248 5.11897547 -26.42032804 2.18730913 -21.5625 -0.5 C-15.04128557 -2.67373814 -6.36997367 -2.77008434 0 0 Z " fill="#1C1D1B" transform="translate(984.5625,126.5)"/>
<path d="M0 0 C4.05447317 2.65669817 6.55511397 5.74881004 7.81640625 10.515625 C8.68968351 15.92075164 8.04118941 19.53693836 5.25 24.375 C1.96123056 28.15708486 -0.16990735 30.16731452 -5.2734375 30.578125 C-12.72348193 30.70059148 -16.03765636 29.96405529 -21.5 24.75 C-24.46772567 20.95581908 -25.02260416 17.1135017 -24.75 12.375 C-23.8746249 8.02116066 -22.52632956 5.15132956 -19.375 2 C-13.15774629 -1.84877611 -6.7622819 -3.48272029 0 0 Z " fill="#DD2D69" transform="translate(1698.75,305.625)"/>
<path d="M0 0 C3.7441127 2.41287263 6.17073672 4.47402011 7.3828125 8.890625 C8.24736239 14.29866047 7.64913261 17.99022457 4.8125 22.8125 C1.17840352 26.26489166 -1.46429818 27.68244703 -6.5 28.0625 C-11.8250112 27.70148229 -14.87891877 26.22718242 -18.5 22.3125 C-21.33147449 18.11772298 -21.52513378 14.79259828 -21.1875 9.8125 C-19.44333626 5.13079732 -17.31714161 2.60000809 -13.1875 -0.1875 C-8.48227445 -1.75590852 -4.66101184 -1.73645539 0 0 Z " fill="#F28D1E" transform="translate(1672.1875,340.1875)"/>
<path d="M0 0 C3.61706278 1.90295271 5.68681024 4.06043071 7 8 C7.64798987 12.85992399 7.50293068 16.10770363 5.0625 20.4375 C1.19686685 23.67200937 -1.96355628 24.88788738 -7 25 C-10.54718417 24.27009864 -13.1684101 22.74843091 -15.875 20.3125 C-17.50973412 16.9522132 -18.11439143 13.70342243 -18 10 C-14.93408692 1.14291778 -8.936735 -1.68456027 0 0 Z " fill="#1D9349" transform="translate(1639,362)"/>
<path d="M0 0 C2.86624771 2.44825325 4.61349969 4.24877735 5.44140625 8 C5.65821147 11.69268247 5.10798801 13.83081878 3.125 16.9375 C-0.38314462 20.34246389 -3.0182722 20.33466645 -7.73828125 20.2890625 C-11.08634301 19.86115823 -12.76066981 18.44926739 -15 16 C-16.21762731 12.34711807 -16.39075851 9.84245864 -16 6 C-12.23402905 -0.52865234 -7.15417572 -2.22698077 0 0 Z " fill="#0B4D3D" transform="translate(1606,371)"/>
<path d="M0 0 C3 2.125 3 2.125 5 5 C5.55348638 8.87440468 5.29968563 11.78044012 3 15 C-0.21955988 17.29968563 -3.12559532 17.55348638 -7 17 C-9.86972996 15.00366611 -11.65210765 13.52770117 -12.44921875 10.02734375 C-12.63063966 6.6804408 -12.22262069 4.37103449 -10.5 1.5 C-7.01402996 -0.59158203 -3.89784294 -0.8876276 0 0 Z " fill="#227EBB" transform="translate(1576,366)"/>
<path d="M0 0 C3.4375 1 3.4375 1 5.4375 2.6875 C6.82656225 5.89970645 6.49271374 7.6936636 5.4375 11 C3.75 12.9375 3.75 12.9375 1.4375 14 C-1.70391856 13.87177883 -3.77367432 13.4995896 -6.4375 11.8125 C-8.14808918 9.05655076 -8.01589217 7.17374516 -7.5625 4 C-5.27647022 0.43379354 -4.27192374 0 0 0 Z " fill="#224798" transform="translate(1549.5625,354)"/>
</svg>
