<?xml version="1.0" encoding="UTF-8" standalone="no"?><svg viewBox="0 0 76 62" xmlns="http://www.w3.org/2000/svg" xmlns:xlink="http://www.w3.org/1999/xlink"><g fill="none" fill-rule="evenodd"><path fill="#064ACF" fill-rule="nonzero" d="M63.737 20.805A30.494 30.494 0 0165.481 31v.028a9.163 9.163 0 01-.631.024h-7.313a20.133 20.133 0 01-2.752-10.185v-.022-.021a9.23 9.23 0 01.559-.019h8.393z"></path><path fill="#2188E5" d="M63.737 20.805C59.453 8.701 47.755.012 33.991 0c-.017.223-.03.447-.03.674v21.56c0 4.85 4.035 8.818 8.966 8.818h14.61c3.593 6.155 10.343 10.3 18.077 10.3l.336-.003h.044l.002-.076c.002-.05.004-.101.004-.152V29.748c0-4.918-4.092-8.943-9.093-8.943h-3.17zm0 0h-8.393c-.188 0-.374.008-.559.019a.77.77 0 010 .021v.022c0 3.707 1.001 7.185 2.752 10.185h7.313c.212 0 .422-.01.63-.024l.001-.01V31c0-3.572-.614-7.002-1.744-10.195z"></path><path fill="#004161" fill-rule="nonzero" d="M26.237 41.47c3.953.398 7.08 3.706 7.068 7.593-.013 4.143-3.487 7.552-7.711 7.562l-2.155.002-2.154-.001h-.664c0 .901.026 1.731-.006 2.56-.057 1.457-1.388 2.764-2.888 2.813l-.099.001v-.625c0-4.042.092-8.087-.025-12.126-.124-4.324 3.815-8.266 8.634-7.78zm30.955 1.524c.01 2.03.002 4.058.004 6.087.002 2.66 2.111 4.75 4.814 4.773.534.004 1.068-.016 1.6.005 1.573.064 2.83 1.26 2.844 2.86-2.155-.099-4.293.001-6.357-.337-2.833-.465-5.94-3.24-5.94-7.398l-.002-3.913c0-.652.002-1.304.005-1.956.006-1.035.571-1.698 1.43-1.729.943-.034 1.597.606 1.602 1.608zm-7.937-1.52c1.517.06 2.793 1.2 2.969 2.584.023.179.04.36.04.54.003 3.494 0 6.988.004 10.482 0 .628-.213 1.136-.793 1.441-.533.28-1.066.242-1.565-.083-.468-.305-.655-.759-.655-1.3.002-1.304 0-2.607 0-3.91v-9.754zm-33.603 7.241c.085 2.604.015 5.213.015 7.84-.08.032-.114.056-.146.056-2.907-.008-5.821.105-8.72-.06-4.012-.228-7.18-4.31-6.764-8.267.352-3.359 3.25-6.162 6.328-6.737 4.63-.866 9.134 2.532 9.287 7.168zm30.322-7.298c.836.009 1.39.468 1.505 1.163.115.693-.201 1.3-.848 1.525-.268.094-.574.11-.864.116-1.232.028-2.472-.041-3.695.073-2.215.208-4.033 2.154-4.105 4.349-.053 1.593-.009 3.189-.022 4.783-.014 1.765-1.294 3.131-3.036 3.168v-1.925c0-1.794.039-3.59-.007-5.382-.123-4.748 4.002-7.885 7.54-7.839 1.178.016 2.355-.043 3.532-.03zM3.99 46.151c-2.136 2.71-.545 7.098 2.88 7.575 1.85.258 3.77.046 5.713.046 0-1.851 0-3.695-.002-5.54 0-.07-.032-.14-.05-.21-.49-1.914-1.66-3.238-3.628-3.677-1.986-.443-3.65.203-4.913 1.806zm21.612-1.919c-2.456-.02-4.648 1.692-4.84 4-.153 1.831-.031 3.685-.031 5.586 1.718 0 3.443.004 5.169-.004.218 0 .438-.047.652-.092 2.117-.443 4.051-2.71 3.619-5.449-.347-2.196-2.348-4.022-4.569-4.04z"></path></g></svg>