<svg xmlns="http://www.w3.org/2000/svg" xmlns:xlink="http://www.w3.org/1999/xlink" width="121.178" height="113" viewBox="0 0 121.178 113">
  <defs>
    <clipPath id="clip-path">
      <rect width="121.178" height="113" fill="none"/>
    </clipPath>
  </defs>
  <g id="Composant_1" data-name="Composant 1" clip-path="url(#clip-path)">
    <path id="Tracé_1" data-name="Tracé 1" d="M105.324,616.711c-1.372-1.648-2.116-2.794-6.128-2.794-.9,0-2.258.027-2.258.027v10.632H93.479V598.97h8.408c6.7,0,9.816,3.542,9.816,7.551a6.953,6.953,0,0,1-4.724,6.69l8.393,11.2h-4.466l-5.583-7.7m-8.385-6h4.949c4.612,0,6.357-1.792,6.357-4.186,0-2.344-1.746-4.181-6.357-4.181H96.939Zm85.146,7.582c.042,2.431-2.975,3.459-5.623,3.459a19.207,19.207,0,0,1-7.968-1.63V623.7a22.162,22.162,0,0,0,7.968,1.372c5.164,0,9.161-2.9,9.161-6.787,0-4.7-4.181-6.991-8.363-8.352-3.03-1.028-5.761-2.22-5.8-4.6-.043-2.436,2.216-3.459,4.865-3.459a17.032,17.032,0,0,1,7.468,1.378v-3.582c-2.008-.943-5.078-1.123-7.468-1.123-5.166,0-8.407,2.9-8.407,6.787,0,4.692,4.182,6.736,8.363,8.1,3.031,1.023,5.761,2.466,5.807,4.855m-53.634,3.339c-3.2,0-5.8-1.491-5.8-4.476v-3.693H132.9v-3.373h-10.25v-7.446h13.144v-3.458h-16.6v18.184c0,4.562,3.2,7.636,8.835,7.636a53.778,53.778,0,0,0,8.365-.638V620.9a47.77,47.77,0,0,1-7.938.724m-64.007,2.948c3.631,0,3.631,0,4.727-2.917l.951-2.545h9.555l1.258-3.369H71.4l5.078-13.486,8.408,22.318h3.625L78.827,598.97H74.133Zm75.6,0c3.629,0,3.629,0,4.726-2.917l.949-2.545h9.558l1.259-3.369H147l5.078-13.486,8.408,22.318h3.628l-9.69-25.606h-4.7Z" transform="translate(-64.444 -528.513)" fill="#006aa2"/>
    <path id="Tracé_2" data-name="Tracé 2" d="M228.629,857.664c-1.922,0-2.866-1.414-2.866-3.955s.944-3.958,2.866-3.958a2.355,2.355,0,0,1,1.713.7l1.227-.564v6.047c0,.564.17.863.507.863a.77.77,0,0,0,.4-.11v.716a1.906,1.906,0,0,1-.943.264,1.04,1.04,0,0,1-1.053-.827,2.438,2.438,0,0,1-1.846.827m0-1.089a1.962,1.962,0,0,0,1.805-1.153V852a1.953,1.953,0,0,0-1.805-1.148c-1.224,0-1.733,1.036-1.733,2.862s.508,2.866,1.733,2.866m6.082-1.1a3.362,3.362,0,0,0,2.315,1.165c.7,0,1.3-.261,1.3-1.126,0-.793-.733-1.1-1.373-1.321-1.018-.374-2.26-.885-2.26-2.411a2.094,2.094,0,0,1,2.353-2.036,3.817,3.817,0,0,1,1.866.453v1.19a3.064,3.064,0,0,0-1.866-.625c-.659,0-1.3.286-1.3,1.018,0,.659.583.943,1.207,1.171,1.015.371,2.429.96,2.429,2.561a2.08,2.08,0,0,1-2.358,2.145,3.5,3.5,0,0,1-2.315-.87Zm7.157,0a3.368,3.368,0,0,0,2.318,1.165c.695,0,1.3-.261,1.3-1.126,0-.793-.738-1.1-1.374-1.321-1.019-.374-2.262-.885-2.262-2.411a2.094,2.094,0,0,1,2.354-2.036,3.812,3.812,0,0,1,1.865.453v1.19a3.058,3.058,0,0,0-1.865-.625c-.658,0-1.3.286-1.3,1.018,0,.659.583.943,1.207,1.171,1.014.371,2.426.96,2.426,2.561a2.077,2.077,0,0,1-2.353,2.145,3.5,3.5,0,0,1-2.318-.87Zm9.626,2.184c-1.863,0-2.187-1.226-2.187-3.145v-4.576h1.133v4.576c0,1.77.434,2.056,1.148,2.056a3.989,3.989,0,0,0,1.938-.682v-5.95h1.129v5.988c0,.564.171.863.511.863a.763.763,0,0,0,.394-.11v.716a1.906,1.906,0,0,1-.939.264,1.035,1.035,0,0,1-1.038-.715,4.876,4.876,0,0,1-2.09.715m7.818-8.1v1.413a3.861,3.861,0,0,1,2.353-1.318v1.28A3.951,3.951,0,0,0,259.312,852v5.479h-1.131v-7.381Zm7.232,8.1c-1.921,0-2.862-1.414-2.862-3.955s.942-3.958,2.862-3.958a2.36,2.36,0,0,1,1.714.7l1.226-.564v6.047c0,.564.17.863.507.863a.779.779,0,0,0,.4-.11v.716a1.921,1.921,0,0,1-.944.264,1.045,1.045,0,0,1-1.055-.827,2.431,2.431,0,0,1-1.846.827m0-1.089a1.963,1.963,0,0,0,1.808-1.153V852a1.954,1.954,0,0,0-1.808-1.148c-1.222,0-1.733,1.036-1.733,2.862s.511,2.866,1.733,2.866m10.776-3.864c0-1.469-.434-1.865-1.15-1.865a3.89,3.89,0,0,0-2.033.752v5.875h-1.131v-7.381l1.131-.529v.924a4.942,4.942,0,0,1,2.128-.736c1.862,0,2.183,1.283,2.183,2.96v4.763H277.32Zm7.006,4.953c-1.827,0-2.994-1.337-2.994-3.955,0-2.824,1.279-3.958,3.088-3.958a2.025,2.025,0,0,1,2.187,2.525h-1c.108-.829-.228-1.471-1.189-1.471-1.075,0-1.959.641-1.959,2.9,0,1.881.564,2.9,2.089,2.9a3.271,3.271,0,0,0,2.15-.939v1.222a4.311,4.311,0,0,1-2.374.773m6.047-3.955c0,1.881.64,2.9,2.241,2.9a3.543,3.543,0,0,0,2.26-.939v1.222a4.733,4.733,0,0,1-2.5.773c-1.924,0-3.13-1.375-3.13-3.955,0-2.788,1.337-3.958,3.221-3.958,2.9,0,2.767,2.789,2.09,3.865h-4.181Zm3.353-1.13c.321-.719.131-1.773-1.263-1.773a1.9,1.9,0,0,0-2,1.773Zm3.728,2.9a3.36,3.36,0,0,0,2.316,1.165c.7,0,1.3-.261,1.3-1.126,0-.793-.735-1.1-1.375-1.321-1.017-.374-2.259-.885-2.259-2.411a2.1,2.1,0,0,1,2.355-2.036,3.827,3.827,0,0,1,1.865.453v1.19a3.063,3.063,0,0,0-1.865-.625c-.662,0-1.3.286-1.3,1.018,0,.659.584.943,1.2,1.171,1.019.371,2.431.96,2.431,2.561a2.08,2.08,0,0,1-2.357,2.145,3.491,3.491,0,0,1-2.316-.87Z" transform="translate(-203.355 -744.664)" fill="#006aa2"/>
    <path id="Tracé_3" data-name="Tracé 3" d="M105.324,616.711c-1.372-1.648-2.116-2.794-6.128-2.794-.9,0-2.258.027-2.258.027v10.632H93.479V598.97h8.408c6.7,0,9.816,3.542,9.816,7.551a6.953,6.953,0,0,1-4.724,6.69l8.393,11.2h-4.466l-5.583-7.7m-8.385-6h4.949c4.612,0,6.357-1.792,6.357-4.186,0-2.344-1.746-4.181-6.357-4.181H96.939Zm85.146,7.582c.042,2.431-2.975,3.459-5.623,3.459a19.207,19.207,0,0,1-7.968-1.63V623.7a22.162,22.162,0,0,0,7.968,1.372c5.164,0,9.161-2.9,9.161-6.787,0-4.7-4.181-6.991-8.363-8.352-3.03-1.028-5.761-2.22-5.8-4.6-.043-2.436,2.216-3.459,4.865-3.459a17.032,17.032,0,0,1,7.468,1.378v-3.582c-2.008-.943-5.078-1.123-7.468-1.123-5.166,0-8.407,2.9-8.407,6.787,0,4.692,4.182,6.736,8.363,8.1,3.031,1.023,5.761,2.466,5.807,4.855m-53.634,3.339c-3.2,0-5.8-1.491-5.8-4.476v-3.693H132.9v-3.373h-10.25v-7.446h13.144v-3.458h-16.6v18.184c0,4.562,3.2,7.636,8.835,7.636a53.778,53.778,0,0,0,8.365-.638V620.9a47.77,47.77,0,0,1-7.938.724m-64.007,2.948c3.631,0,3.631,0,4.727-2.917l.951-2.545h9.555l1.258-3.369H71.4l5.078-13.486,8.408,22.318h3.625L78.827,598.97H74.133Zm75.6,0c3.629,0,3.629,0,4.726-2.917l.949-2.545h9.558l1.259-3.369H147l5.078-13.486,8.408,22.318h3.628l-9.69-25.606h-4.7Z" transform="translate(-64.444 -528.513)" fill="#006aa2"/>
    <path id="Tracé_4" data-name="Tracé 4" d="M228.629,857.664c-1.922,0-2.866-1.414-2.866-3.955s.944-3.958,2.866-3.958a2.355,2.355,0,0,1,1.713.7l1.227-.564v6.047c0,.564.17.863.507.863a.77.77,0,0,0,.4-.11v.716a1.906,1.906,0,0,1-.943.264,1.04,1.04,0,0,1-1.053-.827,2.438,2.438,0,0,1-1.846.827m0-1.089a1.962,1.962,0,0,0,1.805-1.153V852a1.953,1.953,0,0,0-1.805-1.148c-1.224,0-1.733,1.036-1.733,2.862s.508,2.866,1.733,2.866m6.082-1.1a3.362,3.362,0,0,0,2.315,1.165c.7,0,1.3-.261,1.3-1.126,0-.793-.733-1.1-1.373-1.321-1.018-.374-2.26-.885-2.26-2.411a2.094,2.094,0,0,1,2.353-2.036,3.817,3.817,0,0,1,1.866.453v1.19a3.064,3.064,0,0,0-1.866-.625c-.659,0-1.3.286-1.3,1.018,0,.659.583.943,1.207,1.171,1.015.371,2.429.96,2.429,2.561a2.08,2.08,0,0,1-2.358,2.145,3.5,3.5,0,0,1-2.315-.87Zm7.157,0a3.368,3.368,0,0,0,2.318,1.165c.695,0,1.3-.261,1.3-1.126,0-.793-.738-1.1-1.374-1.321-1.019-.374-2.262-.885-2.262-2.411a2.094,2.094,0,0,1,2.354-2.036,3.812,3.812,0,0,1,1.865.453v1.19a3.058,3.058,0,0,0-1.865-.625c-.658,0-1.3.286-1.3,1.018,0,.659.583.943,1.207,1.171,1.014.371,2.426.96,2.426,2.561a2.077,2.077,0,0,1-2.353,2.145,3.5,3.5,0,0,1-2.318-.87Zm9.626,2.184c-1.863,0-2.187-1.226-2.187-3.145v-4.576h1.133v4.576c0,1.77.434,2.056,1.148,2.056a3.989,3.989,0,0,0,1.938-.682v-5.95h1.129v5.988c0,.564.171.863.511.863a.763.763,0,0,0,.394-.11v.716a1.906,1.906,0,0,1-.939.264,1.035,1.035,0,0,1-1.038-.715,4.876,4.876,0,0,1-2.09.715m7.818-8.1v1.413a3.861,3.861,0,0,1,2.353-1.318v1.28A3.951,3.951,0,0,0,259.312,852v5.479h-1.131v-7.381Zm7.232,8.1c-1.921,0-2.862-1.414-2.862-3.955s.942-3.958,2.862-3.958a2.36,2.36,0,0,1,1.714.7l1.226-.564v6.047c0,.564.17.863.507.863a.779.779,0,0,0,.4-.11v.716a1.921,1.921,0,0,1-.944.264,1.045,1.045,0,0,1-1.055-.827,2.431,2.431,0,0,1-1.846.827m0-1.089a1.963,1.963,0,0,0,1.808-1.153V852a1.954,1.954,0,0,0-1.808-1.148c-1.222,0-1.733,1.036-1.733,2.862s.511,2.866,1.733,2.866m10.776-3.864c0-1.469-.434-1.865-1.15-1.865a3.89,3.89,0,0,0-2.033.752v5.875h-1.131v-7.381l1.131-.529v.924a4.942,4.942,0,0,1,2.128-.736c1.862,0,2.183,1.283,2.183,2.96v4.763H277.32Zm7.006,4.953c-1.827,0-2.994-1.337-2.994-3.955,0-2.824,1.279-3.958,3.088-3.958a2.025,2.025,0,0,1,2.187,2.525h-1c.108-.829-.228-1.471-1.189-1.471-1.075,0-1.959.641-1.959,2.9,0,1.881.564,2.9,2.089,2.9a3.271,3.271,0,0,0,2.15-.939v1.222a4.311,4.311,0,0,1-2.374.773m6.047-3.955c0,1.881.64,2.9,2.241,2.9a3.543,3.543,0,0,0,2.26-.939v1.222a4.733,4.733,0,0,1-2.5.773c-1.924,0-3.13-1.375-3.13-3.955,0-2.788,1.337-3.958,3.221-3.958,2.9,0,2.767,2.789,2.09,3.865h-4.181Zm3.353-1.13c.321-.719.131-1.773-1.263-1.773a1.9,1.9,0,0,0-2,1.773Zm3.728,2.9a3.36,3.36,0,0,0,2.316,1.165c.7,0,1.3-.261,1.3-1.126,0-.793-.735-1.1-1.375-1.321-1.017-.374-2.259-.885-2.259-2.411a2.1,2.1,0,0,1,2.355-2.036,3.827,3.827,0,0,1,1.865.453v1.19a3.063,3.063,0,0,0-1.865-.625c-.662,0-1.3.286-1.3,1.018,0,.659.584.943,1.2,1.171,1.019.371,2.431.96,2.431,2.561a2.08,2.08,0,0,1-2.357,2.145,3.491,3.491,0,0,1-2.316-.87Z" transform="translate(-203.355 -744.664)" fill="#006aa2"/>
    <path id="Tracé_5" data-name="Tracé 5" d="M293.635,94.368H274.464l-25.273,61.072h11.421s7.75,0,11.624-9.4,21.4-51.676,21.4-51.676" transform="translate(-223.529 -94.368)" fill="#d3d800"/>
    <path id="Tracé_6" data-name="Tracé 6" d="M513.367,229.647l7.863,0s7.749,0,11.622,9.393,13.676,32.891,13.676,32.891l-15.611,0-17.55-42.284" transform="translate(-451.01 -210.856)" fill="#006aa2"/>
    <path id="Tracé_7" data-name="Tracé 7" d="M457.917,417.752h9.7l7.748-18.793-5.826,0s-3.871.005-5.8,4.694-5.816,14.1-5.816,14.1" transform="translate(-403.262 -356.648)" fill="#bd1d1d"/>
  </g>
</svg>
