<?xml version="1.0" encoding="UTF-8"?>
<svg id="cardif-logo" xmlns="http://www.w3.org/2000/svg" xmlns:xlink="http://www.w3.org/1999/xlink" version="1.1" viewBox="0 0 541.4 121.9">
  <!-- Generator: Adobe Illustrator 29.3.1, SVG Export Plug-In . SVG Version: 2.1.0 Build 151)  -->
  <defs>
    <style>
      .st0 {
        fill: #00915a;
      }

      .st1 {
        fill: #fff;
      }
    </style>
  </defs>
  <g id="noms">
    <g>
      <g>
        <path d="M174.1,92.5c-.1,2.1-.2,6.5-.3,9-2.3,1.2-5.9,1.8-9.3,1.8-7.9,0-12.9-5-12.9-11.1s5.3-11.3,13.9-11.3,4.9.3,7,.8l-1.5,4.2c-1.5-.9-3.9-1.7-5.6-1.7-5,0-6.7,4.4-6.7,8,0,5.9,3.2,7.9,6.8,7.9s1.8,0,2.2-.2c0-2.6,0-5.8-.2-7.6h6.7s0,0,0,0Z"/>
        <path d="M188.8,81.6c4.6,0,10.2,1.7,10.2,6.6s-2,4.5-5,5.7c.6,1.1,5.8,7.8,6.8,8.9h-7.6c-1.3-2.6-3.9-7-6.4-10.7,3,.4,5.7-1.1,5.7-4s-3.2-3.6-4.8-3.6-2,0-2.5,0c-.1,2.6-.2,5.7-.2,7.1s0,7.9.4,11.1h-7.1c.4-3.1.4-6.9.4-11.1s0-7.9-.4-10.1h10.5Z"/>
        <path d="M213.4,103.4c-6.6,0-11.6-4.5-11.6-11.2s5-11.2,11.6-11.2,11.5,4.5,11.5,11.2c0,6.7-5,11.2-11.5,11.2ZM213.4,83.7c-3.1,0-5,3-5,8.5s1.9,8.4,5,8.4,4.9-2.9,4.9-8.4c0-5.5-1.9-8.5-4.9-8.5Z"/>
        <path d="M234.8,81.6c-.1,1.4-.2,2.9-.2,4.4v10.1c0,2.8.9,4.4,3.6,4.4s4.7-.9,4.7-5.3v-10.3c0-2.2,0-2.4-.2-3.3h5.9c-.2,1.9-.2,5.3-.2,8.7v6c0,4.9-3.4,7-10.2,7s-9.9-1.3-9.9-7.3v-7.8c0-2,0-5.2-.3-6.7h6.9s0,0,0,0Z"/>
        <path d="M262.8,81.6c4.6,0,10.2,1.3,10.2,6.2s-3.9,6.5-11.9,6.5-1.8,0-2.1,0c.2,3,.1,6.5.3,8.5h-7c.3-2.9.4-7.7.4-11.1s0-8.1-.4-10.1h10.6ZM258.9,84.5c0,1.4,0,2.8,0,4.2s0,1.8,0,2.6c.2,0,1.3,0,2,0,2.2,0,5.4-.6,5.4-3.5s-3.2-3.3-5.6-3.3c-.3,0-1.5,0-1.8,0Z"/>
        <path d="M294.2,81.6v3.5c-2.6-.3-4.5-.4-6.5-.4h-4.7c0,1.9,0,4,0,5.6l7.6-.2v3.5h-7.6c0,1.3,0,4.1.1,6,3.5,0,8-.1,11.7-.4v3.4h-18.5c.3-2.9.3-9.2.3-11.1s-.1-7.7-.3-10.1h17.9Z"/>
        <path d="M320.9,81.6c3.9,0,8.2,1.4,8.2,5s-1.7,3.7-4.2,4.6c3.4,1.2,5.3,3.1,5.3,5.7,0,4.4-5.4,5.9-10.4,5.9h-11.5c.3-2.8.4-6.7.4-11.1s0-7.3-.3-10.1h12.6ZM317.7,84.2c-1,0-2,0-2.6.2-.1,2.8-.2,4.1-.2,7.2s0,5.2.2,8.3h3.1c3.6,0,5.4-1.1,5.4-3.3s-2.2-3.6-5.2-3.6h-1.8l1.2-3.2h1.3c1.5,0,3.5-.8,3.5-2.7,0-2-1.9-2.9-4.9-2.9Z"/>
        <path d="M353.6,81.6c-.2,2.4-.3,8-.3,10.1s0,8.2.3,11.1h-5l-8-11.9c-.7-.9-1.1-1.8-1.3-2.9v6.7c0,2.6,0,6.2.3,8h-5.7c.4-3.2.4-9.3.4-11.1s-.1-7.7-.3-10.1h6.5l6.8,11c.4.5.5.8.6,1.3v-12.3h5.8s0,0,0,0Z"/>
        <path d="M369,81.6c4.6,0,10.2,1.3,10.2,6.2s-3.9,6.5-11.9,6.5-1.8,0-2.1,0c.2,3,.1,6.5.3,8.5h-7c.3-2.9.4-7.7.4-11.1s0-8.1-.4-10.1h10.5ZM365.2,84.5c0,1.4,0,2.8,0,4.2s0,1.8,0,2.6c.2,0,1.3,0,2,0,2.2,0,5.4-.6,5.4-3.5s-3.2-3.3-5.6-3.3c-.3,0-1.5,0-1.8,0Z"/>
        <path d="M401.2,81.6c4.6,0,10.2,1.3,10.2,6.2s-3.9,6.5-11.9,6.5-1.8,0-2.1,0c.2,3,.1,6.5.3,8.5h-7c.3-2.9.4-7.7.4-11.1s0-8.1-.4-10.1h10.6ZM397.4,84.5c0,1.4,0,2.8,0,4.2s0,1.8,0,2.6c.2,0,1.3,0,2,0,2.2,0,5.4-.6,5.4-3.5s-3.2-3.3-5.6-3.3c-.3,0-1.5,0-1.8,0Z"/>
        <path d="M423.7,81.6c.8,2.5,7.8,17.8,9.4,21.2h-7c-.3-.8-.8-2-1.8-4.6-1.1,0-2.2,0-3.6,0s-2.4,0-3.6,0c-.6,1.7-1.2,3.1-1.7,4.6h-6.1c1.2-2.6,8.2-17.8,9.4-21.2,0,0,5,0,5,0ZM423.1,94.9c-.8-2.1-2-4.6-2.5-6.4-.6,1.8-1.9,4.6-2.5,6.4.8,0,1.9,0,2.6,0s1.5,0,2.4,0Z"/>
        <path d="M446.2,81.6c4.6,0,10.2,1.7,10.2,6.6s-2,4.5-5,5.7c.6,1.1,5.8,7.8,6.8,8.9h-7.6c-1.3-2.6-3.9-7-6.4-10.7,3,.4,5.7-1.1,5.7-4s-3.2-3.6-4.8-3.6-2,0-2.5,0c-.1,2.6-.2,5.7-.2,7.1s0,7.9.4,11.1h-7.1c.4-3.1.4-6.9.4-11.1s0-7.9-.4-10.1h10.5Z"/>
        <path d="M467.9,81.6c-.2,2.4-.3,8.1-.3,10.1s0,8.2.3,11.1h-7c.4-3.2.4-9.3.4-11.1s-.1-7.7-.3-10.1h6.9Z"/>
        <path d="M485.1,81.6c3.9,0,8.2,1.4,8.2,5s-1.7,3.7-4.2,4.6c3.3,1.2,5.3,3.1,5.3,5.7,0,4.4-5.4,5.9-10.4,5.9h-11.5c.3-2.8.4-6.7.4-11.1s0-7.3-.3-10.1h12.6ZM481.9,84.2c-1,0-2,0-2.6.2-.1,2.8-.2,4.1-.2,7.2s0,5.2.2,8.3h3.1c3.6,0,5.4-1.1,5.4-3.3s-2.2-3.6-5.2-3.6h-1.8l1.2-3.2h1.3c1.5,0,3.5-.8,3.5-2.7,0-2-1.9-2.9-4.9-2.9Z"/>
        <path d="M509.5,81.6c.8,2.5,7.8,17.8,9.4,21.2h-7c-.3-.8-.8-2-1.9-4.6-1.1,0-2.2,0-3.6,0s-2.4,0-3.6,0c-.6,1.7-1.2,3.1-1.7,4.6h-6.1c1.2-2.6,8.1-17.8,9.4-21.2,0,0,5,0,5,0ZM508.9,94.9c-.8-2.1-2-4.6-2.5-6.4-.6,1.8-1.9,4.6-2.5,6.4.8,0,1.9,0,2.6,0s1.5,0,2.4,0Z"/>
        <path d="M529.9,81c2.7,0,5.4.4,7,.9v5.4c-2.3-1.3-4.6-2.5-7.6-2.5s-2.6.9-2.6,1.6c0,3.6,12.1,3.6,12.1,10s-3.9,6.8-10.4,6.8-5.7-.6-7.6-1.3v-5.2c4.4,2.1,6.8,2.8,8.9,2.8s2.9-.7,2.9-2.2c0-4.1-12-3.7-12-10.5,0-3.8,3.8-6,9.4-6Z"/>
      </g>
      <g>
        <path d="M187.6,27.9c-2.6-1.5-5.8-2.8-9.9-2.8-12,0-16.2,9.7-16.2,17.8s6.9,17.1,16.3,17.1,10.2-2.7,14.1-6.2v9.8c-3.9,1.6-8.8,3-16.1,3-16.8,0-27.3-10.6-27.3-23.9s11.1-24.3,29.5-24.3,8.5.7,12.5,1.7l-2.8,7.7Z"/>
        <path d="M227,19.4c1.8,4.8,17,38.7,20.6,46.3h-12.8c-.7-2.1-2.3-6-4.2-10.9-2.6,0-5.4-.1-9.1-.1s-6.2,0-9.2.1c-1.5,3.9-2.6,7.5-3.7,10.9h-11.1c2.6-5.8,18.2-39.5,20.7-46.3h8.9ZM228.2,48.8c-3-7.3-5.7-13.5-6.6-15.7-2.1,4.5-4.4,9.8-6.9,15.7,2,0,4.7.1,6.9.1,2.1,0,4.4,0,6.6-.1Z"/>
        <path d="M274.3,19.4c9.7,0,21.3,2.7,21.3,13.4s-3.5,10.1-10.5,12.2c1,2,12.2,19,14,20.7h-13.8c-3-5.8-9.9-17.4-15-25,.9.2,2.1.3,3.6.3,4,0,9.7-2.9,9.7-8.3s-8.1-7.9-12.1-7.9-4,.1-5,.3c-.3,5.8-.4,13-.4,16.2s0,17.8.7,24.3h-12.9c.7-6.4.8-14.7.8-24.3s0-17.7-.7-22c0,0,20.2,0,20.2,0Z"/>
        <path d="M323.6,19.4c19.5,0,27,10.3,27,23.1s-7.3,23.2-27.7,23.2h-17.2c.7-6.2.7-14.8.7-24.2s0-16.1-.7-22.1h17.9s0,0,0,0ZM318.1,25.3c-.3,3-.3,10.9-.3,16.3s0,12,.3,18.3c.7,0,1.7.2,3.3.2,11.2,0,17-3.5,17-17.7s-6-17.4-17.3-17.1h-3Z"/>
        <path d="M371.8,19.4c-.4,5.4-.7,17.5-.7,22.1s0,17.8.7,24.2h-12.8c.7-6.4.7-20.2.7-24.2s-.3-16.7-.6-22.1c0,0,12.7,0,12.7,0Z"/>
        <path d="M418.2,19.4v6.7c-3.6-.2-12.7-.5-15.8-.5s-4.8,0-7.4.2c-.1,4.5-.1,10-.2,13.6l16.1-.3v7.2l-16.1-.7c0,5.9.1,15,.7,20.1h-13c.8-6.4.8-20.2.8-24.2s-.3-16.7-.7-22.1h35.5s0,0,0,0Z"/>
      </g>
    </g>
  </g>
  <g id="Embleme">
    <g>
      <rect class="st0" x="2.6" y="1.8" width="118.2" height="118.2"/>
      <g>
        <path class="st1" d="M94.9,32.9c-7.3,4.3-9.6,4.6-17.5,9.4,4.6-5,6.2-7.1,9.1-11.3-7.3.4-17.9,1.3-25.6,2.9h0c6.6-3.5,19.7-7.5,26.6-8.4-1.6-2.2-14.6-9.3-17.8-10.6h0c10.3.8,22.8,4.6,28.9,8.4,2.4-.8,4.9-.8,9.3-1.2h0c-1.1,1.9-1.1,3.1-5.5,6h0c1.2,3.2-1.7,21.1-4.1,25.8h0c-.1-7.5-.8-16.9-3.5-21h0Z"/>
        <path class="st1" d="M41.5,96.8c-4.2-1.6-7.3-3.4-10.6-6.5h0c1-2.7,2.1-4.9,4-7.6h0c-3.4.5-5.9.9-8.9,1.4h0c-2.4-4.2-3.5-8.2-4.7-13.8h0c-.6,5.9-.9,10.2,0,14.9h0c-2.7.7-4.6,1.4-6.8,2.4h0c3.1,1.9,5.6,3.4,9.1,5h0c1.8,4,3.8,6.7,6.9,9.8h0c-.7-2.6-.9-4.7-.6-7.5h0c3.9,1.1,7.2,1.7,11.6,1.9h0Z"/>
        <path class="st1" d="M52.4,37.6h0c-1.3,1.7-2.9,4.8-3.2,6.3h0c10.8,1.5,19.5,7,19.5,7h0c-9.5-1.7-14.5-1.5-18-1.1h0c-3.5.3-4.2.8-4.2.8h0c-2.5,5.5-4.1,15.2-4.1,15.2h0c-1.7-4.1-4.2-12.5-4.2-12.5h0c-4.8,2.5-15.7,12.9-15.7,12.9h0c6-12.1,12.1-17.6,12.1-17.6h0c-2.1-2.1-7.6-3.1-11.6-3.4h0c2.1-.9,7.5-1.9,11.6-2.1h0c4.1-.1,6.6.1,6.6.1h0c3.7-2.9,9.3-5.4,11.2-5.7h0Z"/>
        <path class="st1" d="M63.8,89.4c-1.9,2.6-3.5,4.6-5.7,7h0c-3.6,1-6.5,1.4-10.1,1.4h0c2.2,1.1,4.3,1.8,6.6,2.3h0c-2.3,2.1-4.2,3.5-6.4,4.9h0c3.7-.9,8.6-2.5,12.2-4.6h0c1.9,0,3.6,0,4.9-.3h0c-.3-1.1-.5-1.9-.8-3.4h0c3.4-2.7,5.9-5,8.7-7.9h0c-3,2.1-5.6,3.7-9.1,5.3h0c-.2-1.6-.3-3-.3-4.8h0Z"/>
      </g>
    </g>
  </g>
</svg>