<svg width="130" height="51" viewBox="0 0 130 51" fill="none" xmlns="http://www.w3.org/2000/svg">
<path d="M81.9432 40.8544V42.8837H80.4632C80.0895 42.8837 79.7453 42.7916 79.4304 42.6073C79.1155 42.423 78.8657 42.1738 78.6809 41.8596C78.4962 41.5413 78.4038 41.1937 78.4038 40.8167C78.4038 40.444 78.4962 40.1005 78.6809 39.7864C78.8657 39.4681 79.1155 39.2168 79.4304 39.0325C79.7453 38.844 80.0895 38.7498 80.4632 38.7498C80.7487 38.7498 81.0216 38.8084 81.2819 38.9257C81.5465 39.0429 81.7753 39.2063 81.9684 39.4157L81.7606 39.6105C81.5926 39.4304 81.3953 39.2922 81.1686 39.1958C80.9419 39.0953 80.7067 39.045 80.4632 39.045C80.1441 39.045 79.8481 39.1246 79.5752 39.2838C79.3023 39.4429 79.0861 39.6586 78.9265 39.9309C78.767 40.1989 78.6872 40.4942 78.6872 40.8167C78.6872 41.1392 78.767 41.4366 78.9265 41.7089C79.0861 41.9811 79.3023 42.1989 79.5752 42.3623C79.8481 42.5214 80.1441 42.601 80.4632 42.601H81.6472V41.1371H80.2995V40.8544H81.9432Z" fill="#111839"/>
<path d="M85.57 42.8837L83.8695 40.823H84.3734C84.6841 40.823 84.936 40.7832 85.1291 40.7036C85.2719 40.6366 85.3957 40.5361 85.5007 40.4021C85.6057 40.2639 85.6582 40.1131 85.6582 39.9497C85.6582 39.8031 85.6141 39.6649 85.5259 39.5351C85.4377 39.4011 85.3118 39.2922 85.148 39.2084C84.9843 39.1246 84.7953 39.0827 84.5812 39.0827H83.435V42.8837H83.1516V38.8H84.5812C84.7743 38.8 84.9549 38.8314 85.1228 38.8943C85.2908 38.9529 85.4377 39.0388 85.5637 39.1518C85.6854 39.2607 85.7778 39.3843 85.8408 39.5225C85.908 39.6607 85.9416 39.8031 85.9416 39.9497C85.9416 40.1801 85.8723 40.3874 85.7337 40.5717C85.5952 40.7518 85.4314 40.8817 85.2425 40.9612C85.1123 41.0199 84.9843 41.0576 84.8583 41.0743C84.7366 41.0869 84.6064 41.0932 84.4678 41.0932L85.9479 42.8837H85.57Z" fill="#111839"/>
<path d="M89.8362 42.6513C89.5171 42.8355 89.1707 42.9277 88.797 42.9277C88.4233 42.9277 88.077 42.8355 87.7579 42.6513C87.4388 42.4628 87.1868 42.2094 87.0021 41.8911C86.8174 41.5685 86.725 41.2188 86.725 40.8419C86.725 40.4649 86.8174 40.1173 87.0021 39.799C87.1868 39.4764 87.4388 39.223 87.7579 39.0388C88.077 38.8503 88.4233 38.756 88.797 38.756C89.1707 38.756 89.5171 38.8503 89.8362 39.0388C90.1553 39.223 90.4072 39.4764 90.5919 39.799C90.7767 40.1173 90.869 40.4649 90.869 40.8419C90.869 41.2188 90.7767 41.5685 90.5919 41.8911C90.4072 42.2094 90.1553 42.4628 89.8362 42.6513ZM89.6913 39.2901C89.4184 39.1267 89.1203 39.045 88.797 39.045C88.4737 39.045 88.1756 39.1267 87.9027 39.2901C87.6298 39.4492 87.4115 39.667 87.2477 39.9435C87.0882 40.2157 87.0084 40.5152 87.0084 40.8419C87.0084 41.1686 87.0882 41.4701 87.2477 41.7466C87.4115 42.0188 87.6298 42.2366 87.9027 42.3999C88.1756 42.5591 88.4737 42.6387 88.797 42.6387C89.1203 42.6387 89.4184 42.5591 89.6913 42.3999C89.9642 42.2366 90.1805 42.0188 90.34 41.7466C90.4995 41.4701 90.5793 41.1686 90.5793 40.8419C90.5793 40.5152 90.4995 40.2157 90.34 39.9435C90.1805 39.667 89.9642 39.4492 89.6913 39.2901Z" fill="#111839"/>
<path d="M93.9469 42.8083C93.758 42.8879 93.5565 42.9277 93.3423 42.9277C93.1366 42.9277 92.9372 42.8879 92.744 42.8083C92.5551 42.7245 92.3871 42.6073 92.2402 42.4565C92.0932 42.3141 91.9799 42.1465 91.9001 41.9539C91.8245 41.7612 91.7867 41.5581 91.7867 41.3445V38.8H92.0701V41.3445C92.0701 41.5204 92.1016 41.6879 92.1646 41.8471C92.2318 42.0062 92.3242 42.1445 92.4417 42.2617C92.5635 42.3832 92.702 42.4774 92.8574 42.5444C93.0127 42.6073 93.1744 42.6387 93.3423 42.6387C93.5145 42.6387 93.6782 42.6073 93.8336 42.5444C93.9889 42.4774 94.1275 42.3832 94.2492 42.2617C94.3668 42.1445 94.4571 42.0062 94.52 41.8471C94.5872 41.6879 94.6208 41.5204 94.6208 41.3445V38.8H94.9042V41.3445C94.9042 41.5581 94.8643 41.7612 94.7845 41.9539C94.709 42.1465 94.5977 42.3141 94.4508 42.4565C94.3038 42.6073 94.1359 42.7245 93.9469 42.8083Z" fill="#111839"/>
<path d="M96.3446 42.8837H96.0612L96.0549 38.8H97.516C97.7553 38.8 97.9758 38.8524 98.1773 38.9571C98.383 39.0618 98.5447 39.2021 98.6622 39.378C98.784 39.5539 98.8449 39.7466 98.8449 39.956C98.8449 40.1612 98.784 40.3539 98.6622 40.534C98.5447 40.7099 98.383 40.8502 98.1773 40.9549C97.9758 41.0597 97.7553 41.112 97.516 41.112H96.3446V42.8837ZM96.3383 39.089L96.3446 40.8167H97.516C97.7049 40.8167 97.8792 40.779 98.0387 40.7036C98.1983 40.6241 98.3242 40.5194 98.4166 40.3895C98.5132 40.2555 98.5615 40.111 98.5615 39.956C98.5615 39.7969 98.5132 39.6524 98.4166 39.5225C98.3242 39.3885 98.1983 39.2838 98.0387 39.2084C97.8792 39.1288 97.7049 39.089 97.516 39.089H96.3383Z" fill="#111839"/>
<path d="M102.452 42.8837H99.8004V38.8H102.452V39.089H100.084V40.6974H101.929V40.9864H100.084V42.5884H102.452V42.8837Z" fill="#111839"/>
<path d="M107.664 42.7266C107.416 42.8314 107.148 42.8837 106.858 42.8837H105.68V38.8H106.858C107.148 38.8 107.416 38.8545 107.664 38.9634C107.912 39.0681 108.126 39.2189 108.306 39.4157C108.478 39.6042 108.611 39.8199 108.703 40.0628C108.795 40.3057 108.842 40.5633 108.842 40.8356C108.842 41.1078 108.795 41.3654 108.703 41.6083C108.611 41.8513 108.478 42.0691 108.306 42.2617C108.126 42.4628 107.912 42.6177 107.664 42.7266ZM105.964 39.089V42.601H106.858C107.366 42.601 107.779 42.423 108.098 42.067C108.245 41.9078 108.357 41.7235 108.432 41.5141C108.512 41.3005 108.552 41.0743 108.552 40.8356C108.552 40.601 108.512 40.379 108.432 40.1696C108.357 39.956 108.245 39.7696 108.098 39.6105C107.775 39.2628 107.362 39.089 106.858 39.089H105.964Z" fill="#111839"/>
<path d="M112.377 42.8837H109.795V38.8H110.078V42.601H112.377V42.8837Z" fill="#111839"/>
<path d="M113.744 42.8837H113.46L113.454 38.8H114.915C115.154 38.8 115.375 38.8524 115.576 38.9571C115.782 39.0618 115.944 39.2021 116.061 39.378C116.183 39.5539 116.244 39.7466 116.244 39.956C116.244 40.1612 116.183 40.3539 116.061 40.534C115.944 40.7099 115.782 40.8502 115.576 40.9549C115.375 41.0597 115.154 41.112 114.915 41.112H113.744V42.8837ZM113.737 39.089L113.744 40.8167H114.915C115.104 40.8167 115.278 40.779 115.438 40.7036C115.597 40.6241 115.723 40.5194 115.816 40.3895C115.912 40.2555 115.961 40.111 115.961 39.956C115.961 39.7969 115.912 39.6524 115.816 39.5225C115.723 39.3885 115.597 39.2838 115.438 39.2084C115.278 39.1288 115.104 39.089 114.915 39.089H113.737Z" fill="#111839"/>
<path d="M120.367 42.8837H119.99L118.522 41.1434L117.2 42.9528V38.8H117.483V42.0733L119.87 38.8H120.229L118.692 40.8984L120.367 42.8837Z" fill="#111839"/>
<path d="M129.125 50.1478V38.75H130V51H117.607V50.1478H129.125Z" fill="#111839"/>
<path d="M0.874561 0.852226L0.87456 12.25L9.15527e-05 12.25L9.26362e-05 4.08907e-05L12.3931 4.19617e-05L12.3931 0.852227L0.874561 0.852226Z" fill="#111839"/>
<path d="M19.1246 31.9805L19.353 32.1613C19.353 32.1613 17.3429 34.4214 14.602 34.4214C8.80022 34.4214 6.19629 28.2739 6.19629 22.6236C6.19629 17.6062 8.34339 10.8258 13.6883 10.8258C16.7034 10.8258 18.8048 12.0915 18.8048 15.2104C18.8048 20.4539 13.0031 22.3072 8.80022 22.3976C8.80022 22.488 8.80022 22.5784 8.80022 22.6236C8.80022 28.0479 10.2621 34.105 14.602 34.105C16.7491 34.105 18.4393 32.7942 19.1246 31.9805ZM13.6883 11.1422C10.2164 11.1422 8.8459 17.5158 8.80022 22.0812C11.6326 22.036 16.2009 19.9115 16.2009 15.2104C16.2009 12.4983 15.0588 11.1422 13.6883 11.1422Z" fill="#111839"/>
<path d="M29.0849 10.8258C34.8409 10.8258 36.3942 16.9281 36.3942 22.6236C36.3942 28.4999 35.115 34.4214 29.0849 34.4214C27.3489 34.4214 26.2069 33.653 25.6587 32.975V36.9076C25.6587 41.6086 25.613 42.6935 27.9885 42.6935V43.0099H20.7706V42.6935C23.1004 42.6935 23.0547 41.5634 23.0547 36.9076V19.6855C23.0547 17.561 23.6029 12.1819 20.7706 13.9448V13.6283L25.6587 10.7806V12.3175C26.2069 11.5942 27.3489 10.8258 29.0849 10.8258ZM29.0849 34.105C33.2877 34.105 33.7902 27.7767 33.7902 22.6236C33.7902 17.9226 33.3334 11.1422 29.0849 11.1422C27.2119 11.1422 25.8871 12.0915 25.6587 12.9955V32.2969C25.8871 33.201 27.2119 34.105 29.0849 34.105Z" fill="#111839"/>
<path d="M47.7075 10.8258C50.9966 10.8258 52.8696 12.7243 52.8696 15.9789V33.7434L50.4484 32.0257C49.3064 33.2462 47.3877 34.4214 45.606 34.4214C42.728 34.4214 38.7993 32.5681 38.7993 28.2739C38.7993 22.3072 44.4183 20.0923 50.2657 20.0471V15.9789C50.2657 14.0352 50.1743 11.1422 47.7075 11.1422C44.7838 11.1422 41.0834 14.216 43.4133 16.2049L43.1849 16.4309L40.3525 13.99L40.3982 13.9448C41.9971 12.5435 44.5097 10.8258 47.7075 10.8258ZM50.2657 31.7093V20.3635C44.9208 20.4087 41.4032 23.0756 41.4032 28.2739C41.4032 31.5285 43.2762 34.105 45.606 34.105C46.9309 34.105 48.8495 33.2914 50.2657 31.7093Z" fill="#111839"/>
<path d="M67.4914 10.8258C68.9076 10.8258 70.4608 11.5942 70.9176 11.8203L67.7655 19.0526L67.4457 18.917C69.2274 14.8036 68.5421 11.9559 65.9839 11.9559C63.9281 11.9559 61.4156 14.2612 60.5476 15.2104V27.5959C60.5476 32.2517 60.4105 33.3366 62.8774 33.3366V33.6982H55.6595V33.3366C58.1721 33.3366 57.9437 32.2517 57.9437 27.5959V19.5047C57.9437 15.4816 58.2634 13.1311 55.7509 14.668L55.6595 14.7132V14.3516L60.5476 11.549V14.7584C62.6033 12.5887 64.5677 10.8258 67.4914 10.8258Z" fill="#111839"/>
<path d="M82.3141 33.0202L82.4968 33.2914C82.4968 33.2914 81.0807 34.4214 79.2533 34.4214C74.9135 34.4214 73.9541 32.2969 73.9541 27.8219V11.9107H71.67V11.5942C75.6901 11.5942 76.2839 8.70129 76.2383 6.12476H76.558V11.5942H79.4361V11.9107H76.558V27.8219C76.558 33.3366 78.0199 34.0598 79.299 34.0598C80.3497 34.0598 81.4004 33.6982 82.3141 33.0202Z" fill="#111839"/>
<path d="M86.9281 10.2382C85.923 10.2382 85.1464 9.46973 85.1464 8.47528C85.1464 7.52603 85.923 6.71239 86.9281 6.71239C87.8874 6.71239 88.7097 7.52603 88.7097 8.47528C88.7097 9.46973 87.8874 10.2382 86.9281 10.2382ZM88.2072 27.5959C88.2072 32.2517 88.1158 33.3366 90.537 33.3366V33.653H83.3191V33.3366C85.786 33.3366 85.6033 32.2517 85.6033 27.5959V17.787C85.6033 15.5721 85.786 13.3119 83.3191 14.7132V14.3516L88.2072 11.549V27.5959Z" fill="#111839"/>
<path d="M118.059 27.5959C118.059 32.2517 117.922 33.3366 120.389 33.3366V33.653H113.125V33.3366C115.592 33.3366 115.455 32.2517 115.455 27.5959V15.1652C115.455 12.8599 114.496 11.5942 112.805 11.5942C111.115 11.5942 109.196 13.4475 107.506 15.2104V27.5959C107.506 32.2517 107.369 33.3366 109.79 33.3366V33.653H102.572V33.3366C105.085 33.3366 104.856 32.2517 104.902 27.5959V15.1652C104.856 12.8599 103.943 11.5942 102.253 11.5942C100.562 11.5942 98.5979 13.4927 96.862 15.2556V27.5959C96.862 32.2517 96.862 33.3366 99.1918 33.3366V33.653H91.9739V33.3366C94.3494 33.3366 94.258 32.2517 94.258 27.5959V17.1541C94.258 14.9392 94.1667 13.5379 91.9739 14.7132V14.3516L96.862 11.549V14.8036C98.3238 13.3119 100.745 10.8258 103.075 10.8258C105.679 10.8258 107.278 12.3175 107.46 14.8036C108.922 13.2667 111.343 10.8258 113.673 10.8258C116.917 10.8258 118.059 13.1311 118.059 15.2556V27.5959Z" fill="#111839"/>
</svg>
