<svg width="100%" height="100%" viewBox="0 0 95 29" fill="none" xmlns="http://www.w3.org/2000/svg">
<path d="M36.5565 2.04774C33.4175 2.04774 31.2363 3.42827 30.6081 5.18672V2.46017H26.1749V8.79336C26.1749 14.8159 21.7175 17.7427 17.4499 17.7427C11.0563 17.7427 10.3005 13.0109 10.3005 13.0109H14.6043C21.6312 13.0109 23.0998 8.73814 23.0998 6.60695C23.0998 2.6638 19.4206 0.429062 15.0633 0.739682C6.8785 1.31088 5.79651 9.28345 5.79479 9.29726H0V13.0109H5.82757C5.82757 13.0109 6.91129 21.8118 17.4499 21.8118C21.1894 21.8118 24.1006 20.3916 26.1749 18.395V28.5074H30.6081V18.5675C31.2363 20.3243 33.4175 21.7065 36.5565 21.7065C41.8043 21.7065 45.8751 17.4476 45.8751 11.8806C45.8751 6.31358 41.8043 2.04774 36.5565 2.04774ZM16.0211 4.6138C17.8779 4.56893 19.022 5.85973 19.022 6.76571C19.022 8.55177 16.6682 9.29726 14.3472 9.29726H10.2349C10.2349 9.29726 10.832 4.73632 16.0245 4.6138H16.0211ZM35.9957 17.5563C32.7807 17.5563 30.301 15.0903 30.301 11.8012C30.301 8.51208 32.7876 6.05646 35.9991 6.05646C39.1398 6.05646 41.504 8.52243 41.504 11.8098C41.504 15.0972 39.1398 17.5632 35.9991 17.5632L35.9957 17.5563Z" fill="currentColor"/>
<path d="M54.3723 9.63376C52.5983 8.96075 51.2316 8.5604 51.2316 7.40248C51.2316 6.31876 52.3032 5.79416 53.9288 5.79416C55.6415 5.80006 57.3172 6.2926 58.7606 7.21438V3.14181C57.5786 2.3946 55.8788 1.87172 53.7355 1.87172C50.0409 1.87172 47.0485 3.85278 47.0485 7.32655C47.0485 9.86673 48.4895 11.5389 51.002 12.6606C53.7735 13.8927 56.5069 14.4898 56.5069 16.0601C56.5069 17.1801 55.3628 17.8531 53.3662 17.8531C50.3739 17.8531 48.084 16.8453 46.4635 15.3509V19.7582C48.31 21.0301 50.5275 21.7773 53.2989 21.7773C58.7658 21.7773 60.7987 18.7867 60.7987 15.9842C60.8004 12.1739 57.6959 10.9418 54.3723 9.63376Z" fill="currentColor"/>
<path d="M71.4615 1.89933C65.8083 1.89933 61.3008 6.23248 61.3008 11.8754C61.3008 17.5183 65.8083 21.8515 71.4615 21.8515C77.0769 21.8515 81.6223 17.5166 81.6223 11.8754C81.6223 6.2342 77.0769 1.89933 71.4615 1.89933ZM71.4615 17.7755C68.1724 17.7755 65.6978 15.1973 65.6978 11.872C65.6978 8.54659 68.1724 5.96845 71.4615 5.96845C74.7127 5.96845 77.2253 8.54659 77.2253 11.872C77.2253 15.1973 74.7213 17.7789 71.4615 17.7789V17.7755Z" fill="currentColor"/>
<path d="M92.7166 2.08743C90.0556 2.08743 88.0573 3.32128 87.1737 5.26438V2.46017H82.7767V21.2906H87.1737V11.3888C87.1737 8.28257 89.1324 6.34464 92.1989 6.34464C92.8204 6.34192 93.4405 6.40497 94.0488 6.53274V2.19787C93.608 2.12897 93.1627 2.09206 92.7166 2.08743Z" fill="currentColor"/>
</svg>
