<?xml version="1.0" encoding="UTF-8"?>
<!-- Generator: Adobe Illustrator 28.0.0, SVG Export Plug-In . SVG Version: 6.00 Build 0)  -->
<svg xmlns="http://www.w3.org/2000/svg" xmlns:xlink="http://www.w3.org/1999/xlink" version="1.1" x="0px" y="0px" viewBox="0 0 907.09 178.92" style="enable-background:new 0 0 907.09 178.92;" xml:space="preserve">
<style type="text/css">
	.st0{fill:#FFFFFF;}
</style>
<g id="Calque_1">
</g>
<g id="LOGO">
	<g>
		<path class="st0" d="M173.59,89.46h-56.36c-2.85,0-5.17,2.31-5.17,5.17v18.61c0,27.36-23.68,49.18-51.67,46.09    c-21.33-2.36-38.46-19.48-40.81-40.81C16.5,90.54,38.32,66.85,65.68,66.85h23.78h23.03c13.54,0,24.52-10.98,24.52-24.52V5.27    c0-2.91-2.36-5.27-5.27-5.27H89.46C37.95,0-3.39,43.53,0.22,95.81c3.07,44.56,38.34,79.82,82.9,82.89    c50.43,3.48,92.72-34.87,95.64-83.83C178.94,91.9,176.57,89.46,173.59,89.46"></path>
		<path class="st0" d="M293.88,46.62c14.87,0,26.99,7.43,31.35,19.23h20.36c-5.66-21.49-26.82-36.2-51.87-36.2    C261.4,29.65,237,54.05,237,86.7c0,32.64,24.56,57.37,57.2,57.37c32.48,0,54.62-24.4,54.78-60.44h-55.1v16.16h34.42    c-2.59,16.32-16.65,27.31-34.58,27.31c-21.98,0-37.65-16.65-37.65-40.08C256.07,63.43,271.9,46.62,293.88,46.62"></path>
		<path class="st0" d="M451.19,142.05V57.78h-18.47v10.74c-7.22-8.39-18.3-12.75-30.05-12.75c-23.84,0-42.64,19.3-42.64,44.14    s18.63,44.15,42.47,44.15c12.09,0,22.83-4.87,30.22-13.59v11.58H451.19z M432.72,99.75c0,15.95-11.41,27.86-27.03,27.86    c-14.94,0-26.35-12.09-26.35-27.86c0-15.95,11.41-27.53,26.69-27.53C421.31,72.22,432.72,83.63,432.72,99.75"></path>
		<path class="st0" d="M469.95,57.78v84.27h18.47v-40.79c0-17.29,6.55-27.03,23.5-27.03h7.92V57.78h-6.91    c-11.92,0-19.56,4.53-24.77,12.25V57.78H469.95z"></path>
		<path class="st0" d="M676.65,55.77L676.65,55.77c-11.41,0-21.99,4.87-28.2,13.09V57.78H631v84.26h18.46V97.9    c0-15.27,9.4-25.68,23.33-25.68c12.59,0,20.14,8.56,20.14,22.66v47.17h18.47V91.69C711.4,70.04,697.47,55.77,676.65,55.77"></path>
		<path class="st0" d="M810.9,86.76c-5.04-18.66-21.65-30.98-41.8-30.98c-25.35,0-45.32,19.32-45.32,44.15    c0,24.82,19.97,44.14,45.32,44.14c20.31,0,36.93-12.49,41.8-31.48h-19.64c-4.2,9.66-12.42,15.33-22.16,15.33    c-14.6,0-26.02-12.33-26.02-27.99c0-15.66,11.41-27.82,26.02-27.82c10.07,0,18.47,5.66,22.16,14.66H810.9z"></path>
		<path class="st0" d="M864.11,71.71L864.11,71.71c12.59,0,21.65,7.22,24.17,19.3h-48.85C841.62,79.27,851.19,71.71,864.11,71.71     M864.45,127.74c-13.26,0-23.33-8.16-25.51-20.99h67.65c0.34-2.67,0.5-5,0.5-7c0-25.49-18.13-43.98-42.97-43.98    c-25.35,0-44.31,18.99-44.31,44.15c0,25.16,19.13,44.15,44.65,44.15c19.47,0,36.09-11.16,41.46-27.99h-20.48    C881.57,123.41,874.02,127.74,864.45,127.74"></path>
		<path class="st0" d="M612.23,142.05V57.78h-18.47v10.74c-7.22-8.39-18.3-12.75-30.05-12.75c-23.84,0-42.64,19.3-42.64,44.14    s18.63,44.15,42.47,44.15c12.09,0,22.83-4.87,30.22-13.59v11.58H612.23z M593.77,99.75c0,15.95-11.41,27.86-27.03,27.86    c-14.94,0-26.35-12.09-26.35-27.86c0-15.95,11.41-27.53,26.69-27.53C582.35,72.22,593.77,83.63,593.77,99.75"></path>
	</g>
</g>
</svg>
