<?xml version="1.0" encoding="UTF-8" standalone="no"?>
<!-- Generator: Adobe Illustrator 22.1.0, SVG Export Plug-In . SVG Version: 6.00 Build 0)  -->

<svg
   version="1.1"
   id="Calque_1"
   x="0px"
   y="0px"
   viewBox="0 0 261.51799 181.50001"
   xml:space="preserve"
   sodipodi:docname="Logo_La_Banque_postale_2022.svg"
   width="261.51797"
   height="181.5"
   inkscape:version="1.1.1 (c3084ef, 2021-09-22)"
   xmlns:inkscape="http://www.inkscape.org/namespaces/inkscape"
   xmlns:sodipodi="http://sodipodi.sourceforge.net/DTD/sodipodi-0.dtd"
   xmlns:xlink="http://www.w3.org/1999/xlink"
   xmlns="http://www.w3.org/2000/svg"
   xmlns:svg="http://www.w3.org/2000/svg"><defs
   id="defs841" /><sodipodi:namedview
   id="namedview839"
   pagecolor="#ffffff"
   bordercolor="#666666"
   borderopacity="1.0"
   inkscape:pageshadow="2"
   inkscape:pageopacity="0.0"
   inkscape:pagecheckerboard="0"
   showgrid="false"
   inkscape:zoom="2.5864033"
   inkscape:cx="130.68341"
   inkscape:cy="90.08649"
   inkscape:window-width="1920"
   inkscape:window-height="1080"
   inkscape:window-x="0"
   inkscape:window-y="0"
   inkscape:window-maximized="0"
   inkscape:current-layer="Calque_1" />
<style
   type="text/css"
   id="style824">
	.st0{clip-path:url(#SVGID_2_);fill:#39A8E5;}
	.st1{clip-path:url(#SVGID_2_);fill:#164194;}
</style>
<g
   id="g836"
   transform="translate(-0.88203967,-41.4)">
	<defs
   id="defs827"><rect
     id="SVGID_1_"
     x="-28.4"
     y="-21.6"
     width="352.70001"
     height="306.79999" /></defs>
	<clipPath
   id="SVGID_2_">
		<use
   xlink:href="#SVGID_1_"
   style="overflow:visible"
   id="use829"
   x="0"
   y="0"
   width="100%"
   height="100%" />
	</clipPath>
	<path
   class="st0"
   d="m 59.1,44.5 56,25.5 h 85.8 L 208,57.7 c 4.3,-7.4 -0.9,-16.3 -8.7,-16.3 H 59.7 c -1.9,0 -2.3,2.3 -0.6,3.1 m 3.9,110.8 73.2,-1.4 c 8.9,-0.2 19.3,-5.3 24.1,-13.5 l 11,-19.1 -112,30.3 c 2.3,1 3.3,2.3 3.7,3.7 M 254.8,80.9 H 115.1 L 1.5,152.8 c -1.4,1.1 -0.2,3.2 1.4,2.8 L 255.7,87.1 c 1.2,-0.3 2.3,-1.4 2.3,-3.1 0,-1.9 -1.6,-3.1 -3.2,-3.1"
   clip-path="url(#SVGID_2_)"
   id="path832" />
	<path
   class="st1"
   d="m 118.2,158.5 19.8,22 h 6.1 v -31.3 h -6.4 v 21.5 l -19.4,-21.5 h -6.4 v 31.3 h 6.4 v -22 z m 80.1,-19.8 H 217 l 3.7,-6 h -18 V 107.5 H 196 v 29 c 0,1.3 0.8,2.2 2.3,2.2 m -152.4,52 c -3.8,0 -8,0.1 -11.3,0.2 v 31.3 h 6.6 v -9.3 c 1.6,0 3.8,0 5.1,0 10,0 17.2,-2.5 17.2,-11.3 0.1,-7.8 -6.1,-10.9 -17.6,-10.9 m 9.5,14.3 c -1.9,1.9 -5.6,1.9 -9.5,1.9 -1.4,0 -3.1,0 -4.7,0 v -10 c 1.6,0 3.3,0 4.7,0 5.1,0 7.9,0.2 9.7,2 0.6,0.6 1.1,1.8 1.1,2.8 0,1.4 -0.4,2.4 -1.3,3.3 m 155,-23.9 c 9.1,0 15.4,-4.7 15.4,-14.2 v -17.7 h -6.6 v 17.2 c 0,5.6 -2.8,8.8 -8.8,8.8 -5.9,0 -8.8,-3.2 -8.8,-8.8 V 149.2 H 195 v 17.7 c 0,9.4 6.3,14.2 15.4,14.2 m -41,-0.6 c 4.3,0 8.2,-1.3 10.9,-3.1 l 1.2,1.6 c 0.8,1.2 2.4,1.5 4.1,1.5 h 5.4 l -6.1,-7.1 c 2.3,-2.5 3.4,-5.7 3.4,-8.8 0,-8.9 -7.3,-15.9 -18.9,-15.9 -11.5,0 -18.9,7.1 -18.9,15.9 0,8.8 7.4,15.9 18.9,15.9 m 0,-26 c 6.9,0 12.1,4.1 12.1,10 0,5.9 -5.2,10 -12.1,10 -6.8,0 -12,-4.1 -12,-10 0,-5.9 5.1,-10 12,-10 m -91.7,20.3 h 19.2 l 1.9,3.7 c 0.9,1.9 1.8,2 4.2,2 h 3.9 L 90.5,148.9 h -6.4 l -16.4,31.6 h 7.1 z m 9.6,-19.1 6.6,13.1 H 80.7 Z m -2.2,34.6 c -11.8,0 -18.9,7.3 -18.9,16.3 0,9 7.1,16.3 18.9,16.3 11.8,0 18.9,-7.3 18.9,-16.3 0,-9 -7,-16.3 -18.9,-16.3 m 0,26.6 C 78,216.9 73,212.8 73,206.6 c 0,-6.3 5,-10.3 12.1,-10.3 7,0 12,4.1 12,10.3 0,6.2 -5,10.3 -12,10.3 M 58.6,164.4 v 0 c 3.7,-1.1 5.9,-3.5 5.9,-7.2 0,-5.7 -4.9,-8.2 -14.4,-8.2 -4.6,0 -11.4,0 -15.6,0.2 v 31.3 c 5,0.2 10.5,0.2 15.1,0.2 9.3,0 15.8,-2.1 15.8,-8.9 0.1,-3.7 -2.7,-6.5 -6.8,-7.4 m -17.4,-9.8 h 10 c 4,0 6.5,0.9 6.5,3.4 0,3.2 -2.6,3.8 -7.5,3.8 h -9.1 v -7.2 z m 9.5,20.4 h -9.5 v -7.5 H 52 c 3.7,0 6.5,0.8 6.5,3.7 0.1,3.2 -3.2,3.8 -7.8,3.8 m 161,15.9 h -6.6 v 29 c 0,1.3 0.8,2.2 2.3,2.2 h 22.4 v -6 h -18 v -25.2 z m 21.9,29.1 c 0,1.3 0.8,2.2 2.3,2.2 h 25.5 v -6 h -21.1 v -6.9 h 18.9 v -6 H 240.3 V 197 h 21.1 v -6 h -27.7 v 29 z m 0,-41.8 c 0,1.3 0.8,2.2 2.3,2.2 h 25.5 v -6 h -21.1 v -6.9 h 18.9 v -6 h -18.9 v -6.3 h 21.1 v -6 h -27.7 v 29 z m 20.7,-41.5 c 0.9,1.9 1.8,2 4.2,2 h 3.9 L 246,107.1 h -6.4 l -16.4,31.6 h 7.1 l 2.9,-5.7 h 19.2 z m -18.1,-9.5 6.6,-13.1 6.6,13.1 z m -121,72.1 c 0,-2.3 3,-3.4 7.1,-3.4 3.2,0 7.6,1.6 8.6,2.3 l 3.4,-5 c -2,-1.3 -7.5,-2.8 -11.8,-2.8 -8,0 -14.1,4.2 -14.1,10 0,10.9 21.2,7.1 21.2,13.4 0,2.6 -3.8,3.5 -7,3.5 -4.4,0 -9.4,-1.5 -12.5,-3.9 l -3.4,5 c 4.2,2.9 10.6,4.5 15.3,4.5 7.9,0 14.5,-3.7 14.5,-9.8 -0.1,-11.2 -21.3,-8 -21.3,-13.8 m 52.8,-8.4 h -30.5 v 6 h 11.9 v 25.2 h 6.6 v -25.2 h 12 z m 11.1,-0.3 -16.4,31.6 h 7.1 l 2.9,-5.7 h 19.2 l 1.9,3.7 c 0.9,1.9 1.8,2 4.2,2 h 3.9 l -16.4,-31.6 z m -3.4,20 6.6,-13.1 6.6,13.1 z"
   clip-path="url(#SVGID_2_)"
   id="path834" />
</g>
</svg>
