<svg width="156" height="40" viewBox="0 0 156 40" fill="none" xmlns="http://www.w3.org/2000/svg">
<path d="M146.246 29.8988H136.089C135.908 29.8988 135.748 30.0153 135.694 30.1874L134.43 34.1633C134.374 34.3354 134.216 34.4519 134.035 34.4519H127.673C127.39 34.4519 127.189 34.1734 127.28 33.9051L136.85 5.75669C136.908 5.58962 137.064 5.47656 137.242 5.47656H145.094C145.271 5.47656 145.428 5.58962 145.485 5.75669L155.055 33.9051C155.147 34.1734 154.947 34.4519 154.664 34.4519H148.302C148.121 34.4519 147.963 34.3354 147.907 34.1633L146.643 30.1874C146.589 30.0153 146.429 29.8988 146.248 29.8988M144.39 23.1503L141.562 14.289C141.439 13.9042 140.895 13.9042 140.772 14.289L137.945 23.1503C137.859 23.417 138.06 23.6903 138.34 23.6903H143.995C144.275 23.6903 144.475 23.417 144.39 23.1503Z" fill="#004563"/>
<path d="M74.5184 34.4519H68.7233C68.4955 34.4519 68.3099 34.2662 68.3099 34.0384V19.0799C68.3099 18.6614 67.7597 18.5062 67.542 18.8639L60.9386 29.6997C60.8644 29.8229 60.7294 29.8972 60.5842 29.8972H60.3041C60.159 29.8972 60.0256 29.8212 59.9497 29.6997L53.3463 18.8639C53.1286 18.5062 52.5785 18.6614 52.5785 19.0799V34.0384C52.5785 34.2662 52.3928 34.4519 52.1633 34.4519H46.3683C46.1388 34.4519 45.9531 34.2662 45.9531 34.0384V5.89001C45.9531 5.66219 46.1388 5.47656 46.3683 5.47656H52.3456C52.489 5.47656 52.624 5.55081 52.6983 5.674L60.0881 17.7704C60.2501 18.0353 60.6332 18.0353 60.7952 17.7704L68.1866 5.674C68.2609 5.55081 68.3959 5.47656 68.5394 5.47656H74.5167C74.7462 5.47656 74.9301 5.66219 74.9301 5.89001V34.0384C74.9301 34.2662 74.7445 34.4519 74.5167 34.4519" fill="#004563"/>
<path d="M96.7404 29.8988H86.583C86.4025 29.8988 86.2439 30.0153 86.1882 30.1874L84.9225 34.1633C84.8685 34.3354 84.7082 34.4519 84.5276 34.4519H78.1639C77.8803 34.4519 77.6812 34.1734 77.7723 33.9051L87.3424 5.75669C87.3998 5.58962 87.5568 5.47656 87.734 5.47656H95.5862C95.7634 5.47656 95.9203 5.58962 95.9777 5.75669L105.548 33.9051C105.639 34.1734 105.44 34.4519 105.156 34.4519H98.7942C98.6136 34.4519 98.455 34.3354 98.3993 34.1633L97.1353 30.1874C97.0813 30.0153 96.921 29.8988 96.7404 29.8988ZM94.8841 23.1503L92.0558 14.289C91.9326 13.9042 91.3892 13.9042 91.266 14.289L88.4394 23.1503C88.3533 23.417 88.5541 23.6903 88.8343 23.6903H94.4893C94.7694 23.6903 94.9685 23.417 94.8841 23.1503Z" fill="#004563"/>
<path d="M129.33 15.4073C129.33 20.9138 124.9 25.3419 119.188 25.3419H115.256C115.028 25.3419 114.842 25.5275 114.842 25.7571V34.0345C114.842 34.264 114.657 34.4496 114.429 34.4496H108.634C108.404 34.4496 108.219 34.264 108.219 34.0345V5.8861C108.219 5.65828 108.404 5.47266 108.634 5.47266H119.19C124.902 5.47266 129.332 9.90249 129.332 15.4073M122.706 15.4073C122.706 13.2962 121.216 11.6829 119.188 11.6829H115.256C115.028 11.6829 114.842 11.8685 114.842 12.098V18.72C114.842 18.9495 115.028 19.1334 115.256 19.1334H119.188C121.216 19.1334 122.706 17.5201 122.706 15.4073Z" fill="#004563"/>
<path d="M16.5128 20.4652C16.5128 20.4652 16.685 21.1723 17.2874 21.5824C17.2874 21.5824 18.1329 22.1545 18.7876 22.5308L34.5832 31.6369C36.0007 30.1282 36.971 27.9631 36.971 26.0477V13.8753C36.971 11.9363 35.9754 9.74252 34.5292 8.23047L17.3026 18.295C17.3026 18.295 16.1348 19.1017 16.5128 20.4636" fill="#004563"/>
<path d="M10.7228 15.5547C8.23538 15.5547 6.21875 17.5713 6.21875 20.0588C6.21875 22.5462 8.23538 24.5629 10.7228 24.5629C13.2103 24.5629 15.2269 22.5462 15.2269 20.0588C15.2269 17.5713 13.212 15.5547 10.7228 15.5547Z" fill="#D63B10"/>
<path d="M4.52433 19.1588C4.52433 19.1588 4.69646 16.9549 6.27938 15.647C6.80421 15.2656 7.23285 15.004 7.70537 14.7323C13.9746 10.9151 20.2523 7.14004 26.5199 3.32279C25.1564 2.53639 23.7945 1.74999 22.431 0.961906C20.2085 -0.320635 16.727 -0.320635 14.5045 0.961906L3.96238 7.04891C1.73987 8.33145 0 11.3471 0 13.9139V26.0862C0 28.653 1.73987 31.667 3.96238 32.9512L14.5045 39.0382C15.6149 39.6795 17.0426 40.0001 18.4686 40.0001C19.8946 40.0001 21.3206 39.6795 22.4327 39.0382L26.9705 36.4191C20.5561 32.6896 14.1704 29.031 7.74081 25.3234C7.42355 25.1597 6.77891 24.7665 6.55952 24.6012C6.17982 24.3109 5.72925 23.8991 5.34955 23.3136C4.77578 22.431 4.26783 21.0708 4.52602 19.1605" fill="#004563"/>
</svg>
