<?xml version="1.0" encoding="utf-8"?>
<!-- Generator: Adobe Illustrator 26.3.1, SVG Export Plug-In . SVG Version: 6.00 Build 0)  -->
<svg version="1.1" id="Calque_1" xmlns="http://www.w3.org/2000/svg" xmlns:xlink="http://www.w3.org/1999/xlink" x="0px" y="0px"
	 viewBox="0 0 386.4 142.2" style="enable-background:new 0 0 386.4 142.2;" xml:space="preserve">
<style type="text/css">
	.st0{fill:url(#SVGID_1_);}
	.st1{fill:#FFFFFF;}
	.st2{fill:url(#SVGID_00000159467298126580724290000015990515966631516591_);}
	.st3{fill:url(#SVGID_00000092450004608494530390000011826110283337721763_);}
</style>
<g>
	<g>
		
			<radialGradient id="SVGID_1_" cx="4880.5078" cy="4325.7026" r="146.7338" gradientTransform="matrix(0.4602 0 0 0.4602 -2152.4973 -1953.8011)" gradientUnits="userSpaceOnUse">
			<stop  offset="3.000000e-02" style="stop-color:#B3C4E6"/>
			<stop  offset="3.244718e-02" style="stop-color:#B1C2E5"/>
			<stop  offset="8.830471e-02" style="stop-color:#87A4D6"/>
			<stop  offset="0.1466" style="stop-color:#5F8BC8"/>
			<stop  offset="0.2069" style="stop-color:#3979BD"/>
			<stop  offset="0.2699" style="stop-color:#086BB4"/>
			<stop  offset="0.3365" style="stop-color:#0063AE"/>
			<stop  offset="0.4093" style="stop-color:#005EAA"/>
			<stop  offset="0.5" style="stop-color:#005CA9"/>
			<stop  offset="1" style="stop-color:#003875"/>
		</radialGradient>
		<path class="st0" d="M71,122.2c28.2,0,51-22.8,51-51c0-28.2-22.8-51-51-51c-28.2,0-51,22.8-51,51C20,99.4,42.8,122.2,71,122.2z"/>
		<path class="st1" d="M42,90.7l13.1-36.8c0,0,1.1-3.7,4-3.7s4,3.7,4,3.7l7.9,22l7.8-22c0,0,1-3.7,4.1-3.7c3,0,4,3.7,4,3.7l13,36.8
			h-7.7l-9.3-26.2l-8.3,23.3c0,0-0.9,3.4-3.4,3.4c-2.9,0-3.7-3.4-3.7-3.4l-8.2-23.4l-9.3,26.3H42z"/>
		
			<radialGradient id="SVGID_00000152976608241074747190000013505154118292795061_" cx="4971.3711" cy="4325.7026" r="146.7343" gradientTransform="matrix(0.4602 0 0 0.4602 -2072.1218 -1953.8011)" gradientUnits="userSpaceOnUse">
			<stop  offset="3.000000e-02" style="stop-color:#B3D6BD"/>
			<stop  offset="3.244718e-02" style="stop-color:#B1D5BC"/>
			<stop  offset="8.830471e-02" style="stop-color:#82C1A0"/>
			<stop  offset="0.1466" style="stop-color:#4FAF89"/>
			<stop  offset="0.2069" style="stop-color:#00A177"/>
			<stop  offset="0.2699" style="stop-color:#009869"/>
			<stop  offset="0.3365" style="stop-color:#009261"/>
			<stop  offset="0.4093" style="stop-color:#008F5C"/>
			<stop  offset="0.5" style="stop-color:#008E5A"/>
			<stop  offset="1" style="stop-color:#00834D"/>
		</radialGradient>
		<circle style="fill:url(#SVGID_00000152976608241074747190000013505154118292795061_);" cx="193.2" cy="71.2" r="51"/>
		<path class="st1" d="M164.2,90.7l13.1-36.8c0,0,1.1-3.7,4-3.7c2.9,0,4,3.7,4,3.7l7.9,22l7.8-22c0,0,1-3.7,4.1-3.7c3,0,4,3.7,4,3.7
			l13,36.8h-7.7L205,64.5l-8.3,23.3c0,0-0.9,3.4-3.4,3.4c-2.9,0-3.7-3.4-3.7-3.4l-8.2-23.4L172,90.7H164.2z"/>
		
			<radialGradient id="SVGID_00000123417465274261666820000004272705630954038445_" cx="5062.2334" cy="4325.7026" r="146.7343" gradientTransform="matrix(0.4602 0 0 0.4602 -1991.7469 -1953.8011)" gradientUnits="userSpaceOnUse">
			<stop  offset="3.000000e-02" style="stop-color:#FFE9C0"/>
			<stop  offset="4.437805e-02" style="stop-color:#FFE2B1"/>
			<stop  offset="8.771218e-02" style="stop-color:#FDD187"/>
			<stop  offset="0.1313" style="stop-color:#FBC261"/>
			<stop  offset="0.1746" style="stop-color:#FAB641"/>
			<stop  offset="0.2173" style="stop-color:#F9AE28"/>
			<stop  offset="0.2594" style="stop-color:#F8A915"/>
			<stop  offset="0.3" style="stop-color:#F7A70A"/>
			<stop  offset="1" style="stop-color:#EE7219"/>
		</radialGradient>
		<path style="fill:url(#SVGID_00000123417465274261666820000004272705630954038445_);" d="M315.4,122.2c28.2,0,51-22.8,51-51
			c0-28.2-22.8-51-51-51c-28.2,0-51,22.8-51,51C264.4,99.4,287.2,122.2,315.4,122.2z"/>
		<path class="st1" d="M338.2,91.8l-5.7-12.4c1.6-0.8,3.2-1.7,4.6-2.6l-3.1-5.5c-1.3,0.9-2.7,1.7-4.2,2.4l-10.7-23.2
			c-0.7-1.5-1.7-2.9-3.8-2.9h-0.1c-2.1,0-3.1,1.4-3.8,2.9c-0.4,0.9-18.6,41.3-18.6,41.3h8.7l4.3-9.6c3.1,0.8,6.2,1.2,9.5,1.2
			c3.4,0,6.6-0.4,9.7-1.2l4.4,9.7H338.2z M315.4,77.1c-2.4,0-4.7-0.3-6.9-0.8l6.9-15.5l7.1,15.5C320.2,76.8,317.8,77.1,315.4,77.1z"
			/>
	</g>
</g>
</svg>