<?xml version="1.0" encoding="UTF-8"?>
<svg xmlns="http://www.w3.org/2000/svg" viewBox="0 0 251 101" role="img" aria-label="Mutex">
<path fill="currentColor" d="M104.898 33.33c0-.5.4-.9.9-.9h4.5c.5 0 .9.4.9.9v19.3c0 4 2.7 7.2 6.8 7.2s6.9-3.2 6.9-7.1v-19.4c0-.5.4-.9.9-.9h4.5c.5 0 .9.4.9.9v19.6c0 7.2-5.7 13-13.2 13-7.4 0-13.1-5.8-13.1-13v-19.6zm50.702 4.8h-7.2c-.5 0-.9-.4-.9-.9v-3.9c0-.5.4-.9.9-.9H169c.5 0 .9.4.9.9v3.9c0 .5-.4.9-.9.9h-7.2v26.5c0 .5-.4.9-.9.9h-4.4c-.5 0-.9-.4-.9-.9v-26.5zm31.002-4.8c0-.5.4-.9.9-.9h19.2c.5 0 .9.4.9.9v3.9c0 .5-.4.9-.9.9h-14v7.7h11.7c.5 0 .9.4.9.9v3.9c0 .5-.4.9-.9.9h-11.7v8.3h14c.5 0 .9.4.9.9v3.9c0 .5-.4.9-.9.9h-19.2c-.5 0-.9-.4-.9-.9v-31.3zm46.399 15.2l-9.4-14.8c-.4-.6 0-1.3.8-1.3h5.5c.4 0 .6.2.8.4l6 10 6.1-10c.1-.2.4-.4.8-.4h5.5c.8 0 1.2.7.8 1.3l-9.5 14.8 9.8 15.6c.4.7 0 1.3-.8 1.3h-5.1c-.4 0-.7-.2-.8-.4l-6.7-10.8h-.1l-6.7 10.8c-.1.2-.4.4-.8.4h-5.1c-.8 0-1.2-.7-.8-1.3l9.7-15.6z"/><path fill="#C39400" d="M42.2 13.03L0 12.83l2.7 4.1 33.3.1-16 26.2 2.8 4.3 20.3-32.9c.4-.7-.1-1.6-.9-1.6zm-1.098-2.5c2.2.3 4.5-1.7 4.9-4.6.5-2.9-1-5.5-3.2-5.9-2.2-.3-4.5 1.7-4.9 4.6-.5 2.9.9 5.6 3.2 5.9z"/><path fill="#C2CBCD" d="M49.4 20.03c2.2.3 4.5-1.7 4.9-4.6.5-2.9-1-5.5-3.2-5.9-2.2-.3-4.5 1.7-4.9 4.6-.4 2.9 1 5.5 3.2 5.9zm-2.802 1.2l-42.2-.2 3.4 5.3 22.5.1-10.8 17.5 7.7 11.7 20.3-32.9c.4-.7-.1-1.5-.9-1.5z"/><path fill="currentColor" d="M87.2 64.43l-1.8-10.3-3.8-21.4c0-.4-.3-.7-.8-.7H80c-.4 0-.7.2-.8.5l-2 3.1-8.4 12.9h-.1l-8.4-12.9-2-3.1c-.1-.3-.4-.5-.8-.5h-.8c-.5 0-.8.3-.8.7l-3.8 21.4-1.8 10.3v.3c0 .5.3.8.9.8h3.7c.4 0 .8-.4.9-.7l3.4-20.3 8.3 12.3c0 .1.1.1.1.2.1.1.1.2.2.2.1.1.3.1.5.1h.8c.2 0 .3-.1.5-.1.1-.1.2-.1.2-.2s.1-.1.1-.2l8.4-12.3 3.4 20.3c.1.3.5.7.9.7h3.7c.5 0 .9-.3.9-.8v-.3z"/><path fill="#929292" d="M91.498 90.63h2.6c-.1 1.5-1 2.5-2.5 2.5-1.8 0-3-1.3-3-3.3 0-1.9 1.2-3.3 3-3.3 1.4 0 2.1.8 2.4 1.4l.1.1 1-.6-.1-.1c-.7-1.2-1.9-2-3.4-2-2.4 0-4.2 1.9-4.2 4.4 0 2.6 1.7 4.4 4.2 4.4 1 0 1.9-.4 2.6-1.1l.2 1h.9v-4.5h-3.7v1.1h-.1zm16.199-2.4c0-1.5-1.2-2.7-2.8-2.7h-3.6v8.5h1.2v-3.1h2.3l2.2 3.1h1.4l-2.3-3.2c.4-.2 1.6-1 1.6-2.6zm-1.2 0c0 1.1-.9 1.6-1.6 1.6h-2.4v-3.3h2.4c.7.1 1.6.7 1.6 1.7zm11-2.8c-2.4 0-4.2 1.9-4.2 4.4 0 2.5 1.8 4.4 4.2 4.4 2.4 0 4.2-1.9 4.2-4.4-.1-2.6-1.8-4.4-4.2-4.4zm0 7.7c-1.8 0-3-1.3-3-3.3 0-2 1.2-3.3 3-3.3s3 1.3 3 3.3c0 1.9-1.2 3.3-3 3.3zm16.202-2.6c0 1.7-1.2 2.5-2.4 2.5-1.1 0-2.4-.8-2.4-2.5v-5.1h-1.2v5.3c0 1.7 1.3 3.4 3.5 3.4s3.5-1.7 3.5-3.4v-5.3h-1.2v5.1h.2zm11.099-5h-3.4v8.5h1.2v-2.9h2.2c1.4 0 2.9-.9 2.9-2.8 0-2.1-1.5-2.8-2.9-2.8zm1.8 2.8c0 1.3-.9 1.7-1.7 1.7h-2.2v-3.4h2.2c.7 0 1.7.5 1.7 1.7zm12.999-1.7v-1.1h-5.3v8.5h5.3v-1.1h-4.1v-2.7h3.9v-1.1h-3.9v-2.5h4.1zm49.001-3.4c-3.2 0-4 3.5-5.3 9.2-1.8-1.2-.5-8.3-4.6-8.3-.6 0-1.2.1-2.1.5 2.6 5 2.1 10.9 7.1 10.9.4 0 .9 0 1.3-.1l5.2-11.9c-.6-.1-1.2-.3-1.6-.3zm-32.8 9.2c-1.8-1.2-.5-8.3-4.6-8.3-.6 0-1.2.1-2.1.5 2.6 5 2.1 10.9 7.1 10.9.4 0 .9 0 1.3-.1l5.2-11.9c-.6-.1-1.2-.3-1.6-.3-3.2 0-4 3.5-5.3 9.2zm13.598.3c-1.2-2.1-.4-8.5-4.2-8.5-.6 0-1.2.1-2.1.5 2.3 4.4 2.1 9.6 5.5 10.7-.3 1.1-.8 2.1-1.5 2.1-.5 0-1.1-.2-1.7-.2-1.5 0-1.9.6-2.4 2.1 1.2.7 2.4 1 3.3 1 2.3 0 4-2.1 5.2-5 .7-1.8 4.8-11.9 4.8-11.9-.5-.1-.9-.3-1.2-.3-3.5 0-4.2 3.6-5.7 9.5z"/><path stroke="#929292" stroke-miterlimit="10" d="M49.7 75.73h201.299"/>
</svg>
