<?xml version="1.0" encoding="UTF-8"?>
<svg width="140px" height="43px" viewBox="0 0 140 43" version="1.1" xmlns="http://www.w3.org/2000/svg" xmlns:xlink="http://www.w3.org/1999/xlink">
    <title>Nortia</title>
    <g id="Page-1" stroke="none" stroke-width="1" fill="none" fill-rule="evenodd">
        <g id="Nortia" fill-rule="nonzero">
            <path d="M76.7549,37.7057 C77.0768,37.5181 77.4385,37.4094 77.8103,37.3883 C78.1822,37.3672 78.5538,37.4344 78.8948,37.5843 C79.1952,37.7151 79.4655,37.9062 79.6889,38.1459 L79.746,38.2101 L80.1502,37.8318 L80.0931,37.7699 C79.8193,37.4719 79.4876,37.2331 79.1183,37.068 C78.6966,36.8796 78.236,36.7947 77.7749,36.8204 C77.3138,36.8461 76.8655,36.9815 76.4672,37.2155 C76.0234,37.4771 75.6548,37.8493 75.3973,38.2958 C75.1387,38.7478 75.0027,39.2596 75.0027,39.7805 C75.0027,40.3013 75.1387,40.8132 75.3973,41.2652 C75.6537,41.7113 76.0226,42.0821 76.4672,42.3407 C76.915,42.6028 77.425,42.7393 77.9437,42.7357 L80.0836,42.7357 L80.0836,39.7353 L77.6299,39.7353 L77.6299,40.3016 L79.4987,40.3016 L79.4987,42.1622 L77.9437,42.1622 C77.5254,42.1651 77.1142,42.0532 76.7549,41.8386 C76.3948,41.6278 76.0958,41.3269 75.8871,40.9654 C75.6762,40.6045 75.5654,40.1938 75.5661,39.7757 C75.564,39.3575 75.6749,38.9464 75.8871,38.586 C76.0948,38.2219 76.3939,37.9184 76.7549,37.7057 Z" id="Path" fill="#3D3935"></path>
            <path d="M84.7058,40.2115 C84.8966,40.1863 85.0825,40.1326 85.2574,40.0521 C85.5417,39.9275 85.7879,39.7296 85.9707,39.4787 C86.1374,39.2613 86.2408,39.0019 86.2693,38.7294 C86.2978,38.4568 86.2505,38.1817 86.1324,37.9345 C86.0351,37.7272 85.8958,37.5425 85.7234,37.392 C85.5376,37.2251 85.3212,37.0958 85.0862,37.0113 C84.8348,36.9236 84.5702,36.8793 84.304,36.88038 L82.2378,36.88038 L82.2378,42.7313 L82.8013,42.7313 L82.8013,37.4395 L84.304,37.4395 C84.5623,37.434 84.8183,37.4902 85.0505,37.6037 C85.2473,37.7005 85.4166,37.8453 85.5427,38.0249 C85.651,38.1816 85.7098,38.3673 85.7115,38.5578 C85.7115,38.7661 85.6411,38.9681 85.5118,39.1313 C85.3867,39.2987 85.2237,39.434 85.0363,39.5263 C84.7113,39.6443 84.3665,39.6984 84.021,39.6857 L83.1389,39.6857 L85.6402,42.7241 L86.3868,42.7241 L84.3325,40.2329 C84.4609,40.2282 84.5869,40.2115 84.7058,40.2115 Z" id="Path" fill="#3D3935"></path>
            <path d="M92.288,37.2133 C91.8374,36.9499 91.325,36.811 90.8032,36.811 C90.2813,36.811 89.7689,36.9499 89.3183,37.2133 C88.8688,37.4739 88.4963,37.8491 88.2389,38.3007 C87.844,38.9864 87.7358,39.8006 87.938,40.5658 C88.1402,41.331 88.6363,41.9852 89.3183,42.386 C89.7695,42.6478 90.2817,42.7857 90.8032,42.7857 C91.3247,42.7857 91.8369,42.6478 92.288,42.386 C92.7382,42.1211 93.1114,41.7431 93.3707,41.2895 C93.6301,40.8358 93.7665,40.3223 93.7665,39.7997 C93.7665,39.277 93.6301,38.7635 93.3707,38.3098 C93.1114,37.8562 92.7382,37.4782 92.288,37.2133 Z M93.1868,39.7997 C93.1908,40.2242 93.0799,40.6419 92.8658,41.0084 C92.6588,41.3724 92.3594,41.6752 91.9979,41.8864 C91.6348,42.0979 91.2221,42.2093 90.802,42.2093 C90.3818,42.2093 89.9692,42.0979 89.606,41.8864 C89.2443,41.674 88.9437,41.3715 88.7334,41.0084 C88.5217,40.6404 88.4102,40.2231 88.4102,39.7985 C88.4102,39.3738 88.5217,38.9566 88.7334,38.5886 C88.9451,38.2265 89.2454,37.9243 89.606,37.7106 C89.9692,37.4991 90.3818,37.3877 90.802,37.3877 C91.2221,37.3877 91.6348,37.4991 91.9979,37.7106 C92.3582,37.9232 92.6572,38.2257 92.8658,38.5886 C93.0796,38.956 93.1905,39.3744 93.1868,39.7997 Z" id="Shape" fill="#3D3935"></path>
            <path d="M99.4471,40.4994 C99.448,40.7269 99.4043,40.9525 99.3187,41.1632 C99.2366,41.369 99.1137,41.556 98.9573,41.7129 C98.8,41.8705 98.6134,41.9958 98.4081,42.0817 C98.2044,42.1671 97.9857,42.2111 97.7649,42.2111 C97.5441,42.2111 97.3254,42.1671 97.1218,42.0817 C96.9164,41.9958 96.7298,41.8705 96.5725,41.7129 C96.4167,41.5555 96.2939,41.3687 96.2111,41.1632 C96.1255,40.9525 96.0818,40.7269 96.0827,40.4994 L96.0827,36.8804 L95.5168845,36.8804 L95.5168845,40.5065 C95.5158,40.8074 95.5732,41.1055 95.6857,41.3845 C95.792,41.6576 95.9539,41.9055 96.1612,42.1126 C96.3694,42.3266 96.6174,42.498 96.8911,42.617 C97.1653,42.7332 97.46,42.7931 97.7578,42.7931 C98.0555,42.7931 98.3502,42.7332 98.6244,42.617 C98.8917,42.4962 99.1337,42.3259 99.3377,42.115 C99.5494,41.9083 99.7155,41.6594 99.8251,41.3845 C99.9374,41.1055 99.9947,40.8074 99.9939083,40.5065 L99.9939083,36.8804 L99.4281,36.8804 L99.4471,40.4994 Z" id="Path" fill="#3D3935"></path>
            <path d="M105.163,37.1017 C104.87,36.9468 104.543,36.8652 104.212,36.8638 L102.098,36.8638 L102.098,42.7146 L102.664,42.7146 L102.664,40.2615 L104.202,40.2615 C104.534,40.2604 104.86,40.1787 105.153,40.0236 C105.44,39.8822 105.686,39.6691 105.867,39.4049 C106.038,39.155 106.13,38.8588 106.13,38.5555 C106.13,38.2522 106.038,37.956 105.867,37.7061 C105.687,37.4486 105.445,37.2408 105.163,37.1017 Z M105.567,38.5674 C105.566,38.7644 105.503,38.956 105.386,39.1147 C105.258,39.2911 105.087,39.432 104.889,39.5239 C104.676,39.6278 104.442,39.6808 104.205,39.6786 L102.666,39.6786 L102.666,37.4491 L104.214,37.4491 C104.451,37.4461 104.686,37.4983 104.899,37.6014 C105.097,37.6934 105.268,37.8342 105.396,38.0106 C105.51,38.1738 105.57,38.3685 105.567,38.5674 Z" id="Shape" fill="#3D3935"></path>
            <polygon id="Path" fill="#3D3935" points="107.94 42.7239 111.789 42.7239 111.789 42.141 108.506 42.141 108.506 40.0876 111.064 40.0876 111.064 39.5118 108.506 39.5118 108.506 37.4489 111.789 37.4489 111.789 36.873 107.94 36.873"></polygon>
            <path d="M121.195,37.7585 C120.939,37.4764 120.625,37.2532 120.275,37.1042 C119.912,36.9466 119.52,36.8657 119.124,36.8661977 L117.405,36.8661977 L117.405,42.7171033 L119.12,42.7171033 C119.515,42.7177 119.907,42.6367 120.27,42.4791 C120.622,42.3283 120.936,42.1016 121.19,41.8153 C121.435,41.5408 121.626,41.2239 121.756,40.8802 C122.023,40.1667 122.023,39.3809 121.756,38.6674 C121.627,38.3321 121.437,38.0239 121.195,37.7585 Z M117.971,37.4492 L119.12,37.4492 C119.578,37.4359 120.028,37.5683 120.406,37.8274 C120.784,38.0865 121.071,38.4589 121.224,38.8911 C121.329,39.1791 121.382,39.4837 121.381,39.7905 C121.383,40.1003 121.329,40.4081 121.224,40.6994 C121.125,40.9752 120.972,41.2284 120.774,41.4441 C120.567,41.6788 120.31,41.8645 120.022,41.9879 C119.734,42.1114 119.423,42.1694 119.11,42.1579 L117.957,42.1579 L117.971,37.4492 Z" id="Shape" fill="#3D3935"></path>
            <polygon id="Path" fill="#3D3935" points="124.327 36.873 123.761 36.873 123.761 42.7239 127.513 42.7239 127.513 42.1576 124.327 42.1576"></polygon>
            <path d="M132.56,37.1017 C132.267,36.9475 131.941,36.8659 131.609,36.8638 L129.498,36.8638 L129.498,42.7146 L130.057,42.7146 L130.057,40.2615 L131.595,40.2615 C131.927,40.26 132.253,40.1784 132.546,40.0236 C132.833,39.8825 133.079,39.6693 133.259,39.4049 C133.431,39.155 133.523,38.8588 133.523,38.5555 C133.523,38.2522 133.431,37.956 133.259,37.7061 C133.081,37.449 132.84,37.2412 132.56,37.1017 Z M132.962012,38.5674 C132.961,38.7644 132.898,38.956 132.782,39.1147 C132.654,39.2911 132.484,39.4319 132.287,39.5239 C132.073,39.6275 131.838,39.6804 131.6,39.6786 L130.057,39.6786 L130.057,37.4491 L131.605,37.4491 C131.842,37.4464 132.077,37.4985 132.292,37.6014 C132.488,37.6941 132.658,37.8348 132.786,38.0106 C132.902,38.1732 132.963,38.3679 132.962012,38.5674 Z" id="Shape" fill="#3D3935"></path>
            <polygon id="Path" fill="#3D3935" points="137.601 39.8734 139.793 36.873 139.082 36.873 135.903 41.2463 135.903 36.873 135.337 36.873 135.337 42.9999 137.261 40.3588 139.251 42.7239 140 42.7239"></polygon>
            <polygon id="Path" fill="#3D3935" points="68.9562 39.5879 32.3215 39.5879 32.3215 39.8758 68.9562 39.8758"></polygon>
            <path d="M73.8376,25.1049 C75.381,24.6154 76.7274,23.6447 77.6801,22.3348 C78.6328,21.0248 79.1418,19.4441 79.1326,17.824 C79.1307,15.7861 78.3211,13.8321 76.8813,12.3908 C75.4415,10.9496 73.4893,10.1388 71.4528,10.1362 L61.1909,10.1362 L61.1909,33.328 L63.7612,33.328 L63.7612,25.476 L71.0058,25.476 L76.327,33.328 L79.4179,33.328 L73.8376,25.1049 Z M63.7612,12.7083 L71.4528,12.7083 C72.1313,12.6937 72.806,12.8147 73.4372,13.0645 C74.0683,13.3142 74.6433,13.6875 75.1284,14.1626 C75.6134,14.6376 75.9988,15.2048 76.2619,15.8309 C76.525,16.457 76.6606,17.1293 76.6606,17.8085 C76.6606,18.4877 76.525,19.1601 76.2619,19.7861 C75.9988,20.4122 75.6134,20.9794 75.1284,21.4545 C74.6433,21.9295 74.0683,22.3028 73.4372,22.5526 C72.806,22.8023 72.1313,22.9234 71.4528,22.9087 L63.7612,22.9087 L63.7612,12.7083 Z" id="Shape" fill="#3D3935"></path>
            <polygon id="Path" fill="#3D3935" points="84.0115 10.1362 84.0115 12.7083 92.6233 12.7083 92.6233 33.328 95.1935 33.328 95.1935 12.7083 103.805 12.7083 103.805 10.1362"></polygon>
            <polygon id="Path" fill="#3D3935" points="111.611 9.9956 109.043 9.9956 109.043 33.1873 111.611 33.1873"></polygon>
            <polygon id="Path" fill="#3D3935" points="129.914 9.9863 127.358 9.9863 117.332 33.1971 120.111 33.1971 128.637 13.7124 133.136 23.9128 127.831 23.9128 127.831 26.4421 134.163 26.4421 137.106 33.1685 139.914 33.1685"></polygon>
            <path d="M44.2455,33.7156002 C41.8866,33.716 39.5806,33.0165 37.619,31.7053 C35.6574,30.3942 34.1284,28.5304 33.2254,26.3496 C32.3224,24.1688 32.0859,21.769 32.5458,19.4537 C33.0057,17.1384 34.1413,15.0116 35.8092,13.3422 C37.477,11.6728 39.602,10.5359 41.9156,10.0752 C44.2291,9.6145 46.6272,9.8507 48.8065,10.754 C50.9859,11.6572 52.8487,13.187 54.1593,15.1497 C55.4698,17.1124 56.1693,19.42 56.1693,21.7806 C56.1662,24.9446 54.909,27.9781 52.6736,30.2156 C50.4382,32.4531 47.4072,33.7118 44.2455,33.7156002 Z M44.2455,12.3012 C42.3707,12.3031 40.5386,12.8613 38.9807,13.9051 C37.4229,14.949 36.2094,16.4316 35.4936,18.1657 C34.7777,19.8997 34.5918,21.8072 34.9592,23.647 C35.3266,25.4867 36.2309,27.1762 37.5578,28.5017 C38.8846,29.8271 40.5744,30.7291 42.4135,31.0936 C44.2526,31.4581 46.1583,31.2686 47.8898,30.5492 C49.6213,29.8299 51.1008,28.6128 52.1412,27.052 C53.1815,25.4913 53.7361,23.6568 53.734603,21.7806 C53.7321,19.2638 52.7313,16.8509 50.952,15.0721 C49.1727,13.2933 46.7605,12.2941 44.2455,12.2941 L44.2455,12.3012 Z" id="Shape" fill="#3D3935"></path>
            <polygon id="Path" fill="#FF5100" points="2.77946 10.9117 3.92072 12.3512 7.46816 12.3512 0 2.93604 0 33.2944 2.8389 33.2944 2.77946 27.0486"></polygon>
            <polygon id="Path" fill="#FF5100" points="23.7717 0 23.7717 32.9043 9.47492 14.883 5.92749 14.883 26.5487 40.88 26.5487 0"></polygon>
        </g>
    </g>
</svg>