<?xml version="1.0" encoding="UTF-8"?>
<!-- Generator: Adobe Illustrator 21.1.0, SVG Export Plug-In . SVG Version: 6.00 Build 0)  -->
<svg xmlns="http://www.w3.org/2000/svg" xmlns:xlink="http://www.w3.org/1999/xlink" version="1.1" id="Calque_1" x="0px" y="0px" viewBox="0 0 762 181" style="enable-background:new 0 0 762 181;" xml:space="preserve">
<style type="text/css">
	.st0{fill:#231F20;}
	.st1{fill:#EA2040;}
</style>
<path class="st0" d="M4.7,35.1c3.1-7.6,7.5-14.1,13.2-19.3c5.7-5.3,12.5-9.3,20.4-12C46.2,1,54.9-0.4,64.3-0.4  c9.5,0,18.2,1.4,26.1,4.1c7.9,2.8,14.7,6.8,20.4,12c5.7,5.3,10.1,11.7,13.2,19.3c3.2,7.6,4.7,16.3,4.7,26c0,9.7-1.6,18.4-4.7,26  c-3.1,7.6-7.6,14.1-13.2,19.3c-5.7,5.3-12.5,9.2-20.4,11.8c-7.9,2.6-16.6,3.9-26.1,3.9c-9.4,0-18-1.3-25.9-3.9  c-7.9-2.6-14.7-6.5-20.4-11.8c-5.7-5.3-10.1-11.7-13.2-19.3C1.6,79.6,0,70.9,0,61.2C0,51.4,1.6,42.8,4.7,35.1z M108.3,36.5  c-2.4-6.9-5.8-12.7-10.1-17.2c-4.3-4.5-9.3-7.9-15.1-10.1C77.3,7.1,71,6,64.3,6c-6.6,0-12.9,1.1-18.7,3.3  c-5.8,2.2-10.8,5.5-15.1,10.1c-4.3,4.5-7.7,10.3-10.1,17.2c-2.4,6.9-3.6,15.2-3.6,24.7c0,9.5,1.2,17.7,3.6,24.7  c2.4,6.9,5.8,12.7,10.1,17.2c4.3,4.5,9.3,7.9,15.1,10.1c5.8,2.2,12,3.3,18.7,3.3c6.8,0,13-1.1,18.8-3.3c5.8-2.2,10.8-5.5,15.1-10.1  c4.3-4.5,7.6-10.3,10.1-17.2c2.4-6.9,3.6-15.2,3.6-24.7C111.9,51.7,110.7,43.4,108.3,36.5z"></path>
<path class="st0" d="M159.7,52.8c-0.2-5.1-0.4-10.3-0.7-15.6c2.3,0.2,4.6,0.3,6.9,0.4c2.2,0.1,4.5,0.2,6.9,0.2  c2.3,0,4.6-0.1,6.8-0.3c2.2-0.2,4.5-0.3,6.9-0.3c3.4,0,6.6,0.3,9.6,1c3,0.6,5.7,1.7,8,3.2c2.3,1.5,4.1,3.4,5.4,5.8  c1.3,2.4,2,5.4,2,9c0,3.9-0.9,7.2-2.6,9.9c-1.7,2.8-3.8,5.1-6.3,6.9c-2.5,1.8-5.1,3.2-8,4.2c-2.8,1-5.4,1.7-7.8,2  c1,1.2,2.3,2.9,3.9,5c1.7,2.2,3.6,4.6,5.7,7.2c2.1,2.6,4.2,5.3,6.5,8.2c2.3,2.9,4.4,5.6,6.5,8.2c2.1,2.6,4,5,5.9,7.2  c1.8,2.2,3.3,3.8,4.4,4.9c-1.2-0.2-2.4-0.2-3.6-0.2c-1.2,0-2.4,0-3.6,0c-1.1,0-2.3,0-3.5,0c-1.2,0-2.4,0.1-3.5,0.2  c-1.2-1.7-3-4.2-5.5-7.6c-2.4-3.4-5.2-7-8.1-10.8c-3-3.9-6-7.7-9.1-11.5c-3.1-3.8-5.9-7-8.5-9.7h-4.6v8.8c0,5.3,0.1,10.5,0.3,15.6  c0.2,5.1,0.4,10.2,0.7,15.2c-1.9-0.2-3.8-0.2-5.9-0.2c-2.1,0-4.1,0.1-5.9,0.2c0.2-5,0.5-10,0.7-15.2c0.2-5.1,0.3-10.3,0.3-15.6V68.4  C160,63.1,159.9,57.9,159.7,52.8z M173.5,75.7c1.3,0.1,2.8,0.1,4.4,0.1c2.5,0,5.1-0.3,7.8-0.8c2.7-0.6,5.1-1.6,7.4-3  c2.2-1.4,4.1-3.3,5.6-5.7c1.5-2.4,2.2-5.4,2.2-9c0-3.1-0.6-5.7-1.8-7.8c-1.2-2-2.7-3.7-4.5-4.9c-1.9-1.2-3.9-2-6-2.5  c-2.2-0.4-4.3-0.7-6.4-0.7c-2.8,0-5.1,0.1-7,0.2c-1.9,0.1-3.4,0.3-4.7,0.4c-0.2,4.4-0.3,8.8-0.5,13.1c-0.2,4.3-0.2,8.7-0.2,13v6.9  C171,75.5,172.2,75.6,173.5,75.7z"></path>
<path class="st0" d="M308.1,119.9c-1.1-0.2-2.2-0.2-3.2-0.2c-1,0-2.1,0-3.2,0c-1.1,0-2.2,0-3.2,0c-1,0-2.1,0.1-3.2,0.2  c-0.6-1.9-1.3-4.1-2.3-6.7c-1-2.6-2-5.3-3.2-8.2c-1.2-2.8-2.3-5.7-3.6-8.7c-1.2-2.9-2.3-5.7-3.4-8.4c-2.6-0.1-5.2-0.1-7.8-0.2  c-2.7-0.1-5.3-0.1-7.9-0.1c-2.5,0-4.9,0-7.3,0.1c-2.4,0-4.9,0.1-7.3,0.2c-2.6,6.2-4.9,12.2-7,17.9c-2.1,5.7-3.7,10.3-4.7,14  c-1.4-0.2-2.8-0.2-4.5-0.2c-1.6,0-3.1,0.1-4.5,0.2c6.5-14,12.8-28,19-41.9c6.2-13.9,12.4-28,18.6-42.3h2.3c1.9,4.7,4,9.7,6.2,15.1  c2.2,5.4,4.5,10.9,6.9,16.4c2.3,5.5,4.6,11,7,16.5c2.3,5.5,4.5,10.5,6.6,15.2c2,4.7,3.9,8.9,5.5,12.6  C305.7,115.1,307,117.9,308.1,119.9z M254.8,82.4c2.1,0,4.3,0,6.5,0.1c2.2,0.1,4.4,0.1,6.5,0.1c2.2,0,4.5,0,6.7-0.1  c2.2,0,4.5-0.1,6.7-0.2l-13.4-30.6L254.8,82.4z"></path>
<path class="st0" d="M330.6,52.8c-0.2-5.1-0.4-10.3-0.7-15.6c3.1,0.2,6.1,0.3,9.1,0.4c3,0.1,6,0.2,9.1,0.2c3,0,6.1-0.1,9.1-0.3  c3-0.2,6-0.3,9.1-0.3c7.1,0,13.1,0.9,18.1,2.8c5,1.9,9.1,4.5,12.3,7.9c3.2,3.4,5.6,7.6,7,12.5c1.5,4.9,2.2,10.5,2.2,16.7  c0,8-1.4,14.8-4.1,20.3c-2.8,5.5-6.3,9.9-10.6,13.3c-4.3,3.4-9,5.8-14.2,7.2c-5.2,1.4-10.1,2.1-14.9,2.1c-2.7,0-5.4,0-8.1-0.1  c-2.6-0.1-5.3-0.1-8.1-0.1c-2.7,0-5.4,0-8.1,0c-2.6,0-5.3,0.1-8.1,0.2c0.2-5,0.5-10,0.7-15.2c0.2-5.1,0.3-10.3,0.3-15.6V68.4  C330.9,63.1,330.8,57.9,330.6,52.8z M341.5,114.6c1.7,0.4,4,0.7,6.9,0.9c2.9,0.2,5.8,0.3,8.9,0.3c4.4,0,8.8-0.5,13.2-1.6  c4.4-1,8.4-3,11.8-5.9c3.5-2.9,6.3-6.8,8.5-11.8c2.2-5,3.3-11.5,3.3-19.4c0-7-0.9-12.7-2.6-17.2c-1.7-4.5-4.1-8-7.1-10.6  c-3-2.6-6.6-4.4-10.8-5.4c-4.2-1-8.7-1.5-13.7-1.5c-3.6,0-7,0.1-10.1,0.4c-3.1,0.2-5.9,0.5-8.4,0.8c-0.2,3.8-0.4,7.9-0.5,12.1  c-0.1,4.2-0.2,8.5-0.2,12.8v20.7C340.8,97.7,341,106.2,341.5,114.6z"></path>
<path class="st0" d="M431,52.6c-0.2-5.1-0.4-10.3-0.6-15.4c3.6,0.2,7.2,0.3,10.8,0.4c3.6,0.1,7.1,0.2,10.8,0.2  c3.6,0,7.2-0.1,10.7-0.2c3.5-0.1,7.1-0.3,10.7-0.4c-0.2,1.2-0.4,2.4-0.4,3.6c0,1.2,0.1,2.4,0.4,3.6c-2.6-0.2-4.9-0.3-7-0.5  c-2.1-0.2-4.4-0.3-6.7-0.5c-2.4-0.2-5-0.3-7.8-0.4c-2.8-0.1-6.2-0.2-10.1-0.2c-0.1,2.6-0.2,5-0.3,7.3c-0.1,2.3-0.2,5-0.2,7.9  c0,3.1,0,6.2,0.1,9.1c0,3,0.1,5.2,0.1,6.7c3.5,0,6.7,0,9.5-0.1c2.8-0.1,5.4-0.2,7.7-0.3c2.3-0.1,4.5-0.2,6.4-0.4  c2-0.1,3.8-0.3,5.6-0.4c-0.2,1.2-0.4,2.5-0.4,3.7c0,1.2,0.1,2.4,0.4,3.6c-2.1-0.2-4.5-0.4-7.3-0.6c-2.8-0.2-5.5-0.3-8.3-0.3  c-2.8,0-5.4-0.1-7.8-0.1c-2.4,0-4.4-0.1-5.8-0.1c0,0.7,0,1.5-0.1,2.3c0,0.8-0.1,1.9-0.1,3.2v4.7v7.2c0,4.6,0,8.3,0.1,11.3  c0,3,0.1,5.2,0.2,6.7c2.6,0,5.5,0,8.4,0c3,0,6-0.1,9-0.2c2.9-0.1,5.7-0.3,8.3-0.5c2.6-0.2,4.9-0.5,6.8-0.9c-0.2,0.6-0.3,1.2-0.3,1.9  c0,0.7-0.1,1.3-0.1,1.9c0,1.3,0.1,2.3,0.4,3.1c-3.6-0.2-7.2-0.2-10.8-0.2c-3.6,0-7.2,0-10.9,0c-3.7,0-7.3,0-10.9,0  c-3.6,0-7.3,0.1-10.9,0.2c0.2-5.1,0.5-10.2,0.6-15.3c0.2-5.1,0.3-10.3,0.3-15.6V68.2C431.4,63,431.2,57.7,431,52.6z"></path>
<path class="st0" d="M540.3,84.2l-0.5-1.8l-13.3-30.6l-13.1,30.6L511,88c-2.6,6.2-4.9,12.2-7,17.9c-2.1,5.7-3.7,10.3-4.7,14  c-1.4-0.2-2.9-0.2-4.5-0.2c-1.6,0-3.1,0.1-4.4,0.2c6.5-14,12.8-28,19-41.9c6.2-13.9,12.4-28,18.6-42.3h2.3c1.9,4.7,4,9.7,6.3,15.1  c2.2,5.4,4.5,10.9,6.9,16.4c2.3,5.5,4.7,11,7,16.5L540.3,84.2z"></path>
<path class="st0" d="M602,95c-3.7-9.2-7.6-18.9-11.7-29.2c-4.2-10.2-8.4-20.7-12.8-31.3c-4.4-10.7-8.6-20.8-12.6-30.3  c1.6,0.2,3.1,0.4,4.5,0.6c1.4,0.2,2.8,0.3,4.2,0.3c1.3,0,2.7-0.1,4.2-0.3c1.4-0.2,2.9-0.4,4.5-0.6c2.5,7.3,5.1,15,8.1,23.1  c2.9,8,6.1,16.2,9.3,24.6c3.3,8.3,6.6,16.8,10.1,25.3c3.4,8.6,6.9,17.1,10.5,25.5c2-4.5,4.2-9.6,6.5-15.2c2.3-5.6,4.7-11.4,7.1-17.5  c2.4-6.1,4.8-12.2,7.1-18.5c2.3-6.3,4.6-12.3,6.7-18.1c2.2-5.8,4.1-11.2,5.9-16.2c1.8-5,3.3-9.3,4.5-13c2.4,0.5,4.5,0.8,6.2,0.8  c1.7,0,3.7-0.3,6.2-0.8c-8.7,19.3-17,38.5-25,57.5c-8,19-15.7,38-23,57c-1.8-0.2-3.6-0.3-5.5-0.3c-2.2,0-4.1,0.1-5.5,0.3  C608.8,112.1,605.7,104.3,602,95z"></path>
<path class="st0" d="M679.4,53.6c-0.2-4.9-0.4-10-0.6-15.1c1,0.2,2,0.3,2.9,0.4c0.9,0.1,1.9,0.2,2.8,0.2c0.9,0,1.9-0.1,2.8-0.2  c0.9-0.1,1.9-0.3,2.9-0.4c-0.2,5.1-0.4,10.2-0.6,15.1c-0.2,4.9-0.3,10-0.3,15.1v20.1c0,5.1,0.1,10.2,0.3,15.2  c0.2,5,0.4,9.9,0.6,14.7c-1.8-0.1-3.7-0.2-5.7-0.2c-2,0-3.9,0.1-5.7,0.2c0.2-4.8,0.4-9.7,0.6-14.7c0.2-5,0.3-10,0.3-15.2V68.7  C679.7,63.5,679.6,58.5,679.4,53.6z"></path>
<path class="st0" d="M720,53.4c-0.2-5-0.4-10-0.6-14.9c3.5,0.2,7,0.3,10.4,0.4c3.5,0.1,6.9,0.2,10.4,0.2c3.5,0,6.9-0.1,10.4-0.2  c3.4-0.1,6.9-0.3,10.4-0.4c-0.2,1.2-0.4,2.3-0.4,3.5c0,1.2,0.1,2.3,0.4,3.5c-2.5-0.2-4.8-0.3-6.8-0.5c-2.1-0.2-4.2-0.3-6.5-0.5  c-2.3-0.2-4.8-0.3-7.5-0.4c-2.7-0.1-6-0.2-9.8-0.2c-0.1,2.5-0.2,4.9-0.3,7.1c-0.1,2.3-0.2,4.8-0.2,7.7c0,3,0,6,0.1,8.9  c0,2.9,0,5.1,0,6.5c3.4,0,6.5,0,9.2-0.1c2.7-0.1,5.2-0.2,7.5-0.3c2.3-0.1,4.3-0.2,6.2-0.3c1.9-0.1,3.7-0.3,5.4-0.4  c-0.2,1.2-0.3,2.4-0.3,3.6c0,1.2,0.1,2.3,0.3,3.5c-2-0.2-4.4-0.4-7-0.6c-2.7-0.1-5.4-0.3-8.1-0.3c-2.7,0-5.2-0.1-7.6-0.1  c-2.4,0-4.3-0.1-5.7-0.1c0,0.7,0,1.5,0,2.3c0,0.8-0.1,1.8-0.1,3.1V89v7c0,4.4,0,8.1,0.1,11c0,2.9,0.1,5.1,0.2,6.5c2.6,0,5.3,0,8.2,0  c2.9,0,5.9-0.1,8.7-0.2c2.8-0.1,5.5-0.3,8.1-0.5c2.5-0.2,4.7-0.5,6.6-0.9c-0.2,0.5-0.3,1.1-0.3,1.8c0,0.7-0.1,1.3-0.1,1.8  c0,1.2,0.1,2.3,0.4,3c-3.5-0.1-7-0.2-10.4-0.2c-3.5,0-7,0-10.6,0c-3.6,0-7.1,0-10.6,0c-3.5,0-7,0.1-10.6,0.2c0.2-5,0.5-9.9,0.6-14.9  c0.2-4.9,0.3-10,0.3-15.1V68.6C720.3,63.4,720.2,58.4,720,53.4z"></path>
<path class="st1" d="M481.3,81.6c38.1,2.6,31.1-6.1,54.6-6.3c19.1-0.2,32.2,9.5,32.2,9.5c-38.6-2.1-32.7,5.7-56.3,6.5  C495.1,91.8,481.3,81.6,481.3,81.6z"></path>
<path class="st0" d="M543.7,93.7c3-0.4,6.5-0.6,10.8-0.6c0.9,2.2,1.6,3.8,2.5,5.8c2,4.7,3.9,8.9,5.5,12.6c1.6,3.7,3,6.5,4,8.4  c-1.1-0.2-2.2-0.2-3.2-0.2c-1,0-2.1,0-3.2,0c-1.1,0-2.2,0-3.2,0c-1,0-2.1,0.1-3.2,0.2c-0.5-1.9-1.3-4.1-2.3-6.7  c-1-2.6-2-5.3-3.2-8.2c-1.2-2.8-2.4-5.7-3.6-8.7C544.4,95.3,544.1,94.7,543.7,93.7z"></path>
<g>
	<path class="st1" d="M111.6,179.6c-1.9,0.5-5.7,1.2-10.2,1.2c-5,0-9.2-0.9-12.5-2.9c-2.9-1.8-4.7-4.8-4.7-8.3   c0-6.6,6.9-11.5,18.1-11.5c3.9,0,6.9,0.6,8.3,1l-1,2.3c-1.8-0.5-4-1-7.4-1c-8.1,0-13.4,3.4-13.4,8.9c0,5.6,5.1,9,12.9,9   c2.8,0,4.8-0.3,5.7-0.6v-6.6h-6.8v-2.3h11V179.6z"></path>
	<path class="st1" d="M118.2,158.6c2.2-0.3,5.3-0.5,8.3-0.5c4.6,0,7.6,0.6,9.6,1.8c1.7,1,2.6,2.5,2.6,4.2c0,2.9-2.8,4.9-6.3,5.7v0.1   c2.6,0.6,4.1,2.2,4.9,4.5c1.1,3.1,1.9,5.2,2.6,6.1h-4.5c-0.5-0.7-1.3-2.5-2.2-5.3c-1-3.1-2.8-4.2-6.7-4.3h-4.1v9.6h-4.3V158.6z    M122.5,168.7h4.4c4.6,0,7.5-1.7,7.5-4.2c0-2.9-3.1-4.1-7.7-4.2c-2.1,0-3.6,0.1-4.3,0.3V168.7z"></path>
	<path class="st1" d="M173.5,169.2c0,7.7-7,11.7-15.5,11.7c-8.8,0-15-4.6-15-11.3c0-7.1,6.6-11.7,15.5-11.7   C167.6,157.9,173.5,162.6,173.5,169.2z M147.6,169.6c0,4.7,3.9,9,10.6,9c6.8,0,10.7-4.2,10.7-9.2c0-4.4-3.5-9-10.6-9   C151.1,160.3,147.6,164.7,147.6,169.6z"></path>
	<path class="st1" d="M183.3,158.3v13.2c0,5,3.3,7.1,7.8,7.1c5,0,8.1-2.2,8.1-7.1v-13.2h4.4v13c0,6.8-5.4,9.6-12.6,9.6   c-6.8,0-12-2.6-12-9.5v-13.1H183.3z"></path>
	<path class="st1" d="M211,158.6c2.1-0.2,4.8-0.4,8.3-0.4c4.3,0,7.4,0.7,9.4,1.8c1.8,1.1,2.9,2.7,2.9,4.7c0,2-0.9,3.6-2.6,4.8   c-2.3,1.6-6,2.4-10.2,2.4c-1.3,0-2.5,0-3.5-0.2v8.9H211V158.6z M215.4,169.3c0.9,0.2,2.1,0.2,3.6,0.2c5.2,0,8.4-1.7,8.4-4.7   c0-2.9-3.1-4.4-7.9-4.4c-1.9,0-3.3,0.1-4.1,0.2V169.3z"></path>
	<path class="st1" d="M254.6,170.1h-13v8h14.4v2.4h-18.8v-22.2h18v2.4h-13.7v7h13V170.1z"></path>
	<path class="st1" d="M276.1,177.1c1.9,0.8,4.8,1.5,7.7,1.5c4.4,0,7-1.5,7-3.8c0-2.1-1.8-3.3-6.3-4.4c-5.4-1.3-8.8-3.2-8.8-6.3   c0-3.5,4.3-6,10.8-6c3.4,0,5.9,0.5,7.4,1.1l-1.2,2.3c-1.1-0.4-3.3-1.1-6.3-1.1c-4.6,0-6.3,1.8-6.3,3.3c0,2.1,2,3.1,6.6,4.3   c5.6,1.5,8.5,3.3,8.5,6.5c0,3.4-3.8,6.4-11.7,6.4c-3.2,0-6.7-0.7-8.5-1.5L276.1,177.1z"></path>
	<path class="st1" d="M329.6,169.2c0,7.7-7,11.7-15.5,11.7c-8.8,0-15-4.6-15-11.3c0-7.1,6.6-11.7,15.5-11.7   C323.7,157.9,329.6,162.6,329.6,169.2z M303.7,169.6c0,4.7,3.9,9,10.6,9c6.8,0,10.7-4.2,10.7-9.2c0-4.4-3.5-9-10.6-9   C307.2,160.3,303.7,164.7,303.7,169.6z"></path>
	<path class="st1" d="M358.4,179.8c-1.6,0.5-4.8,1.1-8.8,1.1c-9.4,0-16.5-4-16.5-11.3c0-7,7.1-11.7,17.4-11.7c4.2,0,6.8,0.6,7.9,1   l-1,2.3c-1.6-0.5-4-0.9-6.7-0.9c-7.8,0-13,3.3-13,9.2c0,5.4,4.7,8.9,12.8,8.9c2.6,0,5.3-0.4,7-0.9L358.4,179.8z"></path>
	<path class="st1" d="M368.1,158.3v22.2h-4.3v-22.2H368.1z"></path>
	<path class="st1" d="M392.9,170.1h-13v8h14.4v2.4h-18.8v-22.2h18v2.4h-13.7v7h13V170.1z"></path>
	<path class="st1" d="M407.1,160.8H397v-2.4h24.7v2.4h-10.2v19.8h-4.4V160.8z"></path>
	<path class="st1" d="M442.6,170.1h-13v8h14.4v2.4h-18.8v-22.2h18v2.4h-13.7v7h13V170.1z"></path>
	<path class="st1" d="M490.1,179.6c-1.9,0.5-5.7,1.2-10.2,1.2c-5,0-9.2-0.9-12.5-2.9c-2.9-1.8-4.7-4.8-4.7-8.3   c0-6.6,6.9-11.5,18.1-11.5c3.9,0,6.9,0.6,8.3,1l-1,2.3c-1.8-0.5-4-1-7.4-1c-8.1,0-13.4,3.4-13.4,8.9c0,5.6,5.1,9,12.9,9   c2.8,0,4.8-0.3,5.7-0.6v-6.6h-6.8v-2.3h11V179.6z"></path>
	<path class="st1" d="M513.9,170.1h-13v8h14.4v2.4h-18.8v-22.2h18v2.4h-13.7v7h13V170.1z"></path>
	<path class="st1" d="M521,180.5v-22.2h4.7l10.7,11.3c2.5,2.6,4.4,4.9,6,7.2l0.1,0c-0.4-3-0.5-5.7-0.5-9.1v-9.3h4.1v22.2h-4.4   L531,169.3c-2.3-2.5-4.6-5-6.2-7.4l-0.1,0c0.2,2.8,0.3,5.5,0.3,9.2v9.5H521z"></path>
	<path class="st1" d="M570.8,170.1h-13v8h14.4v2.4h-18.8v-22.2h18v2.4h-13.7v7h13V170.1z"></path>
	<path class="st1" d="M577.8,158.6c2.2-0.3,5.3-0.5,8.3-0.5c4.6,0,7.6,0.6,9.7,1.8c1.7,1,2.6,2.5,2.6,4.2c0,2.9-2.8,4.9-6.3,5.7v0.1   c2.6,0.6,4.1,2.2,4.9,4.5c1.1,3.1,1.9,5.2,2.6,6.1h-4.5c-0.5-0.7-1.3-2.5-2.2-5.3c-1-3.1-2.8-4.2-6.7-4.3h-4.1v9.6h-4.3V158.6z    M582.1,168.7h4.4c4.6,0,7.5-1.7,7.5-4.2c0-2.9-3.1-4.1-7.7-4.2c-2.1,0-3.6,0.1-4.3,0.3V168.7z"></path>
	<path class="st1" d="M610.1,173.6l-3.5,7h-4.5l11.3-22.2h5.2l11.4,22.2h-4.6l-3.6-7H610.1z M621,171.3l-3.3-6.4   c-0.7-1.5-1.2-2.8-1.7-4.1h-0.1c-0.5,1.3-1,2.7-1.7,4l-3.3,6.4H621z"></path>
	<path class="st1" d="M635,158.3h4.3v19.8h14.3v2.4H635V158.3z"></path>
	<path class="st1" d="M675.6,170.1h-13v8h14.4v2.4h-18.8v-22.2h18v2.4h-13.7v7h13V170.1z"></path>
</g>
</svg>
