<?xml version="1.0" encoding="UTF-8" standalone="no"?>
<svg
   xmlns:dc="http://purl.org/dc/elements/1.1/"
   xmlns:cc="http://creativecommons.org/ns#"
   xmlns:rdf="http://www.w3.org/1999/02/22-rdf-syntax-ns#"
   xmlns:svg="http://www.w3.org/2000/svg"
   xmlns="http://www.w3.org/2000/svg"
   xmlns:sodipodi="http://sodipodi.sourceforge.net/DTD/sodipodi-0.dtd"
   xmlns:inkscape="http://www.inkscape.org/namespaces/inkscape"
   id="Calque_1"
   data-name="Calque 1"
   width="147"
   height="55"
   viewBox="0 0 147.00746 55.048196"
   version="1.1"
   sodipodi:docname="Logo.svg"
   inkscape:version="0.92.1 r15371">
  <metadata
     id="metadata88">
    <rdf:RDF>
      <cc:Work
         rdf:about="">
        <dc:format>image/svg+xml</dc:format>
        <dc:type
           rdf:resource="http://purl.org/dc/dcmitype/StillImage" />
        <dc:title>PREVOIR_logo_RVB</dc:title>
      </cc:Work>
    </rdf:RDF>
  </metadata>
  <sodipodi:namedview
     pagecolor="#ffffff"
     bordercolor="#666666"
     borderopacity="1"
     objecttolerance="10"
     gridtolerance="10"
     guidetolerance="10"
     inkscape:pageopacity="0"
     inkscape:pageshadow="2"
     inkscape:window-width="1680"
     inkscape:window-height="988"
     id="namedview86"
     showgrid="false"
     inkscape:zoom="4.8395163"
     inkscape:cx="65.91912"
     inkscape:cy="18.83045"
     inkscape:window-x="-8"
     inkscape:window-y="22"
     inkscape:window-maximized="1"
     inkscape:current-layer="Calque_1" />
  <defs
     id="defs19">
    <style
       id="style2">.cls-1{fill:none;}.cls-2{fill:url(#radial-gradient);}.cls-3{fill:#c7114f;}.cls-4{fill:#f39200;}</style>
    <radialGradient
       id="radial-gradient"
       cx="297.81"
       cy="-420.35001"
       r="103.3"
       gradientTransform="matrix(0.50653211,0,0,0.3470683,-76.744012,149.40208)"
       gradientUnits="userSpaceOnUse">
      <stop
         offset="0"
         stop-color="#fff"
         id="stop4" />
      <stop
         offset="0.08"
         stop-color="#fffbf6"
         id="stop6" />
      <stop
         offset="0.22"
         stop-color="#fdf1de"
         id="stop8" />
      <stop
         offset="0.4"
         stop-color="#fce0b6"
         id="stop10" />
      <stop
         offset="0.6"
         stop-color="#f9c87f"
         id="stop12" />
      <stop
         offset="0.83"
         stop-color="#f6aa39"
         id="stop14" />
      <stop
         offset="1"
         stop-color="#f39200"
         id="stop16" />
    </radialGradient>
  </defs>
  <title
     id="title21">PREVOIR_logo_RVB</title>
  <rect
     class="cls-1"
     width="394.01999"
     height="194.17"
     id="rect23"
     x="0"
     y="-139.12181"
     style="fill:none" />
  <path
     class="cls-2"
     d="m 73.50373,0.79588338 c -28.43146,0 -54.292737,1.62277882 -73.56440738,4.27738272 V 7.0243527 C 21.551358,5.4766158 46.680979,4.3181576 73.50373,4.3181576 c 26.82275,0 51.95237,1.1537681 73.56441,2.701505 V 5.068576 C 127.80116,2.4139721 101.93519,0.79588338 73.50373,0.79588338 Z"
     id="path25"
     style="fill:url(#radial-gradient);stroke-width:0.46901122"
     inkscape:connector-curvature="0" />
  <path
     class="cls-3"
     d="m 16.856556,53.737868 a 0.51122221,0.51122221 0 0 1 -0.44087,0.347068 0.4690112,0.46901118 0 0 1 -0.469011,-0.46901 0.72227726,0.72227731 0 0 1 0.02345,-0.173535 l 2.265324,-7.11021 c 0.103182,-0.347068 0.267337,-0.609714 0.605025,-0.609714 0.337688,0 0.492461,0.253266 0.609714,0.609714 l 2.232494,7.12428 a 0.7785586,0.77855865 0 0 1 0,0.173535 0.4690112,0.46901118 0 0 1 -0.469012,0.469011 0.49715188,0.49715188 0 0 1 -0.469011,-0.347069 l -0.469011,-1.604017 h -2.93132 z m 0.769178,-2.499829 h 2.373197 l -1.177217,-3.916244 z"
     id="path27"
     inkscape:connector-curvature="0"
     style="fill:#c7114f;stroke-width:0.46901122" />
  <path
     class="cls-3"
     d="m 25.289378,48.067523 c 0.600334,0 1.533666,0.164154 1.533666,0.647235 a 0.41272986,0.41272988 0 0 1 -0.41742,0.41273 0.43618042,0.43618043 0 0 1 -0.206364,-0.05628 1.7869327,1.7869328 0 0 0 -0.877052,-0.211056 c -0.703516,0 -1.027134,0.272027 -1.027134,0.8067 0,0.356449 0.150084,0.539363 0.539363,0.741038 0.797319,0.393969 2.143381,0.501842 2.138691,1.997987 0,1.041205 -0.661306,1.683751 -1.941707,1.67906 -0.586263,0 -1.693129,-0.140703 -1.693129,-0.670686 a 0.41272986,0.41272988 0 0 1 0.4268,-0.412729 0.25326605,0.25326606 0 0 1 0.117252,0 3.0391926,3.0391927 0 0 0 1.153767,0.267336 c 0.637856,0 1.059966,-0.253266 1.064656,-0.84891 a 0.72696736,0.72696741 0 0 0 -0.42211,-0.717588 c -0.726967,-0.393969 -2.260634,-0.469011 -2.255944,-2.002677 -0.0047,-0.970853 0.642546,-1.636849 1.866665,-1.632159 z"
     id="path29"
     inkscape:connector-curvature="0"
     style="fill:#c7114f;stroke-width:0.46901122" />
  <path
     class="cls-3"
     d="m 30.579824,48.081593 c 0.600335,0 1.533666,0.164155 1.533666,0.647236 a 0.41741998,0.41741999 0 0 1 -0.417419,0.412729 0.4268002,0.42680022 0 0 1 -0.206365,-0.05629 1.7916228,1.7916229 0 0 0 -0.877051,-0.211055 c -0.703517,0 -1.027135,0.272026 -1.027135,0.80201 0,0.356448 0.150084,0.544052 0.539363,0.741037 0.797319,0.39397 2.143382,0.501842 2.138691,2.002678 0,1.036514 -0.661305,1.68375 -1.941706,1.67906 -0.586264,0 -1.69313,-0.145393 -1.69313,-0.675376 a 0.41272986,0.41272988 0 0 1 0.4268,-0.41273 0.25326605,0.25326606 0 0 1 0.117252,0 3.0251223,3.0251223 0 0 0 1.153768,0.267336 c 0.633165,0 1.059965,-0.253266 1.064655,-0.848909 a 0.72696736,0.72696741 0 0 0 -0.4268,-0.717588 c -0.726967,-0.39397 -2.260633,-0.469011 -2.255943,-2.002678 0.0047,-0.966163 0.651925,-1.632159 1.871354,-1.627469 z"
     id="path31"
     inkscape:connector-curvature="0"
     style="fill:#c7114f;stroke-width:0.46901122" />
  <path
     class="cls-3"
     d="m 37.558711,48.578746 a 0.4690112,0.46901118 0 0 1 0.900501,0 v 4.038186 c 0,0.633165 0.112563,0.633165 0.206365,0.806699 a 0.4690112,0.46901118 0 0 1 0.07974,0.229815 0.41272986,0.41272988 0 0 1 -0.4268,0.40335 0.58626401,0.58626405 0 0 1 -0.492461,-0.347068 3.3581202,3.3581203 0 0 1 -1.64154,0.412729 c -1.224119,0 -1.833834,-0.88174 -1.829143,-2.185592 v -3.3675 a 0.4690112,0.46901118 0 0 1 0.900501,0 v 3.3675 c 0,0.877052 0.365828,1.374203 1.059965,1.374203 a 2.382577,2.3825771 0 0 0 1.271021,-0.375209 c 0,-0.117252 0,-0.229816 0,-0.323618 z"
     id="path33"
     inkscape:connector-curvature="0"
     style="fill:#c7114f;stroke-width:0.46901122" />
  <path
     class="cls-3"
     d="m 41.859544,53.676897 a 0.4690112,0.46901118 0 0 1 -0.900501,0 v -3.897483 a 1.3319918,1.3319918 0 0 0 -0.182915,-0.806699 0.36582874,0.36582874 0 0 1 -0.07974,-0.234506 0.40334964,0.40334965 0 0 1 0.41742,-0.40335 0.57688378,0.57688383 0 0 1 0.469011,0.314238 3.2830784,3.2830785 0 0 1 1.580568,-0.492462 c 0.469011,0 0.600335,0.196985 0.600335,0.440871 a 0.43149031,0.43149032 0 0 1 -0.469012,0.469011 2.0120581,2.0120582 0 0 0 -1.468005,0.41273 3.0485729,3.0485729 0 0 1 0,0.309547 z"
     id="path35"
     inkscape:connector-curvature="0"
     style="fill:#c7114f;stroke-width:0.46901122" />
  <path
     class="cls-3"
     d="m 48.538263,53.024971 a 0.37051885,0.37051886 0 0 1 0.159463,-0.03283 0.40803975,0.40803976 0 0 1 0.40335,0.40335 c 0,0.567504 -1.247569,0.745728 -1.876045,0.745728 -1.30385,0 -2.049578,-0.83484 -2.049578,-1.918256 v -2.157447 c 0,-1.106866 0.741038,-1.946397 2.11524,-1.946397 1.280401,0 1.913566,0.745728 1.908876,1.876045 0,1.059966 -0.581574,1.70251 -1.955777,1.70251 a 7.368166,7.3681665 0 0 1 -1.177218,-0.107877 v 0.680066 c 0,0.647236 0.4268,1.064656 1.25695,1.064656 a 2.6264628,2.6264629 0 0 0 1.214739,-0.309548 z m -1.26164,-4.085087 c -0.750418,0 -1.186598,0.39866 -1.191289,1.045895 v 0.877051 a 11.176537,11.176537 0 0 0 1.210049,0.08442 c 0.877051,0 1.027135,-0.46901 1.027135,-0.938021 a 0.93802241,0.93802241 0 0 0 -1.055276,-1.069346 z"
     id="path37"
     inkscape:connector-curvature="0"
     style="fill:#c7114f;stroke-width:0.46901122" />
  <path
     class="cls-3"
     d="m 54.29303,48.606886 a 0.4690112,0.46901118 0 0 1 0.900502,0 v 4.038186 c 0,0.637856 0.117253,0.637856 0.206365,0.806699 a 0.4690112,0.46901118 0 0 1 0.07973,0.229816 0.41272986,0.41272988 0 0 1 -0.4268,0.403349 0.58626401,0.58626405 0 0 1 -0.497151,-0.347068 3.3534301,3.3534302 0 0 1 -1.63685,0.41273 c -1.224118,0 -1.833833,-0.881741 -1.829143,-2.185592 v -3.3675 a 0.4690112,0.46901118 0 0 1 0.900501,0 v 3.3675 c 0,0.877051 0.365828,1.374203 1.055275,1.374203 A 2.3731967,2.3731968 0 0 0 54.31648,52.964 c 0,-0.117253 0,-0.234506 0,-0.323618 z"
     id="path39"
     inkscape:connector-curvature="0"
     style="fill:#c7114f;stroke-width:0.46901122" />
  <path
     class="cls-3"
     d="m 58.598553,53.737868 a 0.4690112,0.46901118 0 0 1 -0.900501,0 v -3.897483 a 1.3319918,1.3319918 0 0 0 -0.182915,-0.806699 0.37520897,0.37520898 0 0 1 -0.07974,-0.229816 0.40803975,0.40803976 0 0 1 0.41742,-0.403349 0.57219368,0.57219372 0 0 1 0.469011,0.314237 3.3299796,3.3299796 0 0 1 1.580568,-0.492461 c 0.469011,0 0.600335,0.196984 0.600335,0.44087 a 0.43149031,0.43149032 0 0 1 -0.469012,0.469011 2.0120581,2.0120582 0 0 0 -1.463315,0.41273 c 0,0.117253 0,0.220436 0,0.314238 z"
     id="path41"
     inkscape:connector-curvature="0"
     style="fill:#c7114f;stroke-width:0.46901122" />
  <path
     class="cls-3"
     d="m 68.147621,50.731507 c -1.092796,-0.576884 -3.006361,-0.595645 -3.001671,-2.635844 0,-1.407033 0.905191,-2.246563 2.345055,-2.241873 0.576884,0 1.969848,0.140703 1.969848,0.787939 a 0.43618042,0.43618043 0 0 1 -0.469011,0.43618 c -0.356449,0 -0.656616,-0.323618 -1.439865,-0.328308 -0.783249,-0.0047 -1.444554,0.286097 -1.444554,1.289781 a 1.1490775,1.1490775 0 0 0 0.665995,1.153767 c 1.106867,0.581575 3.006362,0.605025 3.001672,2.626464 0,1.524286 -1.078726,2.396647 -2.53266,2.391957 -0.736348,0 -2.124621,-0.234506 -2.119931,-0.858291 a 0.4690112,0.46901118 0 0 1 0.41742,-0.469011 c 0.318928,0 0.816079,0.40804 1.716581,0.40804 1.027135,0 1.543047,-0.515912 1.547737,-1.407034 a 1.1537676,1.1537676 0 0 0 -0.656616,-1.153767 z"
     id="path43"
     inkscape:connector-curvature="0"
     style="fill:#c7114f;stroke-width:0.46901122" />
  <path
     class="cls-3"
     d="m 71.519812,52.147921 v -1.927637 c 0,-1.153767 0.755108,-2.049579 2.162141,-2.049579 1.407034,0 2.152762,0.905192 2.152762,2.058959 v 1.927637 c 0,1.153767 -0.755108,2.054269 -2.162142,2.049579 -1.407033,-0.0047 -2.152761,-0.905192 -2.152761,-2.058959 z m 3.414402,0 v -1.927637 a 1.2569505,1.2569505 0 0 0 -2.513901,0 v 1.937017 a 1.2569505,1.2569505 0 0 0 2.513901,0 z"
     id="path45"
     inkscape:connector-curvature="0"
     style="fill:#c7114f;stroke-width:0.46901122" />
  <path
     class="cls-3"
     d="m 77.917125,46.233689 a 0.4690112,0.46901118 0 0 1 0.46901,-0.469011 0.4690112,0.46901118 0 0 1 0.469012,0.469011 v 6.828803 a 0.67537614,0.67537619 0 0 0 0.159464,0.544053 0.37989908,0.37989909 0 0 1 0.07973,0.220436 0.41272986,0.41272988 0 0 1 -0.417419,0.41273 c -0.286097,0 -0.726968,-0.140704 -0.722278,-1.177219 z"
     id="path47"
     inkscape:connector-curvature="0"
     style="fill:#c7114f;stroke-width:0.46901122" />
  <path
     class="cls-3"
     d="m 84.464521,48.681928 a 0.4690112,0.46901118 0 0 1 0.900501,0 v 4.038186 c 0,0.633165 0.112564,0.637855 0.206366,0.8067 a 0.4690112,0.46901118 0 0 1 0.07973,0.229815 0.41741998,0.41741999 0 0 1 -0.4268,0.403349 0.58626401,0.58626405 0 0 1 -0.492462,-0.347068 3.3862609,3.386261 0 0 1 -1.641538,0.41273 c -1.22412,0 -1.833834,-0.881741 -1.829144,-2.185593 v -3.367499 a 0.4690112,0.46901118 0 0 1 0.900501,0 v 3.367499 c 0,0.877052 0.365829,1.374203 1.055275,1.374203 a 2.3450561,2.3450562 0 0 0 1.271021,-0.379899 3.0860938,3.0860938 0 0 1 0,-0.323617 z"
     id="path49"
     inkscape:connector-curvature="0"
     style="fill:#c7114f;stroke-width:0.46901122" />
  <path
     class="cls-3"
     d="m 87.846092,46.984107 a 0.4690112,0.46901118 0 0 1 0.895811,0 v 1.594639 h 1.200669 a 0.4268002,0.42680022 0 0 1 0,0.8536 h -1.200669 v 2.293465 c 0,1.186598 0.112563,1.627468 0.938023,1.627468 h 0.215745 c 0.262646,0 0.600334,0.0469 0.600334,0.41742 0,0.370519 -0.332998,0.436181 -0.661306,0.436181 -1.613398,0 -2.002678,-0.80201 -2.002678,-2.391957 z"
     id="path51"
     inkscape:connector-curvature="0"
     style="fill:#c7114f;stroke-width:0.46901122" />
  <path
     class="cls-3"
     d="m 92.761329,47.007557 a 0.55343322,0.55343327 0 0 1 -0.553433,-0.553432 0.5534335,0.55343355 0 0 1 1.106867,0 0.55343322,0.55343327 0 0 1 -0.553434,0.553432 z m 0,7.246224 a 0.44087053,0.44087055 0 0 1 -0.469011,-0.469012 v -5.088771 a 0.4690112,0.46901118 0 1 1 0.900501,0 v 5.088771 a 0.44087053,0.44087055 0 0 1 -0.45025,0.469012 z"
     id="path53"
     inkscape:connector-curvature="0"
     style="fill:#c7114f;stroke-width:0.46901122" />
  <path
     class="cls-3"
     d="m 95.401863,52.204202 v -1.927637 c 0,-1.153767 0.755108,-2.049578 2.162141,-2.049578 1.407034,0 2.157452,0.905191 2.152762,2.058958 v 1.927637 c 0,1.153767 -0.755108,2.049579 -2.162142,2.049579 -1.407034,0 -2.157451,-0.905192 -2.152761,-2.058959 z m 3.414401,0 v -1.937017 a 1.2569501,1.2569501 0 0 0 -2.5139,0 v 1.937017 a 1.2569501,1.2569501 0 0 0 2.5139,0 z"
     id="path55"
     inkscape:connector-curvature="0"
     style="fill:#c7114f;stroke-width:0.46901122" />
  <path
     class="cls-3"
     d="m 102.73251,53.826981 a 0.4690112,0.46901118 0 0 1 -0.9005,0 v -3.920935 c 0,-0.633164 -0.10319,-0.633164 -0.21106,-0.806698 a 0.4690112,0.46901118 0 0 1 -0.0798,-0.229816 0.40334964,0.40334965 0 0 1 0.42681,-0.40335 0.59564423,0.59564428 0 0 1 0.46901,0.337688 2.846898,2.846898 0 0 1 1.65091,-0.515912 c 1.22413,0 1.83384,0.881741 1.82915,2.185592 v 3.367501 a 0.4690112,0.46901118 0 0 1 -0.89581,0 V 50.45479 c 0,-0.877051 -0.36583,-1.374203 -1.05996,-1.374203 a 2.1433812,2.1433813 0 0 0 -1.28041,0.469011 1.7822426,1.7822427 0 0 1 0.0329,0.332998 z"
     id="path57"
     inkscape:connector-curvature="0"
     style="fill:#c7114f;stroke-width:0.46901122" />
  <path
     class="cls-3"
     d="m 110.02094,48.273888 c 0.60034,0 1.53367,0.164154 1.53367,0.647236 a 0.41272986,0.41272988 0 0 1 -0.41273,0.412729 0.43618042,0.43618043 0 0 1 -0.21105,-0.05629 1.7775524,1.7775525 0 0 0 -0.87706,-0.211055 c -0.70351,0 -1.02714,0.272027 -1.03183,0.802009 0,0.356448 0.15009,0.544053 0.53937,0.741037 0.79732,0.393971 2.14338,0.501843 2.13869,2.002678 0,1.036515 -0.65661,1.683751 -1.94171,1.679061 -0.58626,0 -1.69782,-0.140704 -1.69313,-0.670686 a 0.41741998,0.41741999 0 0 1 0.4315,-0.41273 0.24388582,0.24388583 0 0 1 0.11725,0.02345 3.0720234,3.0720235 0 0 0 1.15377,0.267337 c 0.63785,0 1.05996,-0.253266 1.06465,-0.848911 a 0.72227726,0.72227731 0 0 0 -0.42211,-0.717587 c -0.72697,-0.393969 -2.26064,-0.469011 -2.25595,-2.002678 0,-0.994303 0.64724,-1.660299 1.86667,-1.655609 z"
     id="path59"
     inkscape:connector-curvature="0"
     style="fill:#c7114f;stroke-width:0.46901122" />
  <path
     class="cls-3"
     d="m 119.21356,52.734184 1.96515,-6.406693 a 0.50184199,0.50184199 0 0 1 0.46902,-0.342378 0.4690112,0.46901118 0 0 1 0.46901,0.469012 0.89112129,0.89112134 0 0 1 -0.0234,0.173533 l -2.26532,7.11021 c -0.11725,0.356449 -0.26734,0.609715 -0.60971,0.609715 -0.34239,0 -0.49716,-0.267337 -0.60034,-0.614405 l -2.23249,-7.11959 a 0.8160795,0.81607954 0 0 1 0,-0.173533 0.4690112,0.46901118 0 0 1 0.46901,-0.469012 0.51591233,0.51591233 0 0 1 0.44086,0.347068 z"
     id="path61"
     inkscape:connector-curvature="0"
     style="fill:#c7114f;stroke-width:0.46901122" />
  <path
     class="cls-3"
     d="m 124.40552,47.087289 a 0.55343322,0.55343327 0 0 1 -0.54875,-0.558123 0.553435,0.55343505 0 1 1 1.10687,0 0.55343322,0.55343327 0 0 1 -0.55812,0.558123 z m 0,7.246224 a 0.4690112,0.46901118 0 0 1 -0.46901,-0.469011 V 48.77573 a 0.4690112,0.46901118 0 1 1 0.9005,0 v 5.088772 a 0.44087053,0.44087055 0 0 1 -0.45025,0.464321 z"
     id="path63"
     inkscape:connector-curvature="0"
     style="fill:#c7114f;stroke-width:0.46901122" />
  <path
     class="cls-3"
     d="m 130.39948,53.221956 a 0.37989908,0.37989909 0 0 1 0.16415,-0.03283 0.40803975,0.40803976 0 0 1 0.40335,0.403349 c 0,0.562813 -1.24757,0.745728 -1.87605,0.745728 -1.30384,0 -2.04957,-0.83484 -2.04957,-1.918256 v -2.157452 c 0,-1.106866 0.74104,-1.946396 2.11524,-1.941706 1.2804,0 1.91357,0.741038 1.90888,1.876045 0,1.059965 -0.58158,1.70251 -1.9511,1.70251 a 7.3353352,7.3353357 0 0 1 -1.17721,-0.107872 v 0.680066 c 0,0.647236 0.42211,1.064656 1.25695,1.064656 a 2.6264628,2.6264629 0 0 0 1.20536,-0.314238 z m -1.26165,-4.085088 c -0.75041,0 -1.18659,0.40335 -1.18659,1.045895 v 0.877052 a 11.148397,11.148397 0 0 0 1.21004,0.08442 c 0.87706,0 1.02714,-0.469011 1.02714,-0.938023 a 0.93802241,0.93802241 0 0 0 -1.05059,-1.069346 z"
     id="path65"
     inkscape:connector-curvature="0"
     style="fill:#c7114f;stroke-width:0.46901122" />
  <path
     class="cls-3"
     d="m 74.573075,39.667532 q -2.040199,-4.404015 -3.930315,-9.216075 -1.890114,-4.81205 -3.522274,-9.624105 h 3.780231 q 0.651926,1.908876 1.336682,3.888103 0.684756,1.979227 1.360133,3.902173 0.680066,1.913562 1.364822,3.709878 0.684757,1.796314 1.331991,3.28308 0.628476,-1.491456 1.308542,-3.28308 0.680066,-1.791626 1.374203,-3.709878 0.694137,-1.932326 1.378893,-3.916243 0.684756,-1.983918 1.308541,-3.888103 h 3.672358 q -1.66499,4.812054 -3.545725,9.624105 -1.880734,4.81206 -3.935004,9.230145 z"
     id="path67"
     inkscape:connector-curvature="0"
     style="fill:#c7114f;stroke-width:0.46901122" />
  <path
     class="cls-3"
     d="m 104.2521,30.240402 a 11.692449,11.692449 0 0 1 -0.72228,4.268007 8.8080304,8.8080309 0 0 1 -1.95577,3.086093 8.0669927,8.0669932 0 0 1 -2.893799,1.876046 9.9289672,9.9289672 0 0 1 -3.531655,0.623785 10.050911,10.050911 0 0 1 -3.550414,-0.623785 8.0341619,8.0341624 0 0 1 -2.90787,-1.876046 8.9815646,8.9815646 0 0 1 -1.969847,-3.086093 12.733654,12.733654 0 0 1 0,-8.521934 8.9628042,8.9628042 0 0 1 1.997988,-3.086093 8.2264566,8.226457 0 0 1 2.92194,-1.876046 10.130642,10.130642 0 0 1 7.035168,0 7.9731905,7.973191 0 0 1 2.893799,1.876046 9.1504086,9.1504086 0 0 1 1.96985,3.086093 11.396972,11.396972 0 0 1 0.71289,4.253927 z m -14.708188,0 a 9.7038419,9.7038419 0 0 0 0.379899,2.814072 6.1768775,6.176878 0 0 0 1.102177,2.148072 4.980899,4.980899 0 0 0 1.754101,1.374203 5.3936288,5.3936294 0 0 0 2.345057,0.469011 5.3373476,5.3373476 0 0 0 2.312226,-0.469011 4.9621386,4.9621386 0 0 0 1.754101,-1.374203 6.195638,6.1956385 0 0 0 1.102177,-2.148072 10.623104,10.623104 0 0 0 0,-5.628135 6.2003281,6.2003286 0 0 0 -1.102177,-2.148071 4.980899,4.980899 0 0 0 -1.754101,-1.369513 5.3373476,5.3373476 0 0 0 -2.312226,-0.469011 5.3936288,5.3936294 0 0 0 -2.345057,0.469011 4.9105473,4.9105473 0 0 0 -1.754101,1.407034 6.3269612,6.3269616 0 0 0 -1.102177,2.143382 9.5725187,9.5725187 0 0 0 -0.375209,2.781231 z"
     id="path69"
     inkscape:connector-curvature="0"
     style="fill:#c7114f;stroke-width:0.46901122" />
  <path
     class="cls-3"
     d="m 121.57738,20.644437 q 4.0757,0 6.23784,1.496147 2.16215,1.496145 2.16215,4.568168 0,3.836508 -3.78023,5.191954 0.51591,0.628476 1.16783,1.519597 0.65193,0.891121 1.332,1.946396 0.68006,1.045895 1.30385,2.148072 0.62378,1.102176 1.11156,2.162141 h -3.82714 q -0.51591,-0.975542 -1.11624,-1.969846 -0.60033,-0.994304 -1.21006,-1.927637 c -0.40803,-0.628475 -0.81138,-1.214738 -1.21004,-1.768172 -0.39866,-0.553433 -0.76918,-1.050585 -1.11625,-1.482075 q -0.3799,0.02814 -0.65192,0.02814 h -2.15276 v 7.11021 h -3.42378 V 21.104069 a 18.558774,18.558775 0 0 1 2.66398,-0.365829 c 0.92395,-0.06566 1.76348,-0.0938 2.50921,-0.0938 z m 0.24388,2.964152 q -1.08811,0 -2.01205,0.07974 v 6.097141 h 1.49614 a 15.946381,15.946382 0 0 0 2.19966,-0.136014 4.690112,4.6901118 0 0 0 1.58995,-0.469011 2.4060275,2.4060276 0 0 0 0.96148,-0.938018 3.1517554,3.1517554 0 0 0 0.3283,-1.519597 3.0298124,3.0298125 0 0 0 -0.3283,-1.468004 2.4154077,2.4154079 0 0 0 -0.93802,-0.938022 4.4133954,4.4133956 0 0 0 -1.45864,-0.501843 10.379218,10.379218 0 0 0 -1.83852,-0.211054 z"
     id="path71"
     inkscape:connector-curvature="0"
     style="fill:#c7114f;stroke-width:0.46901122" />
  <path
     class="cls-3"
     d="m 108.0042,20.832042 h 3.42378 v 18.83549 h -3.42378 z"
     id="path73"
     inkscape:connector-curvature="0"
     style="fill:#c7114f;stroke-width:0.46901122" />
  <rect
     class="cls-3"
     x="108.0042"
     y="15.466549"
     width="3.4237819"
     height="2.4904494"
     id="rect75"
     style="fill:#c7114f;stroke-width:0.46901122" />
  <path
     class="cls-4"
     d="m 21.218361,20.644437 q 4.103847,0 6.294129,1.496147 2.190284,1.496145 2.185593,4.690112 a 6.3551019,6.3551023 0 0 1 -0.586264,2.842203 4.8824067,4.8824067 0 0 1 -1.67906,1.908876 7.8887685,7.888769 0 0 1 -2.715575,1.10218 17.236162,17.236163 0 0 1 -3.672358,0.351758 h -1.730651 v 6.631819 H 15.890393 V 21.104069 a 17.198641,17.198642 0 0 1 2.631153,-0.365829 q 1.477385,-0.09849 2.696815,-0.0938 z m 0.243885,2.964152 q -1.303851,0 -2.148071,0.07974 v 6.411378 h 1.6603 q 2.471689,0 3.808371,-0.694137 1.336681,-0.694132 1.331991,-2.621767 A 3.1189246,3.1189246 0 0 0 25.763079,25.236061 2.5326605,2.5326606 0 0 0 24.782846,24.255828 4.5681692,4.5681693 0 0 0 23.30077,23.753986 10.45895,10.45895 0 0 0 21.462246,23.603903 Z"
     id="path77"
     inkscape:connector-curvature="0"
     style="fill:#f39200;stroke-width:0.46901122" />
  <path
     class="cls-4"
     d="m 37.96206,20.644437 q 4.075708,0 6.23785,1.496147 2.162141,1.496145 2.162141,4.568168 0,3.836508 -3.77554,5.191954 0.515913,0.628476 1.167838,1.519597 0.651925,0.891121 1.331991,1.946396 0.680067,1.045895 1.303852,2.148072 0.623784,1.102176 1.116246,2.152761 h -3.831821 q -0.515912,-0.975543 -1.111557,-1.969847 -0.595644,-0.994303 -1.210048,-1.927636 -0.609715,-0.938022 -1.21005,-1.768172 -0.600333,-0.83015 -1.116246,-1.482076 c -0.253266,0 -0.469011,0.02814 -0.651926,0.02814 h -2.176212 v 7.11959 H 32.774796 V 21.104069 A 18.572844,18.572845 0 0 1 35.43878,20.73824 q 1.411724,-0.09849 2.52328,-0.0938 z m 0.243887,2.964152 c -0.726968,0 -1.407034,0.02814 -2.012059,0.07974 v 6.097141 h 1.496146 a 15.946381,15.946382 0 0 0 2.199663,-0.136014 4.690112,4.6901118 0 0 0 1.589948,-0.469011 2.3872671,2.3872672 0 0 0 0.966163,-0.938018 3.1611355,3.1611355 0 0 0 0.328308,-1.519597 3.0391926,3.0391927 0 0 0 -0.328308,-1.468004 2.4247879,2.424788 0 0 0 -0.938023,-0.938022 4.4133954,4.4133956 0 0 0 -1.453935,-0.501843 10.407359,10.407359 0 0 0 -1.833833,-0.211054 z"
     id="path79"
     inkscape:connector-curvature="0"
     style="fill:#f39200;stroke-width:0.46901122" />
  <path
     class="cls-4"
     d="m 52.098058,19.120151 c -0.318928,0 -0.515913,0 -0.553434,0 l 0.229816,-2.466999 a 10.852919,10.852919 0 0 0 8.174865,-3.433162 l 1.786933,1.711891 a 13.601325,13.601325 0 0 1 -9.63818,4.18827 z"
     id="path81"
     inkscape:connector-curvature="0"
     style="fill:#f39200;stroke-width:0.46901122" />
  <path
     class="cls-4"
     d="m 65.521159,32.85749 a 8.0576125,8.057613 0 0 1 -7.161801,4.2211 c -3.414402,0 -4.666662,-2.893798 -4.96214,-3.639526 3.100165,-0.225126 9.258282,-1.21474 13.066653,-5.754768 -0.520602,-2.471689 -2.345056,-7.161801 -8.231147,-7.269673 a 8.3296391,8.3296395 0 0 0 -3.212726,0.623784 8.6110458,8.6110462 0 0 0 -2.91256,1.847905 9.3802241,9.3802241 0 0 0 -2.049579,3.109543 11.912885,11.912885 0 0 0 -0.736347,4.37118 12.757105,12.757105 0 0 0 0.576884,3.925629 9.2770417,9.2770417 0 0 0 2.007367,3.151755 8.7376787,8.7376792 0 0 0 6.481735,2.631153 c 4.633831,0 7.354096,-2.579562 8.507864,-4.57755 z m -7.415067,-9.380225 c 2.663983,-0.07035 4.2211,2.574872 4.357113,3.3206 -3.245557,2.593627 -7.307195,3.034498 -9.577208,3.165821 0.0047,0.01876 -0.39397,-6.317576 5.220095,-6.472351 z"
     id="path83"
     inkscape:connector-curvature="0"
     style="fill:#f39200;stroke-width:0.46901122" />
</svg>
