<svg width="333" height="300" viewBox="0 0 333 300" fill="none" xmlns="http://www.w3.org/2000/svg">
<g filter="url(#filter0_d_36_55)">
<path d="M313.412 13.0435H19.5883V273.913H313.412V13.0435Z" fill="white"/>
</g>
<g clip-path="url(#clip0_36_55)">
<path d="M136.297 122.355C136.297 137.896 136.306 161.247 107.131 161.247C81.4892 161.247 81.4892 131.291 81.4892 119.226V75.4665H52.9258L52 78.8156C61.0965 79.6974 66.0991 80.6132 66.0991 90.3554V121.481C66.0991 144.459 68.9274 165.614 106.953 165.614C144.978 165.614 146.702 141.161 146.702 120.82C146.702 120.82 146.685 84.6237 146.702 84.293C147.143 79.0107 150.694 79.3668 156.393 78.8156L155.467 75.4665H136.289V122.355" fill="#534731"/>
<path d="M222.896 66.5467C217.919 61.5611 210.207 58 198.614 58C172.564 58 164.258 72.2954 164.258 99.9535V149.394C164.258 159.289 159.136 159.458 149.25 160.747L148.349 164.028H178.255V108.738H199.251V100.581H178.255V95.8836C178.255 72.2191 183.954 61.807 199.319 61.807C207.804 61.807 214.768 65.5208 219.227 72.3463C220.068 70.5911 221.011 68.9886 222.081 67.5472C222.336 67.1996 222.608 66.8774 222.879 66.5467H222.896Z" fill="#7A6A58"/>
<path d="M250.95 61.807C261.813 61.807 269.763 67.9542 273.56 78.8156H280.991C278.231 68.5732 270.222 58 250.237 58C224.187 58 216.331 72.2954 216.331 99.9535V149.394C216.331 159.289 211.209 159.458 201.323 160.747L200.423 164.028H230.328V108.738H245.897V100.581H230.328V95.8836C230.328 72.2191 235.577 61.807 250.942 61.807H250.95Z" fill="#ED765E"/>
<path d="M158.729 177.289C157.837 176.874 156.503 176.577 155.127 176.577C151.509 176.577 149.972 178.18 149.972 183.097C149.972 188.363 151.526 190.008 155.195 190.008C156.597 190.008 157.786 189.685 158.796 189.185L159.094 191.152C158.015 191.703 156.41 192.161 154.898 192.161C149.81 192.161 147.492 189.346 147.492 183.097C147.492 177.196 149.827 174.373 155.008 174.373C156.427 174.373 158.083 174.737 159.017 175.178L158.72 177.281L158.729 177.289Z" fill="#7A6A58"/>
<path d="M167.307 192.144C163.179 192.144 161.344 190.126 161.344 185.073C161.344 180.019 163.205 177.976 167.307 177.976C171.409 177.976 173.176 180.011 173.176 185.073C173.176 190.135 171.409 192.144 167.307 192.144ZM167.307 190.313C169.94 190.313 170.951 188.965 170.951 185.073C170.951 181.181 169.94 179.833 167.307 179.833C164.674 179.833 163.595 181.164 163.595 185.073C163.595 188.982 164.623 190.313 167.307 190.313Z" fill="#7A6A58"/>
<path d="M184.914 191.847V182.834C184.914 180.816 183.835 179.969 181.822 179.969C180.65 179.969 179.274 180.52 178.637 181.503V191.847H176.463V178.256L178.026 178.146L178.391 179.587H178.459C179.402 178.561 180.888 177.959 182.425 177.959C185.313 177.959 187.08 179.587 187.08 182.834V191.847H184.914Z" fill="#7A6A58"/>
<path d="M194.392 192.119C192.762 192.119 191.25 191.729 190.197 190.974L190.468 189.1C191.496 189.88 193.059 190.287 194.367 190.287C196.363 190.287 197.187 189.329 197.187 188.049C197.187 184.963 190.197 186.404 190.197 181.8C190.197 179.485 191.827 177.976 194.962 177.976C196.295 177.976 197.552 178.247 198.656 178.756L198.469 180.588C197.323 180.104 196.015 179.858 194.919 179.858C193.288 179.858 192.261 180.571 192.261 181.69C192.261 184.598 199.208 183.089 199.208 187.845C199.208 190.406 197.764 192.127 194.392 192.127V192.119Z" fill="#7A6A58"/>
<path d="M201.697 184.657C201.697 180.376 203.574 177.976 207.336 177.976C210.589 177.976 212.721 179.901 212.721 184.267C212.721 184.615 212.696 185.022 212.679 185.319H203.922C204.032 188.914 205.366 190.152 208.305 190.152C209.681 190.152 210.853 189.855 212.016 189.278L212.271 191.11C211.125 191.729 209.706 192.119 208.05 192.119C203.557 192.119 201.697 189.762 201.697 184.657ZM210.734 183.835C210.691 180.952 209.332 179.85 207.362 179.85C205.043 179.85 204.016 181.13 203.88 183.835H210.734Z" fill="#7A6A58"/>
<path d="M217.265 175.916C216.323 175.916 215.864 175.619 215.864 174.746C215.864 173.991 216.323 173.576 217.265 173.576C218.208 173.576 218.667 173.991 218.667 174.746C218.667 175.551 218.208 175.916 217.265 175.916ZM216.17 191.847V178.273L218.344 178.163V191.847H216.17Z" fill="#7A6A58"/>
<path d="M222.701 191.847V173.787L224.875 173.652V191.847H222.701Z" fill="#7A6A58"/>
<path d="M236.231 184.657C236.231 180.376 238.108 177.976 241.871 177.976C245.124 177.976 247.256 179.901 247.256 184.267C247.256 184.615 247.23 185.022 247.213 185.319H238.456C238.567 188.914 239.9 190.152 242.839 190.152C244.215 190.152 245.387 189.855 246.551 189.278L246.805 191.11C245.659 191.729 244.24 192.119 242.584 192.119C238.091 192.119 236.231 189.762 236.231 184.657ZM245.268 183.835C245.226 180.952 243.867 179.85 241.896 179.85C239.578 179.85 238.55 181.13 238.414 183.835H245.268Z" fill="#7A6A58"/>
<path d="M258.9 191.847V182.834C258.9 180.816 257.821 179.969 255.808 179.969C254.636 179.969 253.26 180.52 252.623 181.503V191.847H250.449V178.256L252.012 178.146L252.377 179.587H252.445C253.388 178.561 254.874 177.959 256.412 177.959C259.299 177.959 261.066 179.587 261.066 182.834V191.847H258.9Z" fill="#7A6A58"/>
<path d="M160.24 216.106C159 216.699 157.123 217.089 155.246 217.089C149.81 217.089 147.5 214.367 147.5 208.229C147.5 202.09 149.904 199.3 155.323 199.3C156.928 199.3 158.669 199.64 159.884 200.148L159.612 202.251C158.423 201.751 156.996 201.446 155.442 201.446C151.611 201.446 149.989 203.006 149.989 208.195C149.989 213.384 151.433 214.876 155.195 214.876C156.367 214.876 157.327 214.715 158.176 214.393V207.661H160.266V216.08L160.24 216.106Z" fill="#7A6A58"/>
<path d="M163.171 209.585C163.171 205.303 165.048 202.904 168.81 202.904C172.063 202.904 174.195 204.829 174.195 209.195C174.195 209.543 174.17 209.95 174.153 210.247H165.396C165.506 213.842 166.84 215.08 169.778 215.08C171.154 215.08 172.326 214.783 173.49 214.206L173.745 216.038C172.598 216.657 171.18 217.047 169.524 217.047C165.031 217.047 163.171 214.69 163.171 209.585ZM172.199 208.763C172.157 205.88 170.798 204.778 168.827 204.778C166.509 204.778 165.481 206.058 165.345 208.763H172.199Z" fill="#7A6A58"/>
<path d="M181.041 217.047C179.41 217.047 177.898 216.657 176.845 215.902L177.117 214.028C178.145 214.808 179.707 215.215 181.015 215.215C183.011 215.215 183.835 214.257 183.835 212.968C183.835 209.882 176.845 211.323 176.845 206.719C176.845 204.405 178.476 202.895 181.61 202.895C182.943 202.895 184.2 203.167 185.304 203.675L185.118 205.507C183.971 205.024 182.663 204.778 181.567 204.778C179.937 204.778 178.909 205.49 178.909 206.609C178.909 209.517 185.857 208.008 185.857 212.765C185.857 215.325 184.413 217.047 181.041 217.047Z" fill="#7A6A58"/>
<path d="M192.057 204.829V213.206C192.057 214.622 192.813 215.198 194.053 215.198C194.443 215.198 194.928 215.13 195.199 215.012L195.335 216.657C194.919 216.86 194.163 216.996 193.433 216.996C191.097 216.996 189.882 215.69 189.882 213.265V204.82H187.98V203.124H189.95L190.367 199.733L192.065 199.546V203.116H195.437V204.812H192.065L192.057 204.829Z" fill="#7A6A58"/>
<path d="M199.641 200.844C198.699 200.844 198.24 200.547 198.24 199.673C198.24 198.919 198.699 198.503 199.641 198.503C200.584 198.503 201.043 198.919 201.043 199.673C201.043 200.479 200.584 200.844 199.641 200.844ZM198.546 216.775V203.201L200.72 203.09V216.775H198.546Z" fill="#7A6A58"/>
<path d="M210.182 217.072C206.054 217.072 204.219 215.054 204.219 210.001C204.219 204.947 206.079 202.904 210.182 202.904C214.284 202.904 216.051 204.939 216.051 210.001C216.051 215.063 214.284 217.072 210.182 217.072ZM210.182 215.241C212.815 215.241 213.825 213.893 213.825 210.001C213.825 206.109 212.815 204.761 210.182 204.761C207.549 204.761 206.47 206.092 206.47 210.001C206.47 213.909 207.498 215.241 210.182 215.241Z" fill="#7A6A58"/>
<path d="M227.797 216.775V207.754C227.797 205.736 226.718 204.896 224.706 204.896C223.533 204.896 222.157 205.448 221.52 206.431V216.775H219.346V203.184L220.909 203.074L221.274 204.515H221.342C222.285 203.489 223.771 202.887 225.309 202.887C228.196 202.887 229.963 204.515 229.963 207.762V216.784H227.806L227.797 216.775Z" fill="#7A6A58"/>
<path d="M250.288 216.775L250.016 215.359L249.948 215.334C249.099 216.453 247.748 217.047 245.914 217.047C242.219 217.047 240.665 214.8 240.665 209.933C240.665 205.312 242.295 202.887 245.939 202.887C247.451 202.887 248.827 203.413 249.787 204.422L249.829 204.396L249.787 202.565V198.724L251.961 198.588V216.784H250.288V216.775ZM249.787 206.448C249.218 205.507 247.995 204.888 246.534 204.888C243.875 204.888 242.915 206.304 242.915 210.018C242.915 213.731 243.79 215.232 246.517 215.232C248.419 215.232 249.404 214.291 249.795 213.562V206.448H249.787Z" fill="#7A6A58"/>
<path d="M255.214 209.585C255.214 205.303 257.091 202.904 260.854 202.904C264.107 202.904 266.238 204.829 266.238 209.195C266.238 209.543 266.213 209.95 266.196 210.247H257.439C257.55 213.842 258.883 215.08 261.822 215.08C263.198 215.08 264.37 214.783 265.533 214.206L265.788 216.038C264.642 216.657 263.223 217.047 261.567 217.047C257.074 217.047 255.214 214.69 255.214 209.585ZM264.242 208.763C264.2 205.88 262.841 204.778 260.871 204.778C258.552 204.778 257.524 206.058 257.388 208.763H264.242Z" fill="#7A6A58"/>
<path d="M154.057 235.268H150.685V241.695H148.35V224.525H154.057C158.278 224.525 160.062 226.17 160.062 229.901C160.062 233.428 158.321 235.259 154.057 235.259V235.268ZM154.057 226.568H150.685V233.301H154.057C156.486 233.301 157.658 232.546 157.658 229.909C157.658 227.416 156.554 226.568 154.057 226.568Z" fill="#7A6A58"/>
<path d="M170.73 240.033L170.662 240.007C169.855 241.178 168.369 241.907 166.602 241.907C164.105 241.907 162.406 240.601 162.406 237.532C162.406 234.971 164.054 233.394 167.315 233.394C168.487 233.394 169.609 233.623 170.458 233.92V232.571C170.458 230.418 169.498 229.663 167.273 229.663C165.829 229.663 164.657 229.918 163.442 230.486L163.239 228.68C164.547 228.086 166.016 227.789 167.638 227.789C171.239 227.789 172.59 229.299 172.59 232.894V241.703H170.942L170.738 240.033H170.73ZM170.432 235.471C170.093 235.268 169.082 234.971 167.706 234.971C165.438 234.971 164.453 235.887 164.453 237.515C164.453 239.456 165.625 240.126 167.205 240.126C168.904 240.126 170.441 238.982 170.441 237.837V235.48L170.432 235.471Z" fill="#7A6A58"/>
<path d="M179.181 229.757V238.134C179.181 239.55 179.937 240.126 181.177 240.126C181.567 240.126 182.051 240.058 182.323 239.94L182.459 241.585C182.043 241.788 181.287 241.932 180.557 241.932C178.221 241.932 177.006 240.626 177.006 238.201V229.757H175.104V228.061H177.074L177.491 224.669L179.189 224.491V228.061H182.561V229.757H179.181Z" fill="#7A6A58"/>
<path d="M185.389 228.154L187.131 228.044L187.317 230.977H187.36C188.209 229.01 189.696 227.866 191.556 227.866C192.057 227.866 192.541 227.934 192.906 228.052L192.77 230.248C192.354 230.113 191.895 230.062 191.42 230.062C189.288 230.062 187.564 231.868 187.564 234.801V241.712H185.389V228.154Z" fill="#7A6A58"/>
<path d="M197.127 225.771C196.185 225.771 195.726 225.475 195.726 224.601C195.726 223.847 196.185 223.431 197.127 223.431C198.07 223.431 198.529 223.847 198.529 224.601C198.529 225.398 198.07 225.771 197.127 225.771ZM196.032 241.703V228.129L198.206 228.018V241.703H196.032Z" fill="#7A6A58"/>
<path d="M217.792 232.639C217.792 230.715 216.713 229.85 214.947 229.85C213.477 229.85 212.237 230.698 212.237 232.41V241.703H210.08V232.41C210.08 230.554 208.908 229.824 207.396 229.824C206.249 229.824 205.077 230.443 204.534 231.359V241.703H202.359V228.112L203.922 228.001L204.313 229.468H204.381C205.205 228.459 206.538 227.866 207.914 227.866C209.749 227.866 210.963 228.553 211.609 229.952H211.651C212.433 228.536 213.825 227.849 215.499 227.849C218.132 227.849 219.949 229.4 219.949 232.631V241.72H217.792V232.639Z" fill="#7A6A58"/>
<path d="M229.071 242C224.943 242 223.109 239.982 223.109 234.929C223.109 229.875 224.969 227.832 229.071 227.832C233.173 227.832 234.94 229.867 234.94 234.929C234.94 239.991 233.173 242 229.071 242ZM229.071 240.169C231.704 240.169 232.715 238.82 232.715 234.929C232.715 231.037 231.704 229.689 229.071 229.689C226.438 229.689 225.36 231.02 225.36 234.929C225.36 238.837 226.387 240.169 229.071 240.169Z" fill="#7A6A58"/>
<path d="M239.561 225.771C238.618 225.771 238.159 225.475 238.159 224.601C238.159 223.847 238.618 223.431 239.561 223.431C240.503 223.431 240.962 223.847 240.962 224.601C240.962 225.398 240.503 225.771 239.561 225.771ZM238.465 241.703V228.129L240.639 228.018V241.703H238.465Z" fill="#7A6A58"/>
<path d="M253.26 241.703V232.682C253.26 230.664 252.182 229.824 250.169 229.824C248.997 229.824 247.621 230.375 246.984 231.359V241.703H244.809V228.112L246.372 228.001L246.737 229.443H246.805C247.748 228.417 249.235 227.815 250.772 227.815C253.66 227.815 255.426 229.443 255.426 232.69V241.712H253.269L253.26 241.703Z" fill="#7A6A58"/>
<path d="M258.501 234.513C258.501 230.231 260.378 227.832 264.141 227.832C267.394 227.832 269.525 229.757 269.525 234.123C269.525 234.462 269.5 234.878 269.483 235.175H260.726C260.837 238.77 262.17 240.007 265.109 240.007C266.485 240.007 267.657 239.711 268.82 239.134L269.075 240.966C267.929 241.585 266.51 241.975 264.854 241.975C260.361 241.975 258.501 239.617 258.501 234.513ZM267.538 233.691C267.495 230.808 266.137 229.706 264.166 229.706C261.847 229.706 260.82 230.986 260.684 233.691H267.538Z" fill="#7A6A58"/>
</g>
<defs>
<filter id="filter0_d_36_55" x="13.5883" y="10.0435" width="305.823" height="272.87" filterUnits="userSpaceOnUse" color-interpolation-filters="sRGB">
<feFlood flood-opacity="0" result="BackgroundImageFix"/>
<feColorMatrix in="SourceAlpha" type="matrix" values="0 0 0 0 0 0 0 0 0 0 0 0 0 0 0 0 0 0 127 0" result="hardAlpha"/>
<feOffset dy="3"/>
<feGaussianBlur stdDeviation="3"/>
<feColorMatrix type="matrix" values="0 0 0 0 0 0 0 0 0 0 0 0 0 0 0 0 0 0 0.161 0"/>
<feBlend mode="normal" in2="BackgroundImageFix" result="effect1_dropShadow_36_55"/>
<feBlend mode="normal" in="SourceGraphic" in2="effect1_dropShadow_36_55" result="shape"/>
</filter>
<clipPath id="clip0_36_55">
<rect width="229" height="184" fill="white" transform="translate(52 58)"/>
</clipPath>
</defs>
</svg>
