<svg fill="currentColor" viewBox="0 0 96 96" xmlns="http://www.w3.org/2000/svg"><g transform="translate(-529 -132)"><path d="M605 164.809C604.341 164.934 603.671 164.997 603 165L603 179 578 179 578 164.949C577.67 164.979 577.338 165 577 165 576.662 165 576.33 164.979 576 164.949L576 179 551 179 551 165C550.329 164.997 549.659 164.934 549 164.809L549 181 576 181 576 195.051C576.33 195.021 576.662 195 577 195 577.338 195 577.67 195.021 578 195.051L578 181 605 181Z"/><path d="M551 148C554.314 148 557 150.686 557 154 557 157.314 554.314 160 551 160 547.686 160 545 157.314 545 154 545.004 150.688 547.688 148.004 551 148M551 146C546.582 146 543 149.582 543 154 543 158.418 546.582 162 551 162 555.418 162 559 158.418 559 154 559 149.582 555.418 146 551 146Z"/><path d="M577 148C580.314 148 583 150.686 583 154 583 157.314 580.314 160 577 160 573.686 160 571 157.314 571 154 571.004 150.688 573.688 148.004 577 148M577 146C572.582 146 569 149.582 569 154 569 158.418 572.582 162 577 162 581.418 162 585 158.418 585 154 585 149.582 581.418 146 577 146Z"/><path d="M603 148C606.314 148 609 150.686 609 154 609 157.314 606.314 160 603 160 599.686 160 597 157.314 597 154 597.004 150.688 599.688 148.004 603 148M603 146C598.582 146 595 149.582 595 154 595 158.418 598.582 162 603 162 607.418 162 611 158.418 611 154 611 149.582 607.418 146 603 146Z"/><path d="M577 200C580.314 200 583 202.686 583 206 583 209.314 580.314 212 577 212 573.686 212 571 209.314 571 206 571.004 202.688 573.688 200.004 577 200M577 198C572.582 198 569 201.582 569 206 569 210.418 572.582 214 577 214 581.418 214 585 210.418 585 206 585 201.582 581.418 198 577 198Z"/></g></svg>
