<svg fill="currentColor" viewBox="0 0 96 96" xmlns="http://www.w3.org/2000/svg"><g transform="translate(-379 -274)"><path d="M391.067 287 391.067 355 461.067 355 461.067 287ZM459.067 320 427.067 320 427.067 289 459.067 289ZM425.067 289 425.067 320 393.067 320 393.067 289ZM393.067 322 425.067 322 425.067 353 393.067 353ZM427.067 353 427.067 322 459.067 322 459.067 353Z"/><path d="M408.067 313 410.067 313 410.067 305 418.067 305 418.067 303 410.067 303 410.067 295 408.067 295 408.067 303 400.067 303 400.067 305 408.067 305 408.067 313Z"/><path d="M434.067 303 452.067 303 452.067 305 434.067 305Z"/><path d="M416.774 330.707 415.36 329.293 409.067 335.586 402.774 329.293 401.36 330.707 407.653 337 401.36 343.293 402.774 344.707 409.067 338.414 415.36 344.707 416.774 343.293 410.481 337 416.774 330.707Z"/><path d="M434.067 337 452.067 337 452.067 339 434.067 339Z"/><path d="M445.067 332C445.067 333.105 444.172 334 443.067 334 441.962 334 441.067 333.105 441.067 332 441.067 330.895 441.962 330 443.067 330 444.172 330 445.067 330.895 445.067 332Z"/><path d="M445.067 344C445.067 345.105 444.172 346 443.067 346 441.962 346 441.067 345.105 441.067 344 441.067 342.895 441.962 342 443.067 342 444.172 342 445.067 342.895 445.067 344Z"/></g></svg>
