<svg fill="currentColor" viewBox="0 0 96 96" xmlns="http://www.w3.org/2000/svg"><g transform="translate(-86 -316)"><path d="M130 359C138.837 359 146 351.837 146 343 146 334.163 138.837 327 130 327 121.163 327 114 334.163 114 343 114 351.837 121.163 359 130 359ZM130 329C137.732 329 144 335.268 144 343 144 350.732 137.732 357 130 357 122.268 357 116 350.732 116 343 116.008 335.271 122.271 329.008 130 329Z"/><path d="M150.105 369.694C151.166 369.391 152.253 369.186 153.352 369.083 150.087 367.344 146.641 365.969 143.075 364.983 138.838 363.681 134.432 363.013 130 363 125.577 363.075 121.184 363.739 116.937 364.976 111.395 366.6 106.167 369.15 101.476 372.518 99.3259 374.204 98.0492 376.768 98 379.5L98 395 100 395 100 379.5C100.044 377.391 101.031 375.413 102.688 374.109 107.177 370.895 112.177 368.461 117.476 366.909 121.547 365.719 125.759 365.077 130 365 134.242 365.012 138.459 365.653 142.513 366.9 145.113 367.632 147.651 368.566 150.105 369.694Z"/><path d="M155 372C146.716 372 140 378.716 140 387 140 395.284 146.716 402 155 402 163.284 402 170 395.284 170 387 169.991 378.72 163.28 372.009 155 372ZM155 400C147.82 400 142 394.18 142 387 142 379.82 147.82 374 155 374 162.18 374 168 379.82 168 387 167.992 394.176 162.176 399.992 155 400Z"/><path d="M148 386 162 386 162 388 148 388Z"/></g></svg>
