<svg fill="currentColor" viewBox="0 0 96 96" xmlns="http://www.w3.org/2000/svg"><g transform="translate(-499 -429)"><path d="M567.083 461.749C568.255 462.921 570.154 462.921 571.326 461.749 571.326 461.749 571.326 461.749 571.326 461.749L575.569 457.506 555.063 437 550.82 441.243C549.649 442.414 549.649 444.314 550.82 445.485L527.485 468.82C526.313 467.649 524.414 467.649 523.243 468.82L519 473.063 539.506 493.569 543.749 489.326C544.921 488.155 544.921 486.255 543.749 485.083 543.749 485.083 543.749 485.083 543.749 485.083L552.588 476.245 579.528 503.185C581.051 504.708 583.52 504.708 585.043 503.186 585.044 503.185 585.044 503.185 585.044 503.185L585.185 503.044C586.708 501.521 586.708 499.052 585.186 497.529 585.185 497.528 585.185 497.528 585.185 497.528L558.244 470.588ZM552.234 442.657 555.063 439.828 572.74 457.506 569.912 460.334C569.522 460.725 568.888 460.725 568.498 460.335 568.497 460.335 568.497 460.334 568.497 460.334L567.083 458.92 567.083 458.92 552.941 444.778 552.941 444.778 552.234 444.071C551.844 443.681 551.844 443.047 552.234 442.657ZM542.334 487.912 539.506 490.74 521.828 473.063 524.657 470.234C525.047 469.844 525.68 469.844 526.071 470.234L527.485 471.648 527.485 471.648 540.921 485.083 540.921 485.083 542.335 486.5C542.724 486.89 542.724 487.522 542.335 487.912ZM542.334 483.669 528.9 470.234 552.234 446.9 552.234 446.9 565.669 460.334ZM583.771 498.943C584.513 499.685 584.514 500.888 583.772 501.63 583.772 501.63 583.771 501.631 583.771 501.631L583.631 501.771C582.889 502.513 581.686 502.513 580.944 501.771L554 474.83 556.83 472Z"/><path d="M510.9 517 543.1 517C545.253 516.997 546.997 515.253 547 513.1L547 512.9C546.997 510.747 545.253 509.003 543.1 509L541 509 541 504 513 504 513 509 510.9 509C508.747 509.003 507.003 510.747 507 512.9L507 513.1C507.003 515.253 508.747 516.997 510.9 517ZM515 506 539 506 539 509 515 509ZM509 512.9C509 511.851 509.851 511 510.9 511L543.1 511C544.149 511 545 511.851 545 512.9L545 513.1C545 514.149 544.149 515 543.1 515L510.9 515C509.851 515 509 514.149 509 513.1Z"/></g></svg>
