<svg fill="currentColor" viewBox="0 0 96 96" xmlns="http://www.w3.org/2000/svg"><g transform="translate(-691 -259)"><path d="M739 280.006C736.791 280.006 735 281.797 735 284.006 735 286.215 736.791 288.006 739 288.006 741.209 288.006 743 286.215 743 284.006 742.993 281.8 741.206 280.013 739 280.006ZM739 286.006C737.895 286.006 737 285.111 737 284.006 737 282.901 737.895 282.006 739 282.006 740.105 282.006 741 282.901 741 284.006 741.001 285.111 740.107 286.007 739.002 286.008 739.001 286.008 739.001 286.008 739 286.008Z"/><path d="M770 334.021 770 331 766 331 766 300 770 300 770 295 775 295 775 293 739 271 703 293 703 295 708 295 708 300 712 300 712 331 708 331 708 334.021 701 339.021 701 343 777 343 777 339.022ZM764 331 762 331 762 300 764 300ZM718 300 724 300 724 331 718 331ZM726 300 728 300 728 331 726 331ZM730 300 736 300 736 331 730 331ZM738 300 740 300 740 331 738 331ZM742 300 748 300 748 331 742 331ZM750 300 752 300 752 331 750 331ZM754 300 760 300 760 331 754 331ZM706.866 292.981 739 273.347 771.134 292.981C771.139 292.983 771.142 292.988 771.14 292.994 771.139 292.997 771.137 292.999 771.134 293L706.872 293C706.866 292.999 706.862 292.994 706.862 292.988 706.863 292.985 706.864 292.983 706.866 292.981ZM710 295 768 295 768 298 710 298ZM714 300 716 300 716 331 714 331ZM710 335.05 710 333 768 333 768 335.05 768.837 335.65 769.329 336.002 708.671 336.002 709.164 335.65ZM775 341 703 341 703 340.052 705.871 338 772.134 338 775 340.052Z"/></g></svg>
