<svg fill="currentColor" viewBox="0 0 96 96" xmlns="http://www.w3.org/2000/svg"><g transform="translate(-376 -450)"><path d="M466.334 515.43 460.927 513.512 460.927 504.489 465.274 502.65C465.783 502.435 466.021 501.849 465.807 501.34 465.673 501.024 465.387 500.798 465.048 500.742L457.911 499.563 457.911 490.72 466.375 487.3C466.887 487.093 467.135 486.51 466.928 485.998 466.82 485.732 466.604 485.526 466.334 485.43L460.927 483.512 460.927 474.489 465.274 472.65C465.783 472.435 466.021 471.848 465.805 471.339 465.698 471.085 465.49 470.887 465.231 470.791L431.671 458.4C431.455 458.32 431.218 458.317 431 458.392L385.7 474.19C385.605 474.222 385.516 474.269 385.436 474.328 385.307 474.428 382.27 476.738 382.27 483.835 382.258 485.452 382.443 487.064 382.822 488.635 381.643 489.635 379.27 492.335 379.27 497.835 379.25 501.793 380.517 505.65 382.881 508.825 382.455 510.46 382.25 512.145 382.27 513.835 382.27 520.873 385.364 523.735 385.496 523.852 385.584 523.932 385.685 523.995 385.796 524.039L417.796 536.631C417.913 536.677 418.037 536.7 418.162 536.7 418.291 536.7 418.418 536.675 418.537 536.627L466.375 517.3C466.887 517.093 467.135 516.51 466.928 515.998 466.82 515.732 466.604 515.526 466.334 515.43ZM455.911 499.73 418.121 514.788 386.465 502.326 386.465 494.315 417.8 506.631C418.038 506.726 418.303 506.726 418.541 506.631L455.909 491.531ZM418.163 534.623 386.733 522.257C386.245 521.713 384.272 519.182 384.272 513.835 384.243 512.165 384.47 510.501 384.945 508.9 385.053 508.56 384.972 508.188 384.732 507.924 382.46 505.053 381.239 501.492 381.272 497.831 381.272 491.886 384.345 489.961 384.472 489.886 384.872 489.654 385.061 489.178 384.929 488.735 384.476 487.142 384.256 485.491 384.275 483.835 384.275 478.518 386.126 476.421 386.544 476.015L431.314 460.4 462.144 471.784C462.158 471.784 462.158 471.798 462.144 471.803L418.163 489.623 388.831 478.077C388.317 477.875 387.737 478.128 387.534 478.642 387.332 479.156 387.585 479.736 388.099 479.939L418.163 491.731 455.909 476.631 458.927 477.719 458.927 481.688 418.163 496.788 384.465 484.077 384.465 479.935C384.061 480.348 383.724 480.822 383.469 481.339 383.365 481.533 383.275 481.734 383.198 481.94L383.198 489.423C383.198 489.432 383.202 489.44 383.209 489.445L384.461 490.067C384.461 490.067 384.465 490.074 384.465 490.078L384.465 492.299 417.8 504.631C418.038 504.726 418.303 504.726 418.541 504.631L455.911 489.529 458.927 490.619 458.927 499.73 418.163 514.788 384.465 502.326 384.465 500.299C384.274 500.431 384.09 500.573 383.913 500.725 382.222 502.153 381.265 504.246 381.272 506.445L381.272 507.908C381.553 507.374 381.886 506.869 382.268 506.4 382.471 506.153 382.691 505.921 382.924 505.704L382.924 514.025C383.407 515.456 384.822 517.846 386.383 519.247L418.163 531.623 463.927 513.206 463.927 504.194Z"/></g></svg>
