<svg fill="currentColor" viewBox="0 0 96 96" xmlns="http://www.w3.org/2000/svg"><g transform="translate(-813 -118)"><path d="M852.032 152.979C851.48 152.979 851.032 153.427 851.032 153.979L851.022 204 846.031 204 846.031 176 844.031 176 844.031 204 839.031 204 839.031 153.979C839.031 153.427 838.583 152.979 838.031 152.979 837.479 152.979 837.031 153.427 837.031 153.979L837.031 206 853.022 206 853.032 153.979C853.032 153.427 852.584 152.979 852.032 152.979Z"/><path d="M845.031 140C848.897 140 852.031 136.866 852.031 133 852.031 129.134 848.897 126 845.031 126 841.165 126 838.031 129.134 838.031 133 838.035 136.864 841.167 139.996 845.031 140ZM845.031 128C847.792 128 850.031 130.239 850.031 133 850.031 135.761 847.792 138 845.031 138 842.27 138 840.031 135.761 840.031 133 840.034 130.24 842.271 128.003 845.031 128Z"/><path d="M883.032 152.979C882.48 152.979 882.032 153.427 882.032 153.979L882.022 204 877.031 204 877.031 176 875.031 176 875.031 204 870.031 204 870.031 153.979C870.031 153.427 869.583 152.979 869.031 152.979 868.479 152.979 868.031 153.427 868.031 153.979L868.031 206 884.022 206 884.032 153.979C884.032 153.427 883.584 152.979 883.032 152.979Z"/><path d="M876.031 140C879.897 140 883.031 136.866 883.031 133 883.031 129.134 879.897 126 876.031 126 872.165 126 869.031 129.134 869.031 133 869.035 136.864 872.167 139.996 876.031 140ZM876.031 128C878.792 128 881.031 130.239 881.031 133 881.031 135.761 878.792 138 876.031 138 873.27 138 871.031 135.761 871.031 133 871.034 130.24 873.271 128.003 876.031 128Z"/></g></svg>
