<svg fill="currentColor" viewBox="0 0 96 96" xmlns="http://www.w3.org/2000/svg"><g transform="translate(-919 -429)"><path d="M967 449C968.933 449 970.5 447.433 970.5 445.5 970.5 443.567 968.933 442 967 442L966.9 442C964.997 442.034 963.479 443.597 963.5 445.5 963.503 447.432 965.068 448.997 967 449ZM965.908 444.44C966.178 444.163 966.547 444.004 966.934 444L967 444C967.828 444 968.5 444.672 968.5 445.5 968.5 446.328 967.828 447 967 447 966.171 447 965.5 446.328 965.5 445.5 965.5 445.495 965.5 445.49 965.5 445.485 965.491 445.097 965.638 444.722 965.907 444.443Z"/><path d="M960.458 463.705 959.044 462.291 951.751 469.583 948.458 466.291 947.044 467.705 951.751 472.412 960.458 463.705Z"/><path d="M966.001 465.998 987.001 465.998 987.001 467.998 966.001 467.998Z"/><path d="M960.458 475.707 959.044 474.293 951.751 481.586 948.458 478.293 947.044 479.707 951.751 484.414 960.458 475.707Z"/><path d="M966.001 478 987.001 478 987.001 480 966.001 480Z"/><path d="M960.458 487.707 959.044 486.293 951.751 493.586 948.458 490.293 947.044 491.707 951.751 496.414 960.458 487.707Z"/><path d="M966.001 490 987.001 490 987.001 492 966.001 492Z"/><path d="M960.458 499.707 959.044 498.293 951.751 505.586 948.458 502.293 947.044 503.707 951.751 508.414 960.458 499.707Z"/><path d="M966.001 502 987.001 502 987.001 504 966.001 504Z"/><path d="M997 447.979C997 445.77 995.209 443.979 993 443.979L978 443.979 978 441.979C977.997 439.219 975.76 436.982 973 436.979L961 436.979C958.24 436.982 956.003 439.219 956 441.979L956 443.979 941 443.979C938.791 443.979 937 445.77 937 447.979L937 513C937 515.209 938.791 517 941 517L993 517C995.209 517 997 515.209 997 513ZM954 445.979 958 445.979 958 441.979C958 440.322 959.343 438.979 961 438.979L973 438.979C974.657 438.979 976 440.322 976 441.979L976 445.979 980 445.979 980 454 954 454ZM993 515 941 515C939.895 515 939 514.105 939 513L939 447.979C939 446.874 939.895 445.979 941 445.979L952 445.979 952 456 982 456 982 445.979 993 445.979C994.105 445.979 995 446.874 995 447.979L995 513C995 514.105 994.105 515 993 515Z"/></g></svg>
