<svg fill="currentColor" viewBox="0 0 96 96" xmlns="http://www.w3.org/2000/svg"><g transform="translate(-690 -118)"><path d="M753.031 140C756.897 140 760.031 136.866 760.031 133 760.031 129.134 756.897 126 753.031 126 749.165 126 746.031 129.134 746.031 133 746.035 136.864 749.167 139.996 753.031 140ZM753.031 128C755.792 128 758.031 130.239 758.031 133 758.031 135.761 755.792 138 753.031 138 750.27 138 748.031 135.761 748.031 133 748.034 130.24 750.271 128.003 753.031 128Z"/><path d="M769.9 169.884 765.553 149.584C765.33 148.823 764.966 148.11 764.479 147.484 762.731 145.437 760.488 143.873 757.963 142.94 754.798 141.691 751.277 141.689 748.11 142.934 745.562 143.877 743.299 145.461 741.542 147.534 741.059 148.171 740.701 148.893 740.486 149.662L738.041 161.1C738.041 161.105 738.036 161.11 738.031 161.11 738.026 161.11 738.021 161.105 738.021 161.1L735.555 149.583C735.332 148.822 734.968 148.109 734.481 147.483 732.733 145.436 730.49 143.872 727.965 142.939 724.8 141.69 721.279 141.688 718.112 142.933 715.563 143.876 713.301 145.46 711.544 147.533 711.061 148.17 710.703 148.892 710.488 149.661L706.15 169.935C705.697 172.769 707.067 174.042 708.296 174.612 708.797 174.844 709.392 174.626 709.624 174.125 709.856 173.624 709.638 173.029 709.137 172.797 708.483 172.497 707.853 171.956 708.116 170.303L712.426 150.146C712.566 149.657 712.793 149.197 713.096 148.788 714.628 146.993 716.596 145.622 718.81 144.806 721.527 143.729 724.553 143.731 727.268 144.812 729.459 145.619 731.408 146.972 732.93 148.743 733.236 149.143 733.469 149.593 733.618 150.074L737.009 165.922 736.15 169.935C735.697 172.769 737.067 174.042 738.296 174.612 738.797 174.844 739.392 174.626 739.624 174.125 739.856 173.624 739.638 173.029 739.137 172.797 738.483 172.497 737.853 171.956 738.116 170.303L742.426 150.146C742.566 149.657 742.793 149.197 743.096 148.788 744.628 146.993 746.596 145.622 748.81 144.806 751.527 143.729 754.553 143.731 757.268 144.812 759.459 145.619 761.408 146.972 762.93 148.743 763.236 149.143 763.469 149.593 763.618 150.074L767.884 170.237C768.147 171.903 767.518 172.443 766.864 172.74 766.363 172.972 766.145 173.567 766.377 174.068 766.609 174.569 767.204 174.787 767.705 174.555 768.934 173.985 770.304 172.712 769.9 169.884Z"/><path d="M723.031 140C726.897 140 730.031 136.866 730.031 133 730.031 129.134 726.897 126 723.031 126 719.165 126 716.031 129.134 716.031 133 716.035 136.864 719.167 139.996 723.031 140ZM723.031 128C725.792 128 728.031 130.239 728.031 133 728.031 135.761 725.792 138 723.031 138 720.27 138 718.031 135.761 718.031 133 718.034 130.24 720.271 128.003 723.031 128Z"/></g></svg>
