<svg fill="currentColor" viewBox="0 0 96 96" xmlns="http://www.w3.org/2000/svg"><g transform="translate(-219 -493)"><path d="M292 501 238 501 238 580.961 292 580.961C294.766 580.964 297.011 578.727 297.019 575.961L297.019 506C297.011 503.234 294.766 500.997 292 501ZM240 503 246.261 503 246.261 578.961 240 578.961ZM295.019 575.963C295.012 577.625 293.661 578.967 292 578.963L248.261 578.963 248.261 503 292 503C293.661 502.996 295.012 504.339 295.019 506Z"/><path d="M258 527 286 527 286 529 258 529Z"/><path d="M264 538 280 538 280 540 264 540Z"/></g></svg>
