<svg fill="currentColor" viewBox="0 0 96 96" xmlns="http://www.w3.org/2000/svg"><g transform="translate(-943 -118)"><path d="M973.03 152.836C972.478 152.836 972.03 153.284 972.03 153.836L972.019 203.857 967.029 203.857 967.029 174.857 965.029 174.857 965.029 203.857 960.029 203.857 960.029 153.836C960.029 153.284 959.581 152.836 959.029 152.836 958.477 152.836 958.029 153.284 958.029 153.836L958.029 205.857 974.019 205.857 974.03 153.836C974.03 153.284 973.582 152.836 973.03 152.836Z"/><path d="M966.029 139.857C969.895 139.857 973.029 136.723 973.029 132.857 973.029 128.991 969.895 125.857 966.029 125.857 962.163 125.857 959.029 128.991 959.029 132.857 959.033 136.721 962.165 139.853 966.029 139.857ZM966.029 127.857C968.79 127.857 971.029 130.096 971.029 132.857 971.029 135.618 968.79 137.857 966.029 137.857 963.268 137.857 961.029 135.618 961.029 132.857 961.032 130.097 963.269 127.86 966.029 127.857Z"/><path d="M995.029 139.857C998.895 139.857 1002.03 136.723 1002.03 132.857 1002.03 128.991 998.895 125.857 995.029 125.857 991.163 125.857 988.029 128.991 988.029 132.857 988.033 136.721 991.165 139.853 995.029 139.857ZM995.029 127.857C997.79 127.857 1000.03 130.096 1000.03 132.857 1000.03 135.618 997.79 137.857 995.029 137.857 992.268 137.857 990.029 135.618 990.029 132.857 990.032 130.097 992.269 127.86 995.029 127.857Z"/><path d="M1003.03 163.721 1003.03 153.836C1003.03 153.284 1002.58 152.836 1002.03 152.836 1001.48 152.836 1001.03 153.284 1001.03 153.836L1001.03 163.857 1005.71 180.857 984.344 180.857 988.991 164.125 989.028 153.836C989.028 153.284 988.58 152.836 988.028 152.836 987.476 152.836 987.028 153.284 987.028 153.836L987.028 163.721 981.713 182.857 987.028 182.857 987.028 205.857 1003.02 205.857 1003.02 182.857 1008.34 182.857ZM989.028 182.857 994.028 182.857 994.028 203.857 989.028 203.857ZM1001.02 203.857 996.029 203.857 996.029 182.857 1001.02 182.857Z"/></g></svg>
