<svg fill="currentColor" viewBox="0 0 96 96" xmlns="http://www.w3.org/2000/svg"><g transform="translate(-249 -138)"><path d="M314 184 298 184 298 157 280 157 280 159 296 159 296 184 280 184 280 186 296 186 296 211 280 211 280 213 298 213 298 186 314 186 314 184Z"/><path d="M275 163 265 163 265 153 275 153ZM263 151 263 165 277 165 277 151Z"/><path d="M275 190 265 190 265 180 275 180ZM263 178 263 192 277 192 277 178Z"/><path d="M275 217 265 217 265 207 275 207ZM263 205 263 219 277 219 277 205Z"/><path d="M329 190 319 190 319 180 329 180ZM317 178 317 192 331 192 331 178Z"/></g></svg>
