<svg fill="currentColor" viewBox="0 0 96 96" xmlns="http://www.w3.org/2000/svg"><g transform="translate(-515 -264)"><path d="M596.4 285.908 596.014 285.908C595.959 282.91 594.519 280.107 592.114 278.317L592.053 278.271 591.988 278.23C590.393 277.182 588.529 276.617 586.621 276.605 585.618 276.599 584.62 276.747 583.662 277.046 581.763 273.391 577.981 271.104 573.862 271.119 573.032 271.138 572.206 271.226 571.391 271.384L571.332 271.394 571.269 271.408C566.259 272.555 562.697 277 562.67 282.14 562.67 282.194 562.67 282.307 562.67 282.307 562.228 282.231 561.779 282.198 561.331 282.207 558.39 282.213 555.627 283.617 553.887 285.988 551.828 288.77 551.419 292.443 552.814 295.61L552.837 295.663 552.863 295.716C554.401 298.744 557.413 300.746 560.8 300.992L560.886 301 596.291 301C600.414 300.957 603.792 297.712 604 293.594L604 293.554 604 293.514C604 289.315 600.599 285.911 596.4 285.908ZM596.275 299 560.975 299C558.284 298.808 555.888 297.226 554.654 294.826 553.544 292.316 553.862 289.403 555.489 287.192 556.854 285.328 559.023 284.222 561.333 284.211 561.742 284.212 562.151 284.24 562.556 284.296L564.656 284.686C564.661 284.687 564.667 284.684 564.668 284.678 564.668 284.677 564.668 284.677 564.668 284.676L564.668 282.3C564.622 278.036 567.55 274.315 571.705 273.355 572.413 273.217 573.131 273.137 573.852 273.117 577.29 273.1 580.437 275.044 581.962 278.126L582.674 279.549C582.677 279.552 582.683 279.552 582.686 279.549L584.228 278.956C585 278.712 585.805 278.591 586.614 278.598 588.142 278.611 589.633 279.067 590.907 279.91 592.836 281.343 593.984 283.597 594.009 286L594.009 287.9C594.009 287.905 594.013 287.91 594.019 287.91L596.394 287.91C599.487 287.907 601.997 290.411 602 293.504 602 293.507 602 293.511 602 293.514 601.853 296.574 599.338 298.984 596.275 299Z"/><path d="M565 309 527 309C524.791 309 523 310.791 523 313L523 338C523 340.209 524.791 342 527 342L542 342 542 348 536 348 536 350 556 350 556 348 550 348 550 342 565 342C567.209 342 569 340.209 569 338L569 313C569 310.791 567.209 309 565 309ZM567 338C567 339.105 566.105 340 565 340L527 340C525.895 340 525 339.105 525 338L525 313C525 311.895 525.895 311 527 311L565 311C566.105 311 567 311.895 567 313ZM548 348 544 348 544 342 548 342Z"/></g></svg>
