<svg fill="currentColor" viewBox="0 0 96 96" xmlns="http://www.w3.org/2000/svg"><g transform="translate(-79 -442)"><path d="M123 485C131.837 485 139 477.837 139 469 139 460.163 131.837 453 123 453 114.163 453 107 460.163 107 469 107 477.837 114.163 485 123 485ZM123 455C130.732 455 137 461.268 137 469 137 476.732 130.732 483 123 483 115.268 483 109 476.732 109 469 109.008 461.271 115.271 455.008 123 455Z"/><path d="M143.105 495.694C144.166 495.391 145.253 495.186 146.352 495.083 143.087 493.344 139.641 491.969 136.075 490.983 131.838 489.681 127.432 489.013 123 489 118.577 489.075 114.184 489.739 109.937 490.976 104.395 492.6 99.1675 495.15 94.476 498.518 92.3259 500.204 91.0492 502.768 91 505.5L91 521 93 521 93 505.5C93.0444 503.391 94.0306 501.413 95.688 500.109 100.177 496.895 105.177 494.461 110.476 492.909 114.547 491.719 118.759 491.077 123 491 127.242 491.012 131.459 491.653 135.513 492.9 138.113 493.632 140.651 494.566 143.105 495.694Z"/><path d="M148 498C139.716 498 133 504.716 133 513 133 521.284 139.716 528 148 528 156.284 528 163 521.284 163 513 162.991 504.72 156.28 498.009 148 498ZM148 526C140.82 526 135 520.18 135 513 135 505.82 140.82 500 148 500 155.18 500 161 505.82 161 513 160.992 520.176 155.176 525.992 148 526Z"/><path d="M149 506 147 506 147 512 141 512 141 514 147 514 147 520 149 520 149 514 155 514 155 512 149 512 149 506Z"/></g></svg>
