<svg fill="currentColor" viewBox="0 0 96 96" xmlns="http://www.w3.org/2000/svg"><g transform="translate(-389 -131)"><path d="M404.998 145 402.998 145 402.998 213 470.967 213 470.967 211 404.998 211 404.998 145Z"/><path d="M423 205.016 423 166.006 411 166.006 411 205.016ZM413 168.006 421 168.006 421 203.016 413 203.016Z"/><path d="M439 205.016 439 145 427 145 427 205.016ZM429 147 437 147 437 203.016 429 203.016Z"/><path d="M455 205.016 455 166.006 443 166.006 443 205.016ZM445 168.006 453 168.006 453 203.016 445 203.016Z"/><path d="M459 205.016 471 205.016 471 183.011 459 183.011ZM461 185.011 469 185.011 469 203.016 461 203.016Z"/></g></svg>
