<svg fill="currentColor" viewBox="0 0 96 96" xmlns="http://www.w3.org/2000/svg"><g transform="translate(-1090 -118)"><path d="M1129.03 152.979C1128.48 152.979 1128.03 153.427 1128.03 153.979L1128.02 204 1123.03 204 1123.03 176 1121.03 176 1121.03 204 1116.03 204 1116.03 153.979C1116.03 153.427 1115.58 152.979 1115.03 152.979 1114.48 152.979 1114.03 153.427 1114.03 153.979L1114.03 206 1130.02 206 1130.03 153.979C1130.03 153.427 1129.58 152.979 1129.03 152.979Z"/><path d="M1122.03 140C1125.9 140 1129.03 136.866 1129.03 133 1129.03 129.134 1125.9 126 1122.03 126 1118.17 126 1115.03 129.134 1115.03 133 1115.04 136.864 1118.17 139.996 1122.03 140ZM1122.03 128C1124.79 128 1127.03 130.239 1127.03 133 1127.03 135.761 1124.79 138 1122.03 138 1119.27 138 1117.03 135.761 1117.03 133 1117.03 130.24 1119.27 128.003 1122.03 128Z"/><path d="M1153.03 140C1156.9 140 1160.03 136.866 1160.03 133 1160.03 129.134 1156.9 126 1153.03 126 1149.17 126 1146.03 129.134 1146.03 133 1146.04 136.864 1149.17 139.996 1153.03 140ZM1153.03 128C1155.79 128 1158.03 130.239 1158.03 133 1158.03 135.761 1155.79 138 1153.03 138 1150.27 138 1148.03 135.761 1148.03 133 1148.03 130.24 1150.27 128.003 1153.03 128Z"/><path d="M1169.9 169.884 1165.55 149.584C1165.33 148.823 1164.97 148.11 1164.48 147.484 1162.73 145.437 1160.49 143.873 1157.96 142.94 1154.8 141.691 1151.28 141.689 1148.11 142.934 1145.56 143.877 1143.3 145.461 1141.54 147.534 1141.06 148.171 1140.7 148.893 1140.49 149.662L1137.83 162.1C1137.83 162.105 1137.82 162.108 1137.81 162.106 1137.81 162.105 1137.81 162.103 1137.81 162.1L1136.1 150.409C1136.02 149.775 1135.83 149.159 1135.53 148.591 1135.32 148.202 1135.07 147.835 1134.79 147.499 1132.82 145.411 1130.36 143.844 1127.64 142.936 1124.01 141.692 1120.07 141.692 1116.44 142.936 1113.69 143.852 1111.22 145.437 1109.24 147.548 1108.97 147.873 1108.73 148.224 1108.53 148.597 1108.24 149.165 1108.05 149.781 1107.96 150.415L1105.06 170.237C1104.8 171.903 1105.43 172.443 1106.08 172.74 1106.58 172.972 1107.18 172.754 1107.41 172.253 1107.64 171.752 1107.42 171.157 1106.92 170.925 1106.27 170.625 1105.64 170.084 1105.9 168.431L1108.76 148.762C1108.9 148.273 1109.13 147.813 1109.43 147.404 1111.22 145.201 1113.59 143.565 1116.28 142.706 1119.47 141.63 1122.93 141.628 1126.12 142.7 1128.46 143.485 1130.56 144.834 1132.24 146.635 1132.54 147.024 1132.77 147.463 1132.93 147.93L1134.81 162.268C1134.81 162.273 1134.81 162.278 1134.82 162.281 1134.82 162.284 1134.82 162.284 1134.83 162.282L1137.81 148.762C1137.95 148.273 1138.18 147.813 1138.48 147.404 1140.01 145.609 1141.98 144.238 1144.19 143.422 1146.91 142.345 1149.93 142.347 1152.65 143.428 1154.84 144.235 1156.79 145.588 1158.31 147.359 1158.62 147.759 1158.85 148.209 1159 148.69L1163.26 168.853C1163.52 170.519 1162.89 171.059 1162.24 171.356 1161.74 171.588 1161.52 172.183 1161.75 172.684 1161.98 173.185 1162.58 173.403 1163.08 173.171 1164.31 172.601 1165.68 171.328 1165.27 168.5Z"/></g></svg>
