<svg fill="currentColor" viewBox="0 0 96 96" xmlns="http://www.w3.org/2000/svg"><g transform="translate(-685 -419)"><path d="M768.29 430.436C765.117 425.731 758.731 424.489 754.026 427.662 752.931 428.4 751.989 429.342 751.251 430.436 749.334 433.265 748.929 436.855 750.168 440.039L754.846 450.381 758.884 458.851C759.135 459.34 759.735 459.534 760.225 459.283 760.411 459.188 760.562 459.036 760.657 458.851L764.695 450.381 769.373 440.039C770.612 436.855 770.207 433.265 768.29 430.436ZM767.526 439.27 762.89 449.52 759.78 456.044C759.775 456.054 759.767 456.054 759.762 456.044L756.668 449.556 752.015 439.27C751.034 436.706 751.368 433.824 752.911 431.552 755.467 427.764 760.611 426.765 764.399 429.322 765.284 429.918 766.044 430.68 766.639 431.566 768.175 433.835 768.506 436.711 767.526 439.27Z"/><path d="M698.216 468.006C695.84 471.51 695.339 475.957 696.873 479.903L702.669 492.715 707.672 503.208C707.983 503.815 708.727 504.055 709.333 503.744 709.563 503.626 709.75 503.439 709.869 503.208L714.871 492.715 720.667 479.903C722.202 475.957 721.7 471.51 719.325 468.006 715.395 462.177 707.483 460.637 701.654 464.568 700.297 465.482 699.13 466.65 698.216 468.006ZM717.674 469.135C719.669 472.08 720.096 475.814 718.82 479.133L713.066 491.854 708.779 500.845C708.774 500.855 708.766 500.855 708.761 500.845L704.491 491.89 698.72 479.133C697.443 475.808 697.875 472.069 699.875 469.122 703.189 464.209 709.858 462.913 714.771 466.228 715.917 467.001 716.903 467.988 717.674 469.135Z"/><path d="M759.77 435C757.009 435 754.77 437.239 754.77 440 754.77 442.761 757.009 445 759.77 445 762.531 445 764.77 442.761 764.77 440 764.767 437.24 762.53 435.003 759.77 435ZM759.77 443C758.114 443 756.77 441.657 756.77 440 756.77 438.343 758.114 437 759.77 437 761.427 437 762.77 438.343 762.77 440 762.768 441.656 761.426 442.998 759.77 443Z"/><path d="M708.77 472C706.009 472 703.77 474.239 703.77 477 703.77 479.761 706.009 482 708.77 482 711.531 482 713.77 479.761 713.77 477 713.767 474.24 711.53 472.003 708.77 472ZM708.77 480C707.114 480 705.77 478.657 705.77 477 705.77 475.343 707.114 474 708.77 474 710.427 474 711.77 475.343 711.77 477 711.768 478.656 710.426 479.998 708.77 480Z"/></g></svg>
