<svg fill="currentColor" viewBox="0 0 96 96" xmlns="http://www.w3.org/2000/svg"><g transform="translate(-913 -251)"><path d="M996 253.7 953.073 300.5 955.303 302.73 953.514 304.4C945.7 312.2 939.873 314.309 938.291 314.769L937.146 315.048 937.058 315.706C935.806 323.378 932.779 330.652 928.219 336.947L927.661 337.647 934.354 344.339 935.054 343.781C941.35 339.222 948.623 336.195 956.295 334.941L956.995 334.831 957.123 334.131C957.135 334.067 958.398 327.689 967.602 318.469L969.311 316.73 971.569 319 996 292.629 996 289.687 971.515 316.113 955.841 300.439 996 256.659ZM966.179 317.066C958.196 325.066 955.909 331.084 955.33 333.074 947.847 334.384 940.744 337.322 934.521 341.679L933.121 340.279 945.7 327.7C947.063 328.282 948.64 327.649 949.222 326.286 949.805 324.923 949.172 323.346 947.808 322.763 946.445 322.181 944.868 322.814 944.286 324.177 943.998 324.851 943.998 325.613 944.286 326.286L931.708 338.866 930.321 337.479C934.685 331.248 937.624 324.133 938.932 316.639 941.499 315.961 947.532 313.196 954.903 305.839L956.718 304.146 967.9 315.321Z"/></g></svg>
